<svg width="24" height="24" viewBox="0 0 24 24" fill="none" xmlns="http://www.w3.org/2000/svg">
<path d="M7.08691 8.46484V19.7998H3.22852V8.46484H7.08691ZM16.5576 8.19824C19.0966 8.19825 20.9998 9.8183 21 13.2998V19.7998H17.1426V13.7354C17.1425 12.212 16.5839 11.1729 15.1875 11.1729C14.1216 11.1729 13.4871 11.873 13.208 12.5508C13.1062 12.7931 13.0801 13.1305 13.0801 13.4697V19.7998H9.2207C9.22103 19.7349 9.27249 9.52718 9.2207 8.46484H13.0801V10.0713C13.0723 10.0833 13.0621 10.0967 13.0547 10.1084H13.0801V10.0713C13.5928 9.30002 14.5083 8.19824 16.5576 8.19824ZM5.18359 3C6.50391 3 7.3154 3.84577 7.34082 4.95801C7.34082 6.04623 6.50402 6.91797 5.1582 6.91797H5.13281C3.8388 6.91797 3 6.04607 3 4.95801C3.00007 3.84583 3.86351 3.00009 5.18359 3Z" fill="#242424"/>
</svg>
