<svg width="2" height="1" viewBox="0 0 2 1" fill="none" xmlns="http://www.w3.org/2000/svg">
<path d="M0.792474 0V0.157001H0.485951V0.938259H0.299047V0.157001H0V0H0.792474ZM1.80175 0.938259L1.76811 0.385025V0.123357C1.74195 0.205595 1.71578 0.317737 1.68587 0.403713L1.51766 0.923306H1.32702L1.15881 0.388761C1.14012 0.317737 1.11395 0.205595 1.09152 0.123357V0.385025L1.05788 0.938259H0.859759L0.930784 0H1.2074L1.37188 0.459785C1.37188 0.530809 1.40926 0.598093 1.43168 0.695283C1.45785 0.609307 1.47654 0.530809 1.49897 0.459785L1.65971 0H1.92885L1.99987 0.938259H1.80175Z" fill="#231F20"/>
</svg>
