<svg width="16" height="5" viewBox="0 0 16 5" fill="none" xmlns="http://www.w3.org/2000/svg">
<path d="M5.37411 2.26344C5.37411 1.56002 5.37411 0.856606 5.37411 0.153189C5.37411 0.0687786 5.37411 0.0687799 5.45852 0.0687799C5.65548 0.0406432 5.88057 0.0406419 6.07753 0.0125052C6.30262 0.0125052 6.52771 -0.0156315 6.75281 0.0125052C7.11858 0.0406419 7.5125 0.0969157 7.85014 0.265736C8.27219 0.462693 8.55356 0.800334 8.72238 1.22238C8.83492 1.47561 8.86306 1.75698 8.8912 2.03835C8.91933 2.37599 8.8912 2.71363 8.83492 3.02313C8.75051 3.36077 8.63797 3.64214 8.38474 3.89537C8.18778 4.09233 7.96269 4.23301 7.70946 4.31742C7.45623 4.42997 7.17486 4.4581 6.89349 4.48624C6.6684 4.51438 6.47144 4.51438 6.24635 4.51438C5.96498 4.51438 5.68361 4.48624 5.43038 4.4581C5.40225 4.4581 5.40225 4.42997 5.40225 4.40183C5.40225 4.37369 5.40225 4.37369 5.40225 4.34556C5.37411 3.67028 5.37411 2.96686 5.37411 2.26344ZM6.27448 2.29158C6.27448 2.7699 6.27448 3.22009 6.27448 3.69841C6.27448 3.75469 6.27448 3.75469 6.33076 3.78282C6.52771 3.81096 6.69653 3.81096 6.89349 3.78282C7.09045 3.75469 7.25927 3.69841 7.42809 3.58587C7.65318 3.41705 7.76573 3.19195 7.85014 2.93872C7.93455 2.68549 7.93455 2.40412 7.90641 2.15089C7.90641 1.9258 7.87827 1.70071 7.76573 1.50375C7.65318 1.19425 7.42809 0.997289 7.11858 0.884743C6.83722 0.800332 6.58399 0.800333 6.30262 0.82847C6.24635 0.82847 6.24635 0.856606 6.24635 0.884743C6.27448 1.33493 6.27448 1.81325 6.27448 2.29158Z" fill="white"/>
<path d="M12.3239 4.48624C12.1832 4.48624 12.0706 4.48624 11.93 4.4581C11.9018 4.4581 11.8737 4.42997 11.8737 4.40183C11.8174 4.1486 11.733 3.89537 11.6767 3.64214C11.6767 3.58587 11.6486 3.58587 11.5923 3.58587C11.1703 3.58587 10.7201 3.58587 10.298 3.58587C10.2418 3.58587 10.2136 3.614 10.2136 3.64214C10.1573 3.89537 10.0729 4.1486 10.0167 4.40183C10.0167 4.4581 9.98853 4.4581 9.93226 4.48624C9.67902 4.51438 9.42579 4.51438 9.17256 4.48624C9.11629 4.48624 9.11629 4.48624 9.11629 4.42997C9.25697 3.97978 9.39766 3.52959 9.53834 3.05127C9.84784 2.09462 10.1573 1.13797 10.4387 0.153189C10.4387 0.0969153 10.4669 0.0969161 10.5231 0.0969161C10.8326 0.0687794 11.114 0.0687794 11.4235 0.0969161C11.4516 0.0969161 11.4798 0.125052 11.4798 0.153189C11.6486 0.715923 11.8455 1.27866 12.0144 1.84139C12.1832 2.34785 12.3239 2.88245 12.4927 3.38891C12.6052 3.72655 12.7178 4.06419 12.8022 4.40183C12.8022 4.4581 12.8022 4.4581 12.7741 4.4581C12.6334 4.48624 12.4646 4.48624 12.3239 4.48624ZM10.9452 1.05356C10.917 1.0817 10.917 1.0817 10.9452 1.05356C10.7764 1.64444 10.6075 2.20717 10.4387 2.7699C10.4387 2.79804 10.4387 2.82618 10.4669 2.82618C10.6638 2.82618 10.8326 2.82618 11.0296 2.82618C11.1421 2.82618 11.2828 2.82618 11.3954 2.82618C11.4235 2.82618 11.4516 2.82618 11.4235 2.7699V2.74177C11.2828 2.20717 11.1421 1.70071 11.0014 1.16611C10.9733 1.13797 10.9452 1.10984 10.9452 1.05356Z" fill="white"/>
<path d="M14.7155 0.0125043C15.0813 0.0125043 15.447 0.0969157 15.7847 0.209462C15.8128 0.209462 15.841 0.237598 15.8128 0.265735C15.7847 0.490829 15.7284 0.687785 15.644 0.884742C15.6159 0.912878 15.6159 0.91288 15.5877 0.91288C15.447 0.856607 15.3345 0.800333 15.1657 0.772196C14.9406 0.74406 14.6874 0.715921 14.4341 0.744058C14.209 0.800331 14.0965 0.941015 14.0965 1.16611C14.0965 1.41934 14.209 1.53189 14.406 1.6163C14.6311 1.72884 14.8562 1.78512 15.0813 1.86953C15.222 1.9258 15.3626 1.98207 15.5033 2.06648C15.7847 2.26344 15.9535 2.51667 15.9816 2.85431C16.0098 3.0794 16.0098 3.27636 15.9535 3.50146C15.841 3.89537 15.5596 4.17674 15.1938 4.34556C14.9687 4.42997 14.7718 4.48624 14.5185 4.48624C14.1809 4.51438 13.8433 4.48624 13.5056 4.40183C13.3931 4.37369 13.2524 4.34556 13.1398 4.28928C13.0836 4.31742 13.0836 4.31742 13.0836 4.23301C13.1117 4.06419 13.1398 3.89537 13.1961 3.72655C13.1961 3.67028 13.2242 3.64214 13.2242 3.58587C13.2242 3.55773 13.2524 3.52959 13.2805 3.55773C13.4493 3.614 13.6182 3.69841 13.8151 3.72655C14.0683 3.78282 14.3216 3.78282 14.5748 3.72655C14.7155 3.69841 14.828 3.64214 14.9124 3.52959C15.0531 3.33263 15.0813 2.91059 14.7155 2.74177C14.5467 2.65736 14.3779 2.60108 14.209 2.54481C14.0121 2.4604 13.8151 2.40412 13.6463 2.26344C13.3649 2.06648 13.2242 1.81325 13.1961 1.47561C13.1961 1.27866 13.1961 1.10984 13.2524 0.91288C13.3649 0.547103 13.6182 0.293871 13.9839 0.153188C14.209 0.040641 14.406 0.0125043 14.7155 0.0125043Z" fill="white"/>
<path d="M1.88516 3.16382C1.57566 3.16382 1.26615 3.16382 0.928511 3.16382C0.872237 3.16382 0.872237 3.16382 0.872237 3.22009C0.900374 3.38891 0.956648 3.52959 1.09733 3.64214C1.20988 3.75469 1.3787 3.78282 1.51938 3.81096C1.85702 3.8391 2.19466 3.81096 2.50417 3.69841C2.56044 3.67028 2.56044 3.69841 2.58858 3.72655C2.67299 3.89537 2.72926 4.09233 2.72926 4.28928C2.72926 4.31742 2.72926 4.34556 2.70112 4.34556C2.50417 4.42997 2.27907 4.4581 2.05398 4.48624C1.88516 4.51438 1.74447 4.51438 1.57565 4.51438C1.26615 4.51438 0.956648 4.4581 0.675281 4.28928C0.365777 4.09233 0.196957 3.81096 0.0844099 3.47332C0.0281365 3.27636 0 3.07941 0 2.88245C0 2.51667 0.0844101 2.15089 0.281367 1.84139C0.506461 1.50375 0.844101 1.30679 1.23802 1.25052C1.51938 1.22238 1.77261 1.22238 2.02584 1.30679C2.39162 1.44748 2.64485 1.70071 2.78553 2.06648C2.89808 2.34785 2.89808 2.65735 2.89808 2.96686C2.89808 2.995 2.89808 3.05127 2.89808 3.07941C2.89808 3.13568 2.89808 3.13568 2.81367 3.13568C2.56044 3.13568 2.30721 3.13568 2.05398 3.13568C2.02584 3.16381 1.96957 3.16382 1.88516 3.16382ZM1.51938 2.54481C1.60379 2.54481 1.6882 2.54481 1.77261 2.54481C1.88516 2.54481 1.96957 2.54481 2.08212 2.54481C2.11025 2.54481 2.13839 2.54481 2.13839 2.48854C2.13839 2.43226 2.11025 2.37599 2.11025 2.31972C2.05398 2.12276 1.9133 1.95394 1.6882 1.9258C1.60379 1.89766 1.51938 1.89766 1.43497 1.9258C1.32242 1.95394 1.20988 1.98207 1.12547 2.06648C1.01292 2.17903 0.956647 2.31972 0.928511 2.48854C0.928511 2.54481 0.928511 2.54481 0.984784 2.54481C1.1536 2.54481 1.32243 2.54481 1.51938 2.54481Z" fill="white"/>
<path d="M4.50187 2.29158C4.50187 2.99499 4.50187 3.69841 4.50187 4.40183C4.50187 4.4581 4.50187 4.48624 4.4456 4.48624C4.19237 4.51438 3.911 4.51438 3.65777 4.48624C3.62963 4.48624 3.6015 4.4581 3.6015 4.42997C3.6015 4.40183 3.6015 4.40183 3.6015 4.37369C3.6015 2.96686 3.6015 1.58816 3.6015 0.181324C3.6015 0.153187 3.6015 0.153188 3.6015 0.125052C3.6015 0.0969148 3.6015 0.068779 3.62963 0.068779C3.79845 0.0406423 3.96727 0.0406406 4.13609 0.0406406C4.2205 0.0406406 4.33305 0.0406423 4.41746 0.068779C4.50187 0.068779 4.50187 0.0687777 4.50187 0.153188C4.50187 0.856605 4.50187 1.56002 4.50187 2.29158Z" fill="white"/>
</svg>
