<svg width="32" height="32" viewBox="0 0 32 32" fill="none" xmlns="http://www.w3.org/2000/svg">
<path d="M16 32C24.8366 32 32 24.8366 32 16C32 7.16344 24.8366 0 16 0C7.16344 0 0 7.16344 0 16C0 24.8366 7.16344 32 16 32Z" fill="#00349A"/>
<path d="M14.2037 3.73752H15.5562L15.9829 2.45752L16.3946 3.73752H17.7493L16.64 4.54179L17.0666 5.83245L15.9765 5.03245L14.8778 5.82179L15.3045 4.54179L14.2037 3.73752ZM20.0384 5.36525H21.3909L21.8176 4.08525L22.2293 5.36525H23.584L22.4853 6.15672L22.8992 7.43672L21.8069 6.63885L20.7082 7.42819L21.1349 6.14819L20.0384 5.36525ZM14.2357 26.9909H15.5882L16.0149 25.7109L16.4266 26.9909H17.7813L16.6826 27.7823L17.0965 29.0623L16 28.2858L14.9013 29.0773L15.328 27.7973L14.2357 26.9909ZM20.0234 25.4719H21.3781L21.8048 24.1919L22.2186 25.4719H23.5712L22.4746 26.2613L22.8864 27.5519L21.7941 26.7519L20.6933 27.5562L21.12 26.2762L20.0234 25.4719ZM24.32 21.1711H25.6746L26.1013 19.8911L26.5152 21.1711H27.8677L26.7754 21.9818L27.1872 23.2618L26.0949 22.4618L24.9984 23.2618L25.425 21.9818L24.32 21.1711ZM25.8922 15.313H27.2448L27.6714 14.033L28.0853 15.313H29.44L28.3413 16.1045L28.753 17.3845L27.6629 16.5845L26.5642 17.3759L26.9909 16.0959L25.8922 15.313ZM24.416 9.48259H25.7685L26.1952 8.20259L26.609 9.48259H27.9616L26.8629 10.2741L27.2768 11.5541L26.1845 10.7541L25.0858 11.5455L25.5125 10.2655L24.416 9.48259ZM8.42238 25.4719H9.77704L10.2037 24.1919L10.6176 25.4719H11.9701L10.8714 26.2613L11.2853 27.5519L10.193 26.7519L9.09651 27.5413L9.52318 26.2613L8.42238 25.4719ZM4.18344 21.1434H5.53811L5.96478 19.8634L6.37864 21.1434H7.73118L6.63464 21.9349L7.04638 23.2149L5.95411 22.4149L4.85758 23.2063L5.28424 21.9263L4.18344 21.1434ZM2.58984 15.313H3.94238L4.36904 14.033L4.78291 15.313H6.13758L5.03464 16.1173L5.44638 17.3973L4.35624 16.6058L3.25758 17.3973L3.68424 16.1173L2.58984 15.313ZM4.18344 9.48259H5.53811L5.96478 8.20259L6.37864 9.48259H7.73118L6.63464 10.2741L7.04638 11.5541L5.95411 10.7541L4.85758 11.5455L5.28424 10.2655L4.18344 9.48259ZM8.33918 5.36525H9.69384L10.1205 4.08525L10.5344 5.36525H11.8869L10.7904 6.15672L11.2021 7.43672L10.1098 6.63885L9.01331 7.42819L9.43998 6.14819L8.33918 5.36525Z" fill="#FFCD02"/>
<path d="M10.8077 17.843C10.6269 17.9204 10.4326 17.9611 10.2359 17.9625C9.95562 17.9666 9.67746 17.9129 9.41887 17.8046C9.1859 17.708 8.97638 17.5625 8.80447 17.3779C8.63466 17.189 8.50477 16.9677 8.4226 16.7273C8.33143 16.4683 8.28596 16.1954 8.2882 15.9209C8.28545 15.6407 8.33091 15.3621 8.4226 15.0974C8.5047 14.8531 8.6345 14.6276 8.80447 14.4339C8.97382 14.2423 9.18369 14.0907 9.41887 13.9902C9.67736 13.8752 9.95729 13.8163 10.2402 13.8174C10.4407 13.8177 10.64 13.8486 10.8311 13.9091C11.0172 13.9688 11.1918 14.0597 11.3474 14.1779C11.5038 14.2975 11.6351 14.4469 11.7335 14.6174C11.8338 14.7902 11.8103 14.5662 11.8338 14.7902L11.085 15.2169C11.0427 15.0221 10.9323 14.8489 10.7735 14.7283C10.6203 14.6118 10.4327 14.5495 10.2402 14.5513C10.0668 14.5452 9.89485 14.5842 9.741 14.6643C9.60675 14.7372 9.49247 14.842 9.4082 14.9694C9.32173 15.0996 9.2589 15.244 9.2226 15.3961C9.18379 15.5618 9.16446 15.7315 9.165 15.9017C9.1647 16.0648 9.18404 16.2274 9.2226 16.3859C9.25816 16.5382 9.32104 16.6828 9.4082 16.8126C9.49375 16.9384 9.60778 17.0422 9.741 17.1155C9.89521 17.1947 10.0669 17.2336 10.2402 17.2286C10.3596 17.2412 10.4802 17.2285 10.5943 17.1913C10.7084 17.1541 10.8134 17.0932 10.9024 17.0127C10.9914 16.9322 11.0624 16.8338 11.1108 16.7239C11.1591 16.6141 11.1838 16.4953 11.1831 16.3753H10.3021V15.7353H11.9661V17.8686H11.4114L11.3239 17.4185C11.1909 17.6017 11.0132 17.7479 10.8077 17.843ZM14.2082 13.9091C14.4511 13.9069 14.6924 13.9481 14.9207 14.0307C15.1357 14.11 15.3308 14.2353 15.4925 14.3977C15.6598 14.5723 15.7885 14.7802 15.8701 15.0078C15.9648 15.2822 16.011 15.5709 16.0066 15.8611C16.0085 16.1311 15.9711 16.3998 15.8957 16.659C15.8286 16.8933 15.7139 17.1112 15.5586 17.299C15.4075 17.4822 15.2162 17.6282 14.9997 17.7257C14.7499 17.8331 14.48 17.8855 14.2082 17.8793H12.5015V13.9091H14.2082ZM14.1485 17.1369C14.2705 17.1359 14.3916 17.115 14.5069 17.075C14.6278 17.0305 14.7362 16.9573 14.8226 16.8617C14.9195 16.7555 14.9923 16.6296 15.0359 16.4926C15.0956 16.3139 15.1238 16.1262 15.1191 15.9379C15.1212 15.7564 15.1018 15.5752 15.0615 15.3982C15.0281 15.248 14.9626 15.1068 14.8695 14.9843C14.781 14.8715 14.6649 14.7834 14.5325 14.7283C14.36 14.6639 14.1767 14.6335 13.9927 14.6387H13.3719V17.1369H14.1485ZM18.413 13.875C18.6239 13.8687 18.8337 13.9087 19.0274 13.9923C19.1862 14.0621 19.327 14.1672 19.4391 14.2995C19.5441 14.4246 19.6225 14.5698 19.6695 14.7262C19.7662 15.0571 19.7662 15.4087 19.6695 15.7395C19.6236 15.9002 19.5452 16.0498 19.4391 16.179C19.3258 16.3101 19.1853 16.4149 19.0274 16.4862C18.8332 16.568 18.6237 16.6073 18.413 16.6014H17.5255V17.9177H16.6722V13.875H18.413ZM18.1826 15.8825C18.2762 15.8823 18.3697 15.8745 18.4621 15.859C18.5467 15.8446 18.6274 15.8126 18.6989 15.7651C18.7702 15.7164 18.8269 15.6494 18.8631 15.571C18.9457 15.3598 18.9457 15.1252 18.8631 14.9139C18.8264 14.8359 18.7697 14.7689 18.6989 14.7198C18.6272 14.673 18.5466 14.6417 18.4621 14.6281C18.3699 14.6108 18.2764 14.6022 18.1826 14.6025H17.5255V15.8825H18.1826ZM22.3725 15.7715L23.6589 17.9155H22.8503L21.9543 16.3219L22.3725 15.7715Z" fill="white"/>
<path d="M22.1417 13.8752C22.3526 13.8688 22.5623 13.9089 22.7561 13.9925C22.9149 14.0623 23.0557 14.1673 23.1678 14.2997C23.2716 14.4256 23.3498 14.5705 23.3982 14.7264C23.4949 15.0572 23.4949 15.4088 23.3982 15.7397C23.3514 15.9 23.2731 16.0494 23.1678 16.1792C23.0545 16.3103 22.914 16.4151 22.7561 16.4864C22.5619 16.5682 22.3524 16.6075 22.1417 16.6016H21.2542V17.9178H20.4009V13.8752H22.1417ZM21.9113 15.8826C22.0049 15.8825 22.0984 15.8746 22.1907 15.8592C22.2754 15.8448 22.356 15.8128 22.4275 15.7653C22.4983 15.7161 22.555 15.6491 22.5918 15.5712C22.6744 15.3599 22.6744 15.1253 22.5918 14.9141C22.5543 14.8365 22.4978 14.7698 22.4275 14.72C22.3559 14.6731 22.2752 14.6419 22.1907 14.6282C22.0985 14.6117 22.005 14.6038 21.9113 14.6048H21.2542V15.8848L21.9113 15.8826Z" fill="white"/>
</svg>
