<svg width="32" height="32" viewBox="0 0 32 32" fill="none" xmlns="http://www.w3.org/2000/svg">
<path d="M16 32C24.8366 32 32 24.8366 32 16C32 7.16344 24.8366 0 16 0C7.16344 0 0 7.16344 0 16C0 24.8366 7.16344 32 16 32Z" fill="#2D4476"/>
<path d="M13.4932 23.7599C13.4932 23.0933 13.4932 22.4266 13.4932 21.7599C13.4932 21.6799 13.4932 21.6799 13.5732 21.6799C13.7599 21.6533 13.9732 21.6533 14.1599 21.6266C14.3732 21.6266 14.5866 21.5999 14.7999 21.6266C15.1466 21.6533 15.5199 21.7066 15.8399 21.8666C16.2399 22.0533 16.5066 22.3733 16.6666 22.7733C16.7732 23.0133 16.7999 23.2799 16.8266 23.5466C16.8532 23.8666 16.8266 24.1866 16.7732 24.4799C16.6932 24.7999 16.5866 25.0666 16.3466 25.3066C16.1599 25.4933 15.9466 25.6266 15.7066 25.7066C15.4666 25.8133 15.1999 25.8399 14.9332 25.8666C14.7199 25.8933 14.5332 25.8933 14.3199 25.8933C14.0532 25.8933 13.7866 25.8666 13.5466 25.8399C13.5199 25.8399 13.5199 25.8133 13.5199 25.7866C13.5199 25.7599 13.5199 25.7599 13.5199 25.7333C13.4932 25.0933 13.4932 24.4266 13.4932 23.7599ZM14.3466 23.7866C14.3466 24.2399 14.3466 24.6666 14.3466 25.1199C14.3466 25.1733 14.3466 25.1733 14.3999 25.1999C14.5866 25.2266 14.7466 25.2266 14.9332 25.1999C15.1199 25.1733 15.2799 25.1199 15.4399 25.0133C15.6532 24.8533 15.7599 24.6399 15.8399 24.3999C15.9199 24.1599 15.9199 23.8933 15.8932 23.6533C15.8932 23.4399 15.8666 23.2266 15.7599 23.0399C15.6532 22.7466 15.4399 22.5599 15.1466 22.4533C14.8799 22.3733 14.6399 22.3733 14.3732 22.3999C14.3199 22.3999 14.3199 22.4266 14.3199 22.4533C14.3466 22.8799 14.3466 23.3333 14.3466 23.7866Z" fill="white"/>
<path d="M20.0799 25.8666C19.9466 25.8666 19.8399 25.8666 19.7066 25.8399C19.6799 25.8399 19.6532 25.8133 19.6532 25.7866C19.5999 25.5466 19.5199 25.3066 19.4666 25.0666C19.4666 25.0133 19.4399 25.0133 19.3866 25.0133C18.9866 25.0133 18.5599 25.0133 18.1599 25.0133C18.1066 25.0133 18.0799 25.0399 18.0799 25.0666C18.0266 25.3066 17.9466 25.5466 17.8932 25.7866C17.8932 25.8399 17.8666 25.8399 17.8132 25.8666C17.5732 25.8933 17.3332 25.8933 17.0932 25.8666C17.0399 25.8666 17.0399 25.8666 17.0399 25.8133C17.1732 25.3866 17.3066 24.9599 17.4399 24.5066C17.7332 23.5999 18.0266 22.6933 18.2932 21.7599C18.2932 21.7066 18.3199 21.7066 18.3732 21.7066C18.6666 21.6799 18.9332 21.6799 19.2266 21.7066C19.2532 21.7066 19.2799 21.7333 19.2799 21.7599C19.4399 22.2933 19.6266 22.8266 19.7866 23.3599C19.9466 23.8399 20.0799 24.3466 20.2399 24.8266C20.3466 25.1466 20.4532 25.4666 20.5332 25.7866C20.5332 25.8399 20.5332 25.8399 20.5066 25.8399C20.3732 25.8666 20.2132 25.8666 20.0799 25.8666ZM18.7732 22.6133C18.7466 22.6399 18.7466 22.6399 18.7732 22.6133C18.6132 23.1733 18.4532 23.7066 18.2932 24.2399C18.2932 24.2666 18.2932 24.2933 18.3199 24.2933C18.5066 24.2933 18.6666 24.2933 18.8532 24.2933C18.9599 24.2933 19.0932 24.2933 19.1999 24.2933C19.2266 24.2933 19.2532 24.2933 19.2266 24.2399V24.2133C19.0932 23.7066 18.9599 23.2266 18.8266 22.7199C18.7999 22.6933 18.7732 22.6666 18.7732 22.6133Z" fill="white"/>
<path d="M22.3466 21.6266C22.6932 21.6266 23.0399 21.7066 23.3599 21.8133C23.3866 21.8133 23.4132 21.8399 23.3866 21.8666C23.3599 22.0799 23.3066 22.2666 23.2266 22.4533C23.1999 22.4799 23.1999 22.4799 23.1732 22.4799C23.0399 22.4266 22.9332 22.3733 22.7732 22.3466C22.5599 22.3199 22.3199 22.2933 22.0799 22.3199C21.8666 22.3733 21.7599 22.5066 21.7599 22.7199C21.7599 22.9599 21.8666 23.0666 22.0532 23.1466C22.2666 23.2533 22.4799 23.3066 22.6932 23.3866C22.8266 23.4399 22.9599 23.4933 23.0932 23.5733C23.3599 23.7599 23.5199 23.9999 23.5466 24.3199C23.5732 24.5333 23.5732 24.7199 23.5199 24.9333C23.4132 25.3066 23.1466 25.5733 22.7999 25.7333C22.5866 25.8133 22.3999 25.8666 22.1599 25.8666C21.8399 25.8933 21.5199 25.8666 21.1999 25.7866C21.0932 25.7599 20.9599 25.7333 20.8532 25.6799C20.7999 25.7066 20.7999 25.7066 20.7999 25.6266C20.8266 25.4666 20.8532 25.3066 20.9066 25.1466C20.9066 25.0933 20.9332 25.0666 20.9332 25.0133C20.9332 24.9866 20.9599 24.9599 20.9866 24.9866C21.1466 25.0399 21.3066 25.1199 21.4932 25.1466C21.7332 25.1999 21.9732 25.1999 22.2132 25.1466C22.3466 25.1199 22.4532 25.0666 22.5332 24.9599C22.6666 24.7733 22.6932 24.3733 22.3466 24.2133C22.1866 24.1333 22.0266 24.0799 21.8666 24.0266C21.6799 23.9466 21.4932 23.8933 21.3332 23.7599C21.0666 23.5733 20.9332 23.3333 20.9066 23.0133C20.9066 22.8266 20.9066 22.6666 20.9599 22.4799C21.0666 22.1333 21.3066 21.8933 21.6532 21.7599C21.8666 21.6533 22.0532 21.6266 22.3466 21.6266Z" fill="white"/>
<path d="M10.1866 24.6133C9.89324 24.6133 9.5999 24.6133 9.2799 24.6133C9.22657 24.6133 9.22657 24.6133 9.22657 24.6666C9.25324 24.8266 9.30657 24.9599 9.4399 25.0666C9.54657 25.1733 9.70657 25.1999 9.8399 25.2266C10.1599 25.2533 10.4799 25.2266 10.7732 25.1199C10.8266 25.0933 10.8266 25.1199 10.8532 25.1466C10.9332 25.3066 10.9866 25.4933 10.9866 25.6799C10.9866 25.7066 10.9866 25.7333 10.9599 25.7333C10.7732 25.8133 10.5599 25.8399 10.3466 25.8666C10.1866 25.8933 10.0532 25.8933 9.89324 25.8933C9.5999 25.8933 9.30657 25.8399 9.0399 25.6799C8.74657 25.4933 8.58657 25.2266 8.4799 24.9066C8.42657 24.7199 8.3999 24.5333 8.3999 24.3466C8.3999 23.9999 8.4799 23.6533 8.66657 23.3599C8.8799 23.0399 9.1999 22.8533 9.57324 22.7999C9.8399 22.7733 10.0799 22.7733 10.3199 22.8533C10.6666 22.9866 10.9066 23.2266 11.0399 23.5733C11.1466 23.8399 11.1466 24.1333 11.1466 24.4266C11.1466 24.4533 11.1466 24.5066 11.1466 24.5333C11.1466 24.5866 11.1466 24.5866 11.0666 24.5866C10.8266 24.5866 10.5866 24.5866 10.3466 24.5866C10.3199 24.6133 10.2666 24.6133 10.1866 24.6133ZM9.8399 24.0266C9.9199 24.0266 9.9999 24.0266 10.0799 24.0266C10.1866 24.0266 10.2666 24.0266 10.3732 24.0266C10.3999 24.0266 10.4266 24.0266 10.4266 23.9733C10.4266 23.9199 10.3999 23.8666 10.3999 23.8133C10.3466 23.6266 10.2132 23.4666 9.9999 23.4399C9.9199 23.4133 9.8399 23.4133 9.7599 23.4399C9.65324 23.4666 9.54657 23.4933 9.46657 23.5733C9.3599 23.6799 9.30657 23.8133 9.2799 23.9733C9.2799 24.0266 9.2799 24.0266 9.33324 24.0266C9.49324 24.0266 9.65324 24.0266 9.8399 24.0266Z" fill="white"/>
<path d="M12.6666 23.7866C12.6666 24.4533 12.6666 25.1199 12.6666 25.7866C12.6666 25.8399 12.6666 25.8666 12.6132 25.8666C12.3732 25.8933 12.1066 25.8933 11.8666 25.8666C11.8399 25.8666 11.8132 25.8399 11.8132 25.8133C11.8132 25.7866 11.8132 25.7866 11.8132 25.7599C11.8132 24.4266 11.8132 23.1199 11.8132 21.7866C11.8132 21.7599 11.8132 21.7599 11.8132 21.7333C11.8132 21.7066 11.8132 21.6799 11.8399 21.6799C11.9999 21.6533 12.1599 21.6533 12.3199 21.6533C12.3999 21.6533 12.5066 21.6533 12.5866 21.6799C12.6666 21.6799 12.6666 21.6799 12.6666 21.7599C12.6666 22.4266 12.6666 23.0933 12.6666 23.7866Z" fill="white"/>
<path d="M18.3199 15.8668C17.7599 15.8668 17.2266 15.8668 16.6666 15.8668C16.6133 15.8668 16.5866 15.8401 16.5866 15.7868C16.5866 15.3334 16.5866 14.9068 16.5866 14.4534C16.5866 14.1334 16.6133 13.8134 16.7199 13.4934C16.8533 13.0134 17.1733 12.6934 17.6533 12.5868C18.0799 12.4801 18.5066 12.4801 18.9333 12.5868C19.4133 12.6934 19.7333 13.0134 19.8666 13.4934C19.9466 13.7868 19.9999 14.0534 19.9999 14.3468C19.9999 14.8268 19.9999 15.3334 19.9999 15.8134C19.9999 15.8668 19.9733 15.8668 19.9466 15.8668C19.4399 15.8668 18.8799 15.8668 18.3199 15.8668Z" fill="#2D4476"/>
<path d="M22.4533 5.94678H9.5466C8.85327 5.94678 8.2666 6.50678 8.2666 7.22678V18.7201C8.2666 19.4134 8.8266 20.0001 9.5466 20.0001H14.0799C14.0799 19.2801 14.0799 18.3201 14.0799 17.7068C14.0799 17.2268 14.2399 16.8001 14.5866 16.4534C14.6933 16.3468 14.8266 16.2401 14.9599 16.1601C14.9866 16.1334 15.0133 16.1068 15.0133 16.0801C15.0133 15.5201 15.0133 14.9868 15.0133 14.4268C15.0133 13.9201 15.0933 13.4134 15.2799 12.9334C15.5466 12.2401 16.0533 11.7601 16.7466 11.5201C17.1199 11.3868 17.4933 11.3334 17.8666 11.3068C18.1866 11.2801 18.5066 11.2801 18.8266 11.3068C19.3599 11.3334 19.8933 11.4401 20.3466 11.7334C21.0133 12.1334 21.4133 12.7201 21.5466 13.4934C21.6266 13.8934 21.6533 14.3201 21.6533 14.7201C21.6533 15.1734 21.6533 15.6268 21.6533 16.0801C21.6533 16.1068 21.6533 16.1334 21.7066 16.1601C22.2933 16.5068 22.5866 17.0134 22.5866 17.7068C22.5866 18.3468 22.5866 19.2801 22.5866 20.0268C23.2266 19.9734 23.7333 19.4401 23.7333 18.7734V7.22678C23.7333 6.50678 23.1733 5.94678 22.4533 5.94678Z" fill="#EECC2A"/>
<path d="M19.9733 15.8401C20.0266 15.8401 20.0266 15.8401 20.0266 15.7868C20.0266 15.3068 20.0266 14.8001 20.0266 14.3201C20.0266 14.0268 19.9733 13.7334 19.8933 13.4668C19.7333 12.9868 19.4399 12.6668 18.9599 12.5601C18.5333 12.4534 18.1066 12.4534 17.6799 12.5601C17.1999 12.6934 16.8799 12.9868 16.7466 13.4668C16.6399 13.7868 16.6133 14.1068 16.6133 14.4268C16.6133 14.8801 16.6133 15.3068 16.6133 15.7601C16.6133 15.8134 16.6399 15.8401 16.6933 15.8401C17.1999 15.8401 19.4133 15.8401 19.9733 15.8401Z" fill="#EECC2A"/>
<path d="M21.7333 7.06678L22.1066 8.13344H23.3066L22.3466 8.80011L22.7199 9.84011L21.7333 9.20011L20.7733 9.84011L21.1466 8.80011L20.1599 8.13344H21.3599L21.7333 7.06678Z" fill="#2D4476"/>
<path d="M17.9733 6.40011L18.3466 7.44011H19.5466L18.5866 8.10678L18.9599 9.17344L17.9733 8.50678L17.0133 9.17344L17.3599 8.10678L16.3999 7.44011H17.5999L17.9733 6.40011Z" fill="#2D4476"/>
<path d="M14.4799 7.44011L14.8533 8.50678H16.0533L15.0933 9.14678L15.4666 10.2134L14.4799 9.54678L13.5199 10.2134L13.8666 9.14678L12.9066 8.50678H14.1066L14.4799 7.44011Z" fill="#2D4476"/>
<path d="M11.8133 9.97344L12.1866 11.0134H13.3866L12.4266 11.6801L12.7999 12.7201L11.8133 12.0801L10.8533 12.7201L11.2266 11.6801L10.2399 11.0134H11.4399L11.8133 9.97344Z" fill="#2D4476"/>
<path d="M10.5866 13.4934L10.9599 14.5601H12.1599L11.1733 15.2268L11.5466 16.2668L10.5866 15.6268L9.59993 16.2668L9.97327 15.2268L9.01327 14.5601H10.2133L10.5866 13.4934Z" fill="#2D4476"/>
<path d="M10.9333 16.8268L11.3066 17.8668H12.5066L11.5466 18.5334L11.8933 19.6001L10.9333 18.9334L9.9466 19.6001L10.3199 18.5334L9.35993 17.8668H10.5599L10.9333 16.8268Z" fill="#2D4476"/>
</svg>
