<svg width="16" height="5" viewBox="0 0 16 5" fill="none" xmlns="http://www.w3.org/2000/svg">
<path d="M2.62267 4.19032C2.43454 4.27094 2.23222 4.31322 2.02755 4.31468C1.73576 4.319 1.44623 4.26306 1.17705 4.15035C0.934545 4.04979 0.716453 3.89833 0.537513 3.70623C0.360749 3.50954 0.225547 3.27917 0.140022 3.02894C0.0451222 2.75936 -0.00221501 2.47534 0.000123217 2.18955C-0.00274787 1.89792 0.0445756 1.60797 0.140022 1.33239C0.225477 1.07813 0.360589 0.843386 0.537513 0.641776C0.713787 0.442275 0.932246 0.284498 1.17705 0.179887C1.44611 0.0601678 1.7375 -0.00113837 2.03199 1.60042e-05C2.24069 0.00030771 2.44813 0.0325087 2.6471 0.0955027C2.8408 0.157632 3.02252 0.252247 3.18449 0.375301C3.34732 0.499793 3.48391 0.655258 3.58642 0.832748C3.69079 1.01262 3.66636 0.779454 3.69079 1.01262L2.91135 1.45674C2.86733 1.25402 2.75236 1.07368 2.58714 0.948221C2.42764 0.826942 2.23236 0.762108 2.03199 0.763909C1.85153 0.757627 1.67251 0.798173 1.51236 0.881602C1.37262 0.957471 1.25366 1.06652 1.16595 1.19915C1.07594 1.33468 1.01054 1.48502 0.972754 1.64327C0.932355 1.81577 0.912233 1.9924 0.912797 2.16956C0.912485 2.33939 0.932616 2.50863 0.972754 2.67364C1.00976 2.83215 1.07522 2.98263 1.16595 3.11776C1.255 3.24867 1.37369 3.35671 1.51236 3.43309C1.67288 3.5155 1.85163 3.55598 2.03199 3.55079C2.15623 3.56391 2.28184 3.55067 2.40061 3.51194C2.51939 3.47322 2.62865 3.40987 2.72128 3.32605C2.81391 3.24222 2.88782 3.13979 2.93817 3.02546C2.98852 2.91113 3.01419 2.78747 3.0135 2.66254H2.09639V1.99635H3.82847V4.21697H3.25111L3.16006 3.74842C3.02158 3.93916 2.83658 4.09129 2.62267 4.19032ZM6.16234 0.0955027C6.41513 0.0931965 6.66631 0.136061 6.90403 0.222078C7.1278 0.304631 7.33089 0.434973 7.49915 0.604025C7.67332 0.785768 7.80724 1.00217 7.8922 1.23912C7.99082 1.5247 8.03891 1.82528 8.03432 2.12737C8.0363 2.40834 7.9974 2.6881 7.91885 2.95788C7.84904 3.20174 7.72959 3.42855 7.56799 3.62407C7.41067 3.81475 7.21161 3.96671 6.98619 4.06819C6.72625 4.18005 6.44525 4.23458 6.16234 4.22807H4.38584V0.0955027H6.16234ZM6.10016 3.4553C6.2272 3.45434 6.35322 3.43259 6.47323 3.3909C6.59914 3.34459 6.71193 3.26838 6.80188 3.16884C6.90275 3.05831 6.9785 2.92725 7.02394 2.78467C7.08609 2.5987 7.11539 2.40333 7.11054 2.20731C7.11266 2.01834 7.09254 1.82977 7.05059 1.6455C7.01582 1.48916 6.94764 1.3422 6.85073 1.21469C6.75856 1.09725 6.63774 1.00549 6.49987 0.948221C6.32037 0.881192 6.12959 0.849522 5.93806 0.854955H5.29186V3.4553H6.10016ZM10.5392 0.0599736C10.7587 0.0534063 10.977 0.0950972 11.1787 0.182107C11.344 0.254743 11.4906 0.364103 11.6073 0.501876C11.7165 0.632108 11.7981 0.783217 11.8471 0.946C11.9477 1.2904 11.9477 1.65639 11.8471 2.00079C11.7993 2.16807 11.7177 2.32376 11.6073 2.45824C11.4894 2.5947 11.3431 2.70382 11.1787 2.77801C10.9765 2.86317 10.7585 2.90406 10.5392 2.89792H9.6154V4.26805H8.72715V0.0599736H10.5392ZM10.2994 2.14957C10.3968 2.14943 10.4941 2.14126 10.5903 2.12515C10.6783 2.11016 10.7623 2.07687 10.8367 2.02744C10.9109 1.97676 10.97 1.90693 11.0077 1.82536C11.0937 1.60548 11.0937 1.3613 11.0077 1.14142C10.9695 1.0602 10.9105 0.9905 10.8367 0.939338C10.7622 0.890574 10.6782 0.85804 10.5903 0.843852C10.4943 0.825857 10.3969 0.816935 10.2994 0.817204H9.6154V2.14957H10.2994ZM14.6606 2.0341L15.9997 4.26583H15.1581L14.2254 2.60702L14.6606 2.0341Z" fill="white"/>
</svg>
