<svg width="4" height="5" viewBox="0 0 4 5" fill="none" xmlns="http://www.w3.org/2000/svg">
<path d="M2.15274 0.000797443C2.41357 -0.00700478 2.67294 0.0425253 2.91254 0.145895C3.10892 0.23219 3.28305 0.362113 3.4217 0.525792C3.55003 0.681502 3.64681 0.860716 3.70662 1.05343C3.82615 1.46258 3.82615 1.89739 3.70662 2.30655C3.64872 2.50485 3.55186 2.6896 3.4217 2.85002C3.28159 3.01213 3.10784 3.14177 2.91254 3.22991C2.67234 3.33109 2.41327 3.37967 2.15274 3.37237H1.05527V5.00012H0V0.000797443H2.15274ZM1.86782 2.48331C1.98362 2.48313 2.09921 2.47343 2.21342 2.45429C2.31807 2.43648 2.41783 2.39694 2.50626 2.33821C2.59381 2.27734 2.66385 2.19456 2.7094 2.09814C2.81151 1.83691 2.81151 1.54681 2.7094 1.28559C2.66305 1.18969 2.59316 1.10709 2.50626 1.04551C2.41768 0.987577 2.31791 0.948926 2.21342 0.93207C2.09939 0.911577 1.98368 0.90186 1.86782 0.90305H1.05527V2.48595L1.86782 2.48331Z" fill="white"/>
</svg>
