<svg width="104" height="27" viewBox="0 0 104 27" fill="none" xmlns="http://www.w3.org/2000/svg">
<path fill-rule="evenodd" clip-rule="evenodd" d="M28.8405 19.5453H33.7872L34.9741 23.0529H37.105L32.4196 10.0755H30.2428L25.5574 23.0529H27.6526L28.8405 19.5453ZM33.2739 17.9267H29.3529L31.2869 12.234H31.341L33.2739 17.9267Z" fill="black"/>
<path fill-rule="evenodd" clip-rule="evenodd" d="M43.2754 23.1519C45.6502 23.1519 47.2239 21.2629 47.2239 18.3227C47.2239 15.3906 45.641 13.4924 43.2397 13.4924C42.004 13.4525 40.8465 14.0952 40.227 15.1651H40.1913V13.5914H38.3114V26.183H40.2535V21.4966H40.2984C40.8916 22.5732 42.0479 23.2162 43.2754 23.1519ZM42.7272 15.1477C44.2377 15.1477 45.2276 16.4071 45.2276 18.3227C45.2276 20.2556 44.2377 21.5058 42.7272 21.5058C41.2434 21.5058 40.2452 20.2291 40.2452 18.3227C40.2452 16.4336 41.2434 15.1477 42.7272 15.1477Z" fill="black"/>
<path fill-rule="evenodd" clip-rule="evenodd" d="M53.6891 23.1519C56.064 23.1519 57.6377 21.2629 57.6377 18.3227C57.6377 15.3906 56.0548 13.4924 53.6534 13.4924C52.4177 13.4525 51.2602 14.0952 50.6407 15.165H50.605V13.5913H48.7251V26.183H50.6672V21.4966H50.7122C51.3053 22.5732 52.4616 23.2162 53.6891 23.1519ZM53.141 15.1477C54.6514 15.1477 55.6414 16.4071 55.6414 18.3227C55.6414 20.2556 54.6514 21.5058 53.141 21.5058C51.6571 21.5058 50.659 20.2291 50.659 18.3227C50.659 16.4336 51.6571 15.1477 53.141 15.1477Z" fill="black"/>
<path d="M64.5203 19.4371C64.6642 20.724 65.9144 21.569 67.6228 21.569C69.2598 21.569 70.4375 20.724 70.4375 19.5636C70.4375 18.5563 69.7272 17.9532 68.0453 17.5398L66.3634 17.1347C63.9804 16.5591 62.8741 15.4446 62.8741 13.6362C62.8741 11.3971 64.8254 9.85909 67.5963 9.85909C70.3385 9.85909 72.2184 11.3971 72.2816 13.6362H70.3211C70.2038 12.3411 69.1332 11.5593 67.5687 11.5593C66.0042 11.5593 64.9336 12.3503 64.9336 13.5015C64.9336 14.419 65.6174 14.9588 67.2901 15.3721L68.7199 15.7232C71.3825 16.3529 72.4888 17.4224 72.4888 19.3207C72.4888 21.7486 70.5548 23.2692 67.4789 23.2692C64.6009 23.2692 62.6577 21.7843 62.5322 19.437L64.5203 19.4371Z" fill="black"/>
<path d="M76.6802 11.3522V13.5913H78.4795V15.1293H76.6802V20.3454C76.6802 21.1557 77.0405 21.5333 77.8314 21.5333C78.045 21.5296 78.2583 21.5146 78.4703 21.4884V23.0172C78.1147 23.0836 77.7533 23.1137 77.3916 23.107C75.476 23.107 74.7289 22.3875 74.7289 20.5525V15.1293H73.3532V13.5913H74.7289V11.3522H76.6802Z" fill="black"/>
<path fill-rule="evenodd" clip-rule="evenodd" d="M84.0089 13.475C81.2748 13.475 79.5215 15.3457 79.5215 18.3226C79.5215 21.3078 81.2575 23.1703 84.0089 23.1703C86.7614 23.1703 88.4973 21.3078 88.4973 18.3226C88.4973 15.3456 86.7522 13.475 84.0089 13.475ZM84.0089 15.0752C85.5826 15.0752 86.5184 16.2805 86.5184 18.3226C86.5184 20.3729 85.5826 21.569 84.0089 21.569C82.4352 21.569 81.5004 20.3729 81.5004 18.3226C81.5004 16.2897 82.4352 15.0752 84.0089 15.0752Z" fill="black"/>
<path d="M90.0986 13.5913H91.9509V15.2017H91.9958C92.2541 14.165 93.204 13.4515 94.2717 13.4923C94.4955 13.4915 94.7187 13.5158 94.9371 13.5648V15.3814C94.6545 15.295 94.3598 15.2554 94.0645 15.264C93.4935 15.2408 92.9409 15.4684 92.5518 15.8869C92.1628 16.3054 91.976 16.8731 92.0407 17.4408V23.0529H90.0986L90.0986 13.5913Z" fill="black"/>
<path fill-rule="evenodd" clip-rule="evenodd" d="M99.8174 23.1702C101.957 23.1702 103.63 21.9915 103.891 20.2739L102.047 20.2739C101.693 21.1518 100.805 21.693 99.8623 21.6047C99.1556 21.6307 98.4718 21.3519 97.9848 20.8391C97.4979 20.3264 97.2546 19.6291 97.317 18.9247V18.8073H104V18.1419C104 15.2731 102.353 13.4749 99.7357 13.4749C97.0741 13.4749 95.3565 15.3997 95.3565 18.3675C95.3565 21.3261 97.0649 23.1702 99.8174 23.1702ZM102.056 17.45L97.3262 17.45C97.3245 16.8112 97.5781 16.1982 98.0306 15.7473C98.4831 15.2964 99.0969 15.0449 99.7357 15.0487C100.369 15.035 100.98 15.2864 101.421 15.7423C101.861 16.1981 102.092 16.8171 102.056 17.45Z" fill="black"/>
<path fill-rule="evenodd" clip-rule="evenodd" d="M31.3098 1.16197C30.7415 0.561772 29.9339 0.248086 29.1094 0.307252H26.857V6.54291H29.1094C30.9668 6.54291 32.0435 5.3978 32.0435 3.40566C32.1475 2.58562 31.8782 1.76217 31.3098 1.16197ZM29.0012 5.66105H27.8255V1.18844H29.0012C29.5873 1.15592 30.1572 1.38702 30.5552 1.81853C30.9531 2.25005 31.1374 2.83682 31.0576 3.41837C31.1436 4.00234 30.962 4.59399 30.5631 5.02906C30.1641 5.46412 29.5904 5.69627 29.0012 5.66105Z" fill="black"/>
<path fill-rule="evenodd" clip-rule="evenodd" d="M34.1812 2.08134C33.4613 2.52811 33.0568 3.34442 33.1375 4.1879C33.0553 5.03228 33.4594 5.85017 34.18 6.2979C34.9006 6.74564 35.8128 6.74564 36.5334 6.2979C37.2541 5.85017 37.6581 5.03228 37.5759 4.1879C37.6566 3.34442 37.2522 2.52811 36.5322 2.08134C35.8122 1.63456 34.9012 1.63456 34.1812 2.08134ZM35.3583 2.57132C36.1625 2.57132 36.6207 3.16783 36.6207 4.18788C36.6207 5.21201 36.1625 5.80801 35.3583 5.80802C34.5511 5.80802 34.0969 5.2161 34.0969 4.18789C34.0969 3.16783 34.551 2.57132 35.3583 2.57132Z" fill="black"/>
<path d="M43.4758 6.5428H42.5124L41.5398 3.07698H41.4663L40.4978 6.5428H39.5436L38.2465 1.83701H39.1884L40.0314 5.42781H40.1008L41.0683 1.83701H41.9593L42.9267 5.42781H43.0002L43.8391 1.83701H44.7678L43.4758 6.5428Z" fill="black"/>
<path d="M45.8588 1.83701H46.7528V2.58456H46.8222C47.0636 2.03416 47.6275 1.69748 48.2265 1.74617C48.6903 1.7113 49.1448 1.88923 49.4617 2.22972C49.7786 2.57021 49.9234 3.03631 49.8553 3.49642V6.54275H48.9266V3.72964C48.9266 2.97341 48.598 2.59732 47.9112 2.59732C47.5966 2.58267 47.2913 2.70614 47.0753 2.93535C46.8593 3.16457 46.7542 3.47667 46.7875 3.78984V6.5428H45.8588L45.8588 1.83701Z" fill="black"/>
<path d="M51.3351 0H52.2638V6.5428H51.3351V0Z" fill="black"/>
<path fill-rule="evenodd" clip-rule="evenodd" d="M54.5987 2.08122C53.8787 2.528 53.4742 3.34433 53.5548 4.18786C53.4727 5.03227 53.8769 5.85014 54.5975 6.29786C55.3181 6.74557 56.2304 6.74557 56.9511 6.29786C57.6717 5.85014 58.0759 5.03227 57.9937 4.18786C58.0744 3.34433 57.6699 2.528 56.9498 2.08122C56.2298 1.63444 55.3187 1.63444 54.5987 2.08122ZM55.7756 2.57132C56.5798 2.57132 57.038 3.16783 57.038 4.18788C57.038 5.21201 56.5798 5.80801 55.7756 5.80802C54.9684 5.80802 54.5142 5.2161 54.5142 4.18789C54.5142 3.16783 54.9684 2.57132 55.7756 2.57132Z" fill="black"/>
<path fill-rule="evenodd" clip-rule="evenodd" d="M60.7217 3.80721C59.6021 3.87661 58.9714 4.36494 58.9714 5.21201C58.973 5.61365 59.1444 5.99587 59.4433 6.2642C59.7421 6.53253 60.1406 6.6619 60.54 6.62035C61.1099 6.6467 61.6499 6.36445 61.9535 5.8815H62.027V6.54282H62.921V3.32755C62.921 2.33352 62.2556 1.7462 61.0758 1.7462C60.0083 1.7462 59.248 2.26464 59.1531 3.07292H60.0522C60.1553 2.74022 60.5145 2.54988 61.033 2.54988C61.6678 2.54988 61.9964 2.83053 61.9964 3.32755V3.73373L60.7217 3.80721ZM61.9964 4.41653V4.80995C61.9761 5.10987 61.8349 5.38871 61.6052 5.58263C61.3755 5.77654 61.0769 5.86894 60.7779 5.83867C60.2726 5.83867 59.9052 5.5922 59.9052 5.16867C59.9052 4.75382 60.1992 4.53338 60.8472 4.49001L61.9964 4.41653Z" fill="black"/>
<path fill-rule="evenodd" clip-rule="evenodd" d="M66.095 1.75895C64.906 1.75895 64.1416 2.70093 64.1416 4.18788C64.1416 5.67841 64.8979 6.62041 66.095 6.62035C66.7019 6.64272 67.2711 6.32647 67.5728 5.79932H67.6462V6.5428H68.5362V0H67.6074V2.58454H67.538C67.2576 2.05298 66.6953 1.73129 66.095 1.75895ZM66.3583 5.78657C65.5714 5.78657 65.1009 5.18597 65.1009 4.18786C65.1009 3.19792 65.5765 2.59324 66.3583 2.59324C67.1359 2.59324 67.6248 3.21119 67.6248 4.19195C67.6248 5.17731 67.141 5.78657 66.3583 5.78657Z" fill="black"/>
<path fill-rule="evenodd" clip-rule="evenodd" d="M73.4222 2.08134C72.7023 2.52811 72.2978 3.34442 72.3785 4.1879C72.2963 5.03228 72.7004 5.85017 73.421 6.2979C74.1416 6.74564 75.0539 6.74564 75.7745 6.2979C76.4951 5.85017 76.8992 5.03228 76.8169 4.1879C76.8976 3.34442 76.4932 2.52811 75.7732 2.08134C75.0532 1.63456 74.1422 1.63456 73.4222 2.08134ZM74.5993 2.57132C75.4035 2.57132 75.8617 3.16783 75.8617 4.18788C75.8617 5.21201 75.4035 5.80801 74.5993 5.80802C73.7921 5.80802 73.3379 5.2161 73.3379 4.18789C73.3379 3.16783 73.792 2.57132 74.5993 2.57132Z" fill="black"/>
<path d="M78.0631 1.83701H78.9571V2.58456H79.0265C79.2678 2.03416 79.8317 1.69748 80.4308 1.74617C80.8946 1.7113 81.3491 1.88923 81.6659 2.22972C81.9828 2.57021 82.1276 3.03631 82.0596 3.49642V6.54275H81.1309V3.72964C81.1309 2.97341 80.8022 2.59732 80.1154 2.59732C79.8008 2.58267 79.4955 2.70614 79.2795 2.93535C79.0635 3.16457 78.9584 3.47667 78.9918 3.78984V6.5428H78.0631V1.83701Z" fill="black"/>
<path d="M87.3073 0.665425V1.85846H88.3268V2.64072H87.3073V5.06046C87.3073 5.55339 87.5104 5.76924 87.9727 5.76924C88.091 5.76886 88.2093 5.7617 88.3268 5.74781V6.52138C88.16 6.55122 87.991 6.5671 87.8216 6.56884C86.7888 6.56884 86.3775 6.20552 86.3775 5.29825V2.64068H85.6305V1.85841H86.3775V0.665425H87.3073Z" fill="black"/>
<path d="M89.5954 0H90.5159V2.59324H90.5894C90.8423 2.03803 91.4161 1.70091 92.0243 1.75026C92.4854 1.72517 92.9338 1.90702 93.2472 2.24627C93.5606 2.58553 93.7064 3.04686 93.6449 3.5046V6.54281H92.7153V3.73371C92.7153 2.98207 92.3652 2.6014 91.709 2.6014C91.3859 2.5749 91.0676 2.69236 90.8391 2.92238C90.6107 3.1524 90.4954 3.47152 90.5241 3.79443V6.54279H89.5954L89.5954 0Z" fill="black"/>
<path fill-rule="evenodd" clip-rule="evenodd" d="M97.021 6.63366C97.9406 6.7334 98.7996 6.15989 99.06 5.27224L98.166 5.27221C97.9431 5.67187 97.5008 5.89725 97.0465 5.8427C96.6961 5.8466 96.3603 5.70249 96.1217 5.44584C95.8831 5.18918 95.7638 4.84378 95.7932 4.49459V4.44254H99.1162V4.11848C99.1162 2.64078 98.3263 1.74621 97.0169 1.74621C96.3878 1.74085 95.7873 2.00871 95.371 2.4804C94.9548 2.95209 94.7636 3.5812 94.8472 4.20474C94.7614 4.82655 94.9532 5.45465 95.3718 5.92239C95.7904 6.39013 96.3935 6.65023 97.021 6.63366ZM98.1701 3.75564H95.7932C95.789 3.43115 95.916 3.1187 96.1454 2.88918C96.3748 2.65966 96.6872 2.53251 97.0117 2.53659C97.3319 2.52925 97.6403 2.65746 97.8609 2.88961C98.0815 3.12176 98.1937 3.43628 98.1701 3.75564Z" fill="black"/>
<path d="M15.464 12.398C15.4868 10.6251 16.4163 8.98751 17.9267 8.05891C16.9695 6.69187 15.4237 5.85621 13.7557 5.80402C12.0008 5.61982 10.2995 6.85412 9.40527 6.85412C8.49371 6.85412 7.11685 5.82231 5.6342 5.85282C3.68343 5.91584 1.90886 6.99809 0.959768 8.70358C-1.06136 12.2029 0.446219 17.3456 2.38229 20.1742C3.35095 21.5592 4.48304 23.1064 5.96435 23.0515C7.4139 22.9914 7.95527 22.1272 9.705 22.1272C11.4385 22.1272 11.9464 23.0515 13.4578 23.0166C15.0132 22.9914 15.9932 21.6254 16.9279 20.2272C17.6239 19.2403 18.1594 18.1496 18.5147 16.9954C16.6673 16.214 15.4661 14.4039 15.464 12.398Z" fill="black"/>
<path d="M12.6093 3.94376C13.4573 2.92566 13.8752 1.61707 13.774 0.29588C12.4783 0.431968 11.2814 1.05122 10.4219 2.03026C9.57314 2.99621 9.14316 4.25993 9.22666 5.54309C10.5397 5.55661 11.7865 4.96714 12.6093 3.94376Z" fill="black"/>
</svg>
