<svg width="20" height="20" viewBox="0 0 20 20" fill="none" xmlns="http://www.w3.org/2000/svg">
<path d="M10 2C8.41775 2 6.87104 2.46918 5.55545 3.34824C4.23986 4.22729 3.21448 5.47673 2.60898 6.93854C2.00348 8.40035 1.84504 10.0089 2.15372 11.5607C2.4624 13.1126 3.22432 14.538 4.34314 15.6569C5.46196 16.7757 6.88742 17.5376 8.43927 17.8463C9.99112 18.155 11.5997 17.9965 13.0615 17.391C14.5233 16.7855 15.7727 15.7601 16.6518 14.4445C17.5308 13.129 18 11.5823 18 10C18 7.87827 17.1572 5.84343 15.6569 4.34314C14.1566 2.84285 12.1217 2 10 2ZM10.57 16.65C10.23 16.97 10.03 17 10 17C9.97 17 9.76999 17 9.42999 16.65C9.02141 16.2269 8.68374 15.7406 8.42999 15.21C8.08328 14.5048 7.81502 13.7637 7.63001 13H12.37C12.185 13.7637 11.9167 14.5048 11.57 15.21C11.3163 15.7406 10.9786 16.2269 10.57 16.65ZM7.44 12C7.21334 10.6763 7.21334 9.3237 7.44 8H12.56C12.7867 9.3237 12.7867 10.6763 12.56 12H7.44ZM9.44 3.35001C9.78 3.03001 9.98001 3 10.01 3C10.04 3 10.24 3.00001 10.58 3.35001C10.9907 3.77512 11.3286 4.265 11.58 4.79999C11.9283 5.50101 12.1967 6.23899 12.38 7H7.64002C7.82336 6.23899 8.0917 5.50101 8.44 4.79999C8.68838 4.26571 9.02282 3.77587 9.42999 3.35001H9.44ZM13.59 8H16.72C17.1091 9.30495 17.1091 10.695 16.72 12H13.59C13.79 10.6742 13.79 9.32584 13.59 8ZM16.33 7H13.4C13.1232 5.65065 12.5755 4.37149 11.79 3.23999C12.7728 3.50015 13.6872 3.9713 14.4695 4.62064C15.2518 5.26997 15.8933 6.0819 16.33 7ZM8.22 3.23999C7.43094 4.37068 6.8798 5.64989 6.60001 7H3.67999C4.11672 6.0819 4.74821 5.26997 5.53052 4.62064C6.31282 3.9713 7.22716 3.50015 8.20999 3.23999H8.22ZM3.29001 8H6.42001C6.22004 9.32584 6.22004 10.6742 6.42001 12H3.29001C2.90095 10.695 2.90095 9.30495 3.29001 8ZM3.67999 13H6.60001C6.87677 14.3493 7.42447 15.6285 8.20999 16.76C7.22716 16.4998 6.31282 16.0287 5.53052 15.3794C4.74821 14.73 4.11672 13.9181 3.67999 13ZM11.79 16.76C12.5755 15.6285 13.1232 14.3493 13.4 13H16.32C15.8833 13.9181 15.2518 14.73 14.4695 15.3794C13.6872 16.0287 12.7728 16.4998 11.79 16.76Z" fill="#242424" fill-opacity="0.7"/>
</svg>
