<svg width="115" height="28" viewBox="0 0 115 28" fill="none" xmlns="http://www.w3.org/2000/svg">
<path d="M0.506981 26.3167L12.474 13.9046L0.517006 1.51472C0.197637 1.70762 0 2.15425 0 2.73888V25.1045C0.00428349 25.689 0.194773 26.103 0.506981 26.3167Z" fill="black"/>
<path d="M12.9027 13.5618L16.4673 9.86417L1.95109 1.6082C1.70666 1.46089 1.42901 1.38308 1.14623 1.38265L12.9013 13.5603L12.9027 13.5618Z" fill="black"/>
<path d="M12.9026 14.2488L1.11033 26.48C1.4063 26.4851 1.69784 26.405 1.95243 26.2485L16.4973 17.9703L12.9026 14.2488Z" fill="black"/>
<path d="M21.726 12.86L16.8955 10.1075L13.2335 13.9061L16.9226 17.7284L21.7246 14.9834C22.7458 14.4002 22.7457 13.4402 21.726 12.86Z" fill="black"/>
<path d="M60.5114 6.47703C59.6047 6.47703 58.8404 6.1598 58.2359 5.53533C57.6364 4.92834 57.3017 4.09155 57.3166 3.23727C57.3166 2.32554 57.6264 1.55369 58.2359 0.941705C58.8379 0.317232 59.6022 0 60.5089 0C61.4057 0 62.17 0.317232 62.7845 0.941705C63.394 1.57367 63.7038 2.34552 63.7038 3.23727C63.6938 4.15149 63.384 4.92334 62.7845 5.53283C62.1825 6.1623 61.4182 6.47703 60.5114 6.47703ZM33.5317 6.47703C32.645 6.47703 31.8756 6.16479 31.2462 5.54782C30.6217 4.93333 30.3044 4.15649 30.3044 3.23976C30.3044 2.32304 30.6217 1.54619 31.2462 0.931714C31.8631 0.314735 32.6325 0.00249804 33.5317 0.00249804C33.9714 0.00249804 34.3985 0.0899244 34.8081 0.267275C35.2103 0.439629 35.5375 0.674431 35.7798 0.961688L35.8398 1.03413L35.1628 1.69857L35.0929 1.61614C34.7107 1.16152 34.1987 0.939207 33.5217 0.939207C32.9172 0.939207 32.3902 1.15403 31.9556 1.57867C31.5184 2.00581 31.2961 2.56533 31.2961 3.24226C31.2961 3.91919 31.5184 4.47872 31.9556 4.90586C32.3902 5.3305 32.9172 5.54532 33.5217 5.54532C34.1662 5.54532 34.7082 5.3305 35.1304 4.90586C35.3802 4.65607 35.535 4.30636 35.59 3.86424H33.4193V2.93003H36.5217L36.5342 3.01495C36.5567 3.17232 36.5791 3.33468 36.5791 3.48456C36.5791 4.34633 36.3194 5.04324 35.8048 5.55781C35.2203 6.16729 34.4559 6.47703 33.5317 6.47703ZM69.4039 6.34464H68.4472L65.5172 1.6561L65.5422 2.50039V6.34215H64.5855V0.134887H65.6771L65.7071 0.182346L68.4622 4.59862L68.4373 3.75683V0.134887H69.4039V6.34464ZM53.3225 6.34464H52.3533V1.0691H50.6723V0.134887H55.0011V1.0691H53.32V6.34464H53.3225ZM49.8829 6.34464H48.9162V0.134887H49.8829V6.34464ZM44.45 6.34464H43.4833V1.0691H41.8022V0.134887H46.1311V1.0691H44.45V6.34464ZM41.1903 6.33465H37.4834V0.134887H41.1903V1.0691H38.4526V2.77266H40.923V3.69688H38.4526V5.40044H41.1903V6.33465ZM58.9453 4.89337C59.3774 5.3255 59.902 5.54282 60.5114 5.54282C61.1384 5.54282 61.6505 5.3305 62.0776 4.89337C62.5023 4.46873 62.7171 3.9117 62.7171 3.23976C62.7171 2.56783 62.5023 2.0083 62.0801 1.58616C61.648 1.15403 61.1209 0.936709 60.5139 0.936709C59.887 0.936709 59.3749 1.14903 58.9503 1.58616C58.5256 2.0108 58.3108 2.56783 58.3108 3.23976C58.3108 3.9117 58.5231 4.47123 58.9453 4.89337Z" fill="black"/>
<path fill-rule="evenodd" clip-rule="evenodd" d="M57.2264 15.0148C54.8659 15.0148 52.9525 16.8058 52.9525 19.2762C52.9525 21.7242 54.8783 23.5376 57.2264 23.5376C59.5869 23.5376 61.5003 21.7342 61.5003 19.2762C61.5003 16.8058 59.5869 15.0148 57.2264 15.0148ZM57.2264 21.8491C55.935 21.8491 54.8234 20.78 54.8234 19.2662C54.8234 17.73 55.9375 16.6834 57.2264 16.6834C58.5178 16.6834 59.6293 17.73 59.6293 19.2662C59.6318 20.79 58.5178 21.8491 57.2264 21.8491ZM47.9017 15.0148C45.5412 15.0148 43.6278 16.8058 43.6278 19.2762C43.6278 21.7242 45.5537 23.5376 47.9017 23.5376C50.2622 23.5376 52.1756 21.7342 52.1756 19.2762C52.1756 16.8058 50.2597 15.0148 47.9017 15.0148ZM47.9017 21.8491C46.6103 21.8491 45.4987 20.78 45.4987 19.2662C45.4987 17.73 46.6128 16.6834 47.9017 16.6834C49.1931 16.6834 50.3047 17.73 50.3047 19.2662C50.3047 20.79 49.1931 21.8491 47.9017 21.8491ZM36.8061 16.3162V18.1197H41.1349C41.0025 19.1314 40.6678 19.8782 40.1557 20.3903C39.5213 21.0248 38.5421 21.7142 36.8161 21.7142C34.1558 21.7142 32.075 19.566 32.075 16.9057C32.075 14.2455 34.1558 12.0973 36.8161 12.0973C38.2523 12.0973 39.299 12.6643 40.0758 13.3887L41.3547 12.1098C40.2756 11.0757 38.8393 10.2838 36.826 10.2838C33.1766 10.2838 30.1142 13.2563 30.1142 16.8958C30.1142 20.5452 33.1741 23.5077 36.826 23.5077C38.7969 23.5077 40.2756 22.8632 41.4447 21.6492C42.6362 20.4577 43.0133 18.7767 43.0133 17.4203C43.0133 16.9982 42.9809 16.6185 42.9134 16.2963H36.8036C36.8061 16.2938 36.8061 16.3162 36.8061 16.3162ZM82.1903 17.7201C81.8331 16.7634 80.7541 15.0048 78.5409 15.0048C76.3478 15.0048 74.5243 16.7309 74.5243 19.2662C74.5243 21.6592 76.3278 23.5277 78.7532 23.5277C80.7016 23.5277 81.8356 22.3362 82.3028 21.6367L80.8565 20.6676C80.3769 21.3795 79.7099 21.8466 78.7632 21.8466C77.8065 21.8466 77.1371 21.4119 76.6925 20.5552L82.3902 18.1947C82.3902 18.1972 82.1903 17.7201 82.1903 17.7201ZM76.3802 19.1439C76.3353 17.4977 77.6592 16.6609 78.6059 16.6609C79.3527 16.6609 79.9747 17.0281 80.187 17.5627L76.3802 19.1439ZM71.7516 23.2729H73.6226V10.7534H71.7516V23.2729ZM68.6792 15.9615H68.6118C68.1896 15.4595 67.3878 15.0048 66.3637 15.0048C64.238 15.0048 62.2796 16.8758 62.2796 19.2787C62.2796 21.6717 64.228 23.5202 66.3637 23.5202C67.3753 23.5202 68.1896 23.063 68.6118 22.551H68.6792V23.163C68.6792 24.7891 67.81 25.6659 66.4086 25.6659C65.2621 25.6659 64.5502 24.8415 64.2604 24.1521L62.6343 24.8316C63.1014 25.9556 64.3479 27.3469 66.4061 27.3469C68.5993 27.3469 70.4577 26.0555 70.4577 22.9057V15.2596H68.6892V15.9615C68.6917 15.9615 68.6792 15.9615 68.6792 15.9615ZM66.531 21.8491C65.2396 21.8491 64.1605 20.77 64.1605 19.2787C64.1605 17.775 65.2396 16.6859 66.531 16.6859C67.81 16.6859 68.8016 17.7875 68.8016 19.2787C68.8141 20.77 67.8125 21.8491 66.531 21.8491ZM90.9505 10.7534H86.4767V23.2729H88.3477V18.5319H90.953C93.0237 18.5319 95.0595 17.0306 95.0595 14.6476C95.0595 12.2647 93.0312 10.7534 90.9505 10.7534ZM91.0054 16.7833H88.3452V12.487H91.0054C92.4067 12.487 93.1986 13.6435 93.1986 14.6352C93.1986 15.6168 92.3967 16.7833 91.0054 16.7833ZM102.558 14.9924C101.199 14.9924 99.798 15.5943 99.2185 16.9057L100.877 17.5952C101.234 16.9057 101.889 16.6709 102.581 16.6709C103.55 16.6709 104.529 17.2505 104.552 18.2846V18.417C104.217 18.2271 103.482 17.9374 102.603 17.9374C100.812 17.9374 98.9962 18.9165 98.9962 20.7525C98.9962 22.4336 100.465 23.5127 102.101 23.5127C103.358 23.5127 104.049 22.9456 104.482 22.2887H104.549V23.2579H106.353V18.4619C106.353 16.2288 104.694 14.9924 102.558 14.9924ZM102.323 21.8491C101.711 21.8491 100.855 21.5493 100.855 20.78C100.855 19.8108 101.924 19.4436 102.835 19.4436C103.66 19.4436 104.049 19.621 104.539 19.8657C104.404 20.9898 103.455 21.8391 102.323 21.8491ZM112.932 15.2596L110.784 20.69H110.716L108.491 15.2596H106.477L109.817 22.8507L107.914 27.0697H109.862L115 15.2596H112.932ZM96.0911 23.2729H97.9621V10.7534H96.0911V23.2729Z" fill="black"/>
</svg>
