<svg width="16" height="15" viewBox="0 0 16 15" fill="none" xmlns="http://www.w3.org/2000/svg">
<path d="M10.3999 10.262C9.82061 10.262 9.26889 10.262 8.68958 10.262C8.63441 10.262 8.60682 10.2344 8.60682 10.1792C8.60682 9.71026 8.60682 9.26889 8.60682 8.79993C8.60682 8.46889 8.63441 8.13786 8.74475 7.80683C8.88268 7.31028 9.21372 6.97925 9.71026 6.86891C10.1516 6.75856 10.593 6.75856 11.0344 6.86891C11.5309 6.97925 11.862 7.31028 11.9999 7.80683C12.0827 8.11028 12.1378 8.38614 12.1378 8.68958C12.1378 9.18613 12.1378 9.71026 12.1378 10.2068C12.1378 10.262 12.1102 10.262 12.0827 10.262C11.5585 10.262 10.9792 10.262 10.3999 10.262Z" fill="#2D4476"/>
<path d="M14.6757 0H1.32413C0.606891 0 0 0.579306 0 1.32413V13.2137C0 13.9309 0.579305 14.5378 1.32413 14.5378H6.01374C6.01374 13.793 6.01374 12.7999 6.01374 12.1654C6.01374 11.6689 6.17926 11.2275 6.53788 10.8689C6.64822 10.7585 6.78615 10.6482 6.92408 10.5654C6.95167 10.5378 6.97925 10.5103 6.97925 10.4827C6.97925 9.90336 6.97925 9.35164 6.97925 8.77234C6.97925 8.24821 7.06201 7.72407 7.25511 7.22753C7.53097 6.51029 8.0551 6.01374 8.77234 5.76547C9.15854 5.62754 9.54475 5.57237 9.93095 5.54478C10.262 5.5172 10.593 5.5172 10.924 5.54478C11.4758 5.57237 12.0275 5.68271 12.4964 5.98616C13.1861 6.39995 13.5999 7.00684 13.7378 7.80683C13.8206 8.22062 13.8482 8.662 13.8482 9.07579C13.8482 9.54475 13.8482 10.0137 13.8482 10.4827C13.8482 10.5103 13.8482 10.5378 13.9033 10.5654C14.5102 10.924 14.8137 11.4482 14.8137 12.1654C14.8137 12.8275 14.8137 13.793 14.8137 14.5654C15.4757 14.5102 15.9999 13.9585 15.9999 13.2689V1.32413C15.9999 0.579306 15.4206 0 14.6757 0Z" fill="#EECC2A"/>
<path d="M12.1102 10.2344C12.1654 10.2344 12.1654 10.2344 12.1654 10.1792C12.1654 9.68268 12.1654 9.15854 12.1654 8.662C12.1654 8.35855 12.1102 8.0551 12.0275 7.77924C11.862 7.2827 11.5585 6.95166 11.062 6.84132C10.6206 6.73098 10.1792 6.73098 9.73785 6.84132C9.2413 6.97925 8.91027 7.2827 8.77234 7.77924C8.662 8.11028 8.63441 8.44131 8.63441 8.77234C8.63441 9.2413 8.63441 9.68268 8.63441 10.1516C8.63441 10.2068 8.662 10.2344 8.71717 10.2344C9.2413 10.2344 11.5309 10.2344 12.1102 10.2344Z" fill="#EECC2A"/>
<path d="M13.9309 1.15861L14.3171 2.26205H15.5585L14.5654 2.9517L14.9516 4.02755L13.9309 3.36549L12.9378 4.02755L13.324 2.9517L12.3033 2.26205H13.5447L13.9309 1.15861Z" fill="#2D4476"/>
<path d="M10.0413 0.468962L10.4275 1.54481H11.6689L10.6758 2.23446L11.062 3.3379L10.0413 2.64825L9.0482 3.3379L9.40682 2.23446L8.41372 1.54481H9.65509L10.0413 0.468962Z" fill="#2D4476"/>
<path d="M6.42753 1.54481L6.81374 2.64825H8.05511L7.06201 3.31032L7.44821 4.41376L6.42753 3.72411L5.43444 4.41376L5.79306 3.31032L4.79996 2.64825H6.04133L6.42753 1.54481Z" fill="#2D4476"/>
<path d="M3.66893 4.16548L4.05514 5.24134H5.29651L4.30341 5.93098L4.68962 7.00684L3.66893 6.34477L2.67584 7.00684L3.06204 5.93098L2.04136 5.24134H3.28273L3.66893 4.16548Z" fill="#2D4476"/>
<path d="M2.39998 7.80683L2.78618 8.91027H4.02755L3.00687 9.59992L3.39307 10.6758L2.39998 10.0137L1.3793 10.6758L1.7655 9.59992L0.772407 8.91027H2.01378L2.39998 7.80683Z" fill="#2D4476"/>
<path d="M2.7586 11.2551L3.1448 12.3309H4.38617L3.39307 13.0206L3.75169 14.124L2.7586 13.4344L1.73792 14.124L2.12412 13.0206L1.13102 12.3309H2.37239L2.7586 11.2551Z" fill="#2D4476"/>
</svg>
