<svg width="36" height="32" viewBox="0 0 36 32" fill="none" xmlns="http://www.w3.org/2000/svg">
<path fill-rule="evenodd" clip-rule="evenodd" d="M17.9809 11.8964C17.9537 11.8565 17.9264 11.8167 17.8992 11.7769C17.4314 11.7769 16.9632 11.7664 16.4961 11.7851C16.3939 11.7893 16.2123 11.8938 16.2092 11.9588C16.185 12.4598 16.1959 12.9624 16.1959 13.4645C16.2251 13.4742 16.2542 13.484 16.2835 13.4937C16.8493 12.9612 17.4151 12.4287 17.9809 11.8964ZM16.3288 23.2849C16.2935 23.3098 16.2582 23.3347 16.2228 23.3596C16.2228 24.7158 16.2228 26.0721 16.2228 27.3345C16.7092 26.8859 17.2625 26.4274 17.7506 25.9083C18.1036 25.5329 18.1053 25.1381 17.7779 24.7643C17.324 24.246 16.8145 23.7757 16.3288 23.2849ZM16.2201 22.1469C16.7999 21.7186 17.3585 21.3396 17.8783 20.9137C18.6208 20.3054 18.6017 19.5899 17.8173 19.0504C17.3164 18.7059 16.7635 18.4359 16.2201 18.1245C16.2201 19.4634 16.2201 20.7904 16.2201 22.1469ZM14.3546 7.73237C14.3829 7.74856 14.4113 7.76485 14.4396 7.78104C14.8676 7.54205 15.2901 7.29266 15.7254 7.06766C16.0266 6.91202 16.1499 6.68802 16.147 6.35377C16.1374 5.22546 16.1442 4.09705 16.142 2.96864C16.1418 2.85479 16.123 2.74094 16.1127 2.62699C16.0816 2.62519 16.0504 2.62329 16.0192 2.62139C15.8699 3.0709 15.7095 3.5171 15.575 3.97091C15.4909 4.25488 15.3328 4.38472 15.0302 4.37343C14.733 4.36223 14.4343 4.37953 14.1365 4.39152C13.863 4.40272 13.59 4.42351 13.2205 4.4458C13.7454 4.82493 14.1679 5.15919 14.6204 5.44676C14.9317 5.64458 14.9797 5.84989 14.8527 6.18344C14.6598 6.68962 14.5181 7.21509 14.3546 7.73237ZM16.2255 16.7244C16.8707 16.4014 17.5321 16.0982 18.1651 15.7451C18.7235 15.4336 19.2765 15.0997 19.7798 14.7093C20.0223 14.5212 20.2175 14.2017 20.3062 13.9042C20.4709 13.3512 20.0751 12.9096 19.4988 12.9122C18.9722 12.9146 18.5692 13.1245 18.3115 13.5916C18.2234 13.7515 18.1286 13.9083 18.0294 14.0617C17.5352 14.8261 16.9881 14.9044 16.2971 14.3141C16.2843 14.3032 16.2561 14.3102 16.2255 14.3082C16.2255 15.1323 16.2255 15.9557 16.2255 16.7244ZM11.786 11.6186C11.1366 11.9398 10.7604 12.3177 10.6902 12.9812C10.5825 13.9993 10.8714 14.9226 11.733 15.5164C12.6055 16.1176 13.5656 16.5928 14.4792 17.1369C14.6201 17.2207 14.7169 17.3779 14.8341 17.5011C14.7152 17.6102 14.6137 17.7548 14.4743 17.8224C13.8273 18.1363 13.2915 18.5597 12.9559 19.2081C12.5298 20.0311 12.6753 20.7564 13.3969 21.3394C13.8512 21.7065 14.3186 22.0578 14.7674 22.4314C15.0501 22.6665 15.0255 22.7681 14.7681 23.0409C14.3614 23.4722 13.94 23.8966 13.5881 24.3702C13.1799 24.9196 13.2038 25.5244 13.5718 26.1013C13.7127 26.3218 13.8684 26.5372 14.0448 26.7302C14.3146 27.0254 14.6153 27.2925 14.8899 27.5836C15.2165 27.9297 15.1959 28.1077 14.8232 28.3902C13.9978 29.0159 13.9054 29.9457 14.6069 30.7016C14.9181 31.0368 15.2473 31.3564 15.5827 31.6676C15.6673 31.7461 15.8073 31.7659 15.9218 31.8125C15.9237 31.6771 15.9753 31.5151 15.9186 31.4112C15.7119 31.0321 15.4787 30.6662 15.2375 30.307C14.9148 29.8265 14.939 29.4616 15.3548 29.0583C15.5189 28.899 15.7044 28.7611 15.8632 28.5972C16.1754 28.275 16.2234 27.9546 15.9977 27.5707C15.8834 27.3765 15.731 27.1992 15.5723 27.0372C15.252 26.7102 14.9023 26.4113 14.5888 26.0784C14.1335 25.5949 14.1523 24.9876 14.6266 24.522C14.9369 24.2175 15.2565 23.9212 15.5863 23.6378C16.3457 22.9853 16.3243 22.3607 15.5071 21.768C15.331 21.6404 15.1397 21.5329 14.9678 21.4003C14.7145 21.205 14.455 21.0127 14.2288 20.7886C13.6918 20.257 13.6962 19.6398 14.2717 19.1555C14.5734 18.9016 14.9417 18.723 15.2895 18.527C15.7369 18.2748 16.139 17.9801 16.1251 17.4117C16.1109 16.8337 15.7029 16.5327 15.2252 16.3066C15.1942 16.2919 15.1595 16.2844 15.13 16.2675C14.2468 15.7641 13.3546 15.275 12.4879 14.7445C12.2792 14.6169 12.1007 14.3753 12.0028 14.1462C11.6946 13.4246 12.1478 12.8182 12.9307 12.8695C13.3848 12.8992 13.7371 13.1168 13.9874 13.4898C14.1401 13.7172 14.2554 13.9719 14.426 14.184C14.5571 14.3468 14.7296 14.5006 14.9168 14.5901C15.2737 14.7607 15.7265 14.598 15.9435 14.2668C16.1517 13.9491 16.1102 13.5501 15.7489 13.2977C15.2807 12.9707 14.9238 12.5557 14.5568 12.1315C14.1231 11.6303 12.8658 11.0845 11.786 11.6186ZM0.298581 13.0991C0.533884 12.0917 0.840413 11.0986 1.16716 10.1161C1.23627 9.90852 1.49683 9.68371 1.71533 9.61774C3.56034 9.06089 5.22064 8.17207 6.78004 7.05036C7.47921 6.54748 8.26379 6.13416 9.05994 5.79811C10.435 5.21746 11.634 5.69226 12.3298 7.00478C12.5596 7.43819 12.7789 7.8789 12.9716 8.32951C13.5179 9.60715 14.5803 10.1752 15.8677 10.4386C15.9344 10.4523 16.0512 10.4034 16.0847 10.2808C16.1182 10.1583 16.0767 10.1146 16.002 10.062C15.9274 10.0093 15.8155 9.98538 15.7163 9.9577C14.6261 9.65433 13.949 8.94664 13.6372 7.8747C13.4907 7.37112 13.3168 6.87484 13.1835 6.36806C12.6527 4.35084 11.1956 3.70672 9.28045 4.2093C8.66106 4.37193 8.06158 4.68259 7.51301 5.02145C6.69533 5.52663 5.95673 6.15855 5.13634 6.65873C4.33777 7.14572 3.48056 7.53815 2.64447 7.96317C2.52003 8.02644 2.37004 8.04053 2.17869 8.01144C2.40987 7.6484 2.62405 7.27337 2.87495 6.92422C5.54175 3.21274 9.13378 0.960917 13.667 0.218541C14.3675 0.103891 15.0809 0.0646077 15.7895 0.00263472C16.0836 -0.0230541 16.1882 0.140675 16.1852 0.425251C16.1747 1.48009 16.2805 2.52104 16.6113 3.5304C16.6538 3.66044 16.7049 3.78778 16.7475 3.91783C16.8414 4.2047 17.0284 4.33325 17.3411 4.32565C17.9349 4.31106 18.5292 4.32145 19.1233 4.32145C19.0743 4.48518 18.9942 4.56944 18.9017 4.63701C18.5316 4.9074 18.1589 5.17438 17.7849 5.43946C17.373 5.73124 17.3557 5.77792 17.5177 6.26361C17.6968 6.80047 17.8772 7.33684 18.09 7.97156C17.9019 7.85811 17.7961 7.80323 17.7 7.73486C17.3075 7.45609 16.9197 7.17101 16.5268 6.89313C16.3731 6.78438 16.1948 6.7386 16.1908 7.00118C16.1771 7.91429 16.1787 8.82789 16.1936 9.74099C16.198 10.0158 16.4251 9.9485 16.5834 9.90612C17.3786 9.69331 18.0102 9.24201 18.3465 8.49283C18.6061 7.91449 18.7555 7.28776 18.9654 6.68662C19.1192 6.24611 19.255 5.79391 19.464 5.37929C19.8966 4.52116 20.6324 4.09845 21.5908 4.03048C22.8686 3.93992 23.976 4.37193 25.0058 5.08082C26.0239 5.78162 27.0205 6.52259 28.0876 7.14202C29.7665 8.1167 31.5981 8.71454 33.5237 9.00201C33.9591 9.06708 34.4052 9.06249 34.9071 9.09377C34.398 9.60165 33.8262 9.91621 33.1697 9.96339C32.5838 10.0055 31.9704 9.98728 31.3996 9.86024C29.3007 9.39304 27.4115 8.46755 25.6626 7.21849C24.9045 6.67713 24.0694 6.21932 23.2178 5.83649C22.0148 5.29563 20.9521 5.63028 20.2117 6.71571C19.9184 7.14562 19.6793 7.62381 19.4878 8.1082C18.992 9.36186 18.0687 10.0908 16.781 10.4115C16.6698 10.4392 16.158 10.5402 16.2032 10.8222C16.2485 11.1042 16.4586 11.0748 16.571 11.055C17.0209 10.9759 17.4758 10.8866 17.904 10.733C18.6719 10.4574 19.2201 9.92071 19.5751 9.18783C19.8187 8.68455 20.065 8.18237 20.3224 7.68609C21.0315 6.31918 22.2336 5.95144 23.5309 6.79397C25.4705 8.05373 27.5382 9.05959 29.6438 9.99838C30.1437 10.2213 30.6675 10.3911 31.1915 10.5896C30.8355 10.7833 29.8565 10.8191 29.0068 10.6425C28.2798 10.4914 27.5605 10.3027 26.7698 10.1146C27.0552 10.743 27.6626 10.923 28.1105 11.2741C28.1007 11.316 28.0908 11.3578 28.0811 11.3997C27.7065 11.3721 27.3186 11.3966 26.9602 11.3061C26.2173 11.1185 25.4898 10.8702 24.7563 10.6459C24.6499 10.6133 24.5452 10.5756 24.4398 10.5402C24.7289 10.9676 25.0839 11.3226 25.439 11.6775C25.4222 11.7086 25.4054 11.7398 25.3886 11.7709C25.1709 11.7321 24.9411 11.7251 24.7377 11.6486C24.0204 11.3786 23.312 11.0849 22.6006 10.7995C22.4944 10.7568 22.3888 10.6724 22.2847 10.675C22.1508 10.6782 21.9656 10.7124 21.901 10.8027C21.839 10.8897 21.8618 11.0863 21.9199 11.197C22.0118 11.3716 22.1645 11.5146 22.2915 11.671C22.2829 11.7045 22.2745 11.738 22.2659 11.7715C21.9054 11.7715 21.5447 11.7715 21.1842 11.7715C21.1686 11.8017 21.153 11.8317 21.1373 11.8619C21.6127 12.3796 21.7239 12.9898 21.6476 13.6476C21.5539 14.4563 21.2391 15.1669 20.5395 15.6115C19.6619 16.1694 18.7377 16.6547 17.84 17.1821C17.7149 17.2556 17.6265 17.391 17.5211 17.4976C17.6267 17.5928 17.7174 17.7184 17.8404 17.7777C18.4988 18.0945 19.0507 18.5225 19.3863 19.184C19.8002 20 19.6544 20.7441 18.959 21.3335C18.5396 21.689 18.1029 22.0242 17.6795 22.375C17.2823 22.7042 17.3072 22.7542 17.6645 23.1125C18.0576 23.5066 18.4382 23.9227 18.7615 24.3735C19.1671 24.9392 19.1714 25.5707 18.7564 26.1314C18.3916 26.6244 17.9648 27.0753 17.5378 27.5184C17.1393 27.9321 17.1237 28.0134 17.5463 28.3866C18.3729 29.1166 18.4307 29.9875 17.6785 30.8039C17.346 31.165 16.9696 31.4864 16.607 31.8191C16.5551 31.8664 16.4373 31.9182 16.4042 31.8943C16.3406 31.8482 16.2673 31.737 16.2833 31.6743C16.3466 31.4249 16.4118 31.167 16.5347 30.9439C16.6879 30.6656 16.9075 30.4241 17.0825 30.1564C17.33 29.7777 17.3097 29.5226 16.9951 29.2063C16.764 28.9742 16.5082 28.7665 16.2032 28.4942C16.1935 28.6898 16.1827 28.8076 16.1826 28.9253C16.1824 29.8159 16.1777 30.7066 16.1894 31.597C16.1931 31.8827 16.1081 32.0082 15.7957 31.9996C11.9306 31.8941 8.50483 30.6101 5.59155 28.0998C2.45474 25.3968 0.62372 21.9666 0.13581 17.8511C0.0903388 17.4675 0.0451694 17.084 0 16.7006C0 16.221 0 15.7415 0 15.2619C0.0949664 14.5399 0.133697 13.805 0.298581 13.0991Z" fill="#193764"/>
<path fill-rule="evenodd" clip-rule="evenodd" d="M24.0788 20.6026C23.6636 20.6026 23.2484 20.6026 22.8332 20.6026C23.1251 20.5254 23.1976 20.3205 23.1994 20.0733C23.2019 19.7533 23.1941 19.4329 23.2018 19.113C23.2056 18.9548 23.1375 18.9033 22.9781 18.9046C22.5379 18.9078 22.0976 18.9038 21.6574 18.8958C21.5037 18.8931 21.4246 18.9346 21.4283 19.098C21.4362 19.4482 21.4242 19.7987 21.4331 20.1488C21.4392 20.3994 21.5077 20.4642 21.8021 20.5923C21.3875 20.5923 20.973 20.5923 20.5586 20.5923C20.8653 20.5195 20.9337 20.3012 20.934 20.0428C20.935 19.2421 20.9468 18.4411 20.9245 17.6409C20.9194 17.4567 20.7951 17.2755 20.7281 17.0991C21.0092 17.0991 21.3595 17.0991 21.6218 17.0991C21.56 17.2776 21.4607 17.4614 21.4385 17.6534C21.4064 17.9302 21.4373 18.2132 21.4277 18.4932C21.422 18.6599 21.4849 18.7287 21.6627 18.7262C22.1029 18.72 22.5433 18.7216 22.9837 18.7254C23.1386 18.7268 23.2165 18.6774 23.2109 18.5168C23.1993 18.1869 23.219 17.8547 23.1844 17.5274C23.1689 17.3811 23.0536 17.2445 22.9798 17.0957C23.2799 17.0957 23.6429 17.0957 24.088 17.0957C23.6485 17.2225 23.7047 17.5238 23.7047 17.8035C23.7047 18.5442 23.7094 19.285 23.7023 20.0256C23.6998 20.2973 23.756 20.515 24.0788 20.6026Z" fill="#193764"/>
<path fill-rule="evenodd" clip-rule="evenodd" d="M27.9596 17.3042C27.7529 17.287 27.6162 17.3826 27.6299 17.6601C27.6454 17.974 27.6372 18.2893 27.6322 18.6038C27.6296 18.779 27.6938 18.8688 27.8899 18.8963C28.3872 18.966 28.7694 18.6761 28.8063 18.18C28.8414 17.7093 28.4808 17.3094 27.9596 17.3042ZM27.6687 19.0168C27.6687 19.4537 27.6486 19.875 27.682 20.2923C27.6911 20.4046 27.863 20.505 27.9525 20.6026C27.6041 20.6026 27.1999 20.6026 26.8734 20.6026C26.9579 20.4582 27.1233 20.3044 27.1282 20.146C27.1545 19.3013 27.1422 18.4556 27.1398 17.6102C27.1391 17.3668 27.0214 17.2042 26.7355 17.1745C26.7452 17.1482 26.7548 17.122 26.7645 17.0957C27.3493 17.1235 27.9387 17.118 28.5179 17.1884C29.123 17.262 29.4245 17.6618 29.3779 18.213C29.3352 18.7186 28.9379 19.0473 28.3442 19.0541C28.1312 19.0566 27.918 19.0315 27.6687 19.0168Z" fill="#193764"/>
<path fill-rule="evenodd" clip-rule="evenodd" d="M33.7717 19.2535C34.155 19.2535 34.4891 19.2535 34.8614 19.2535C34.6848 18.7932 34.5186 18.3598 34.326 17.8578C34.129 18.354 33.9594 18.7809 33.7717 19.2535ZM36 20.6026C35.7045 20.6026 35.3535 20.6026 35.0247 20.6026C35.089 20.4929 35.229 20.3601 35.2087 20.2688C35.1498 20.004 35.0319 19.753 34.9223 19.5043C34.9068 19.469 34.8084 19.4662 34.7481 19.4654C34.4631 19.4615 34.1768 19.4469 33.8937 19.4726C33.7954 19.4816 33.6823 19.5766 33.6178 19.667C33.5447 19.7694 33.5242 19.9136 33.4709 20.0345C33.3663 20.2721 33.3243 20.4816 33.6354 20.581C33.3813 20.581 33.1273 20.581 32.9117 20.581C33.0176 20.4088 33.1553 20.2388 33.2374 20.0418C33.5867 19.2031 33.9189 18.3563 34.2588 17.5131C34.3076 17.3917 34.3642 17.2739 34.4433 17.0957C34.519 17.2471 34.5785 17.3459 34.6203 17.4527C34.9488 18.291 35.2646 19.1352 35.606 19.9673C35.7004 20.1975 35.8675 20.3932 36 20.6026Z" fill="#193764"/>
<path fill-rule="evenodd" clip-rule="evenodd" d="M30.2565 19.2608C30.6401 19.2608 30.9734 19.2608 31.3455 19.2608C31.1677 18.7977 31.0011 18.3637 30.8089 17.8625C30.6118 18.3614 30.4426 18.7898 30.2565 19.2608ZM31.5087 20.5925C31.7661 20.4855 31.7233 20.3014 31.6522 20.0893C31.446 19.4751 31.45 19.4735 30.8592 19.4735C30.8236 19.4735 30.7878 19.4735 30.7522 19.4735C30.1501 19.4735 30.1572 19.4766 29.9385 20.0725C29.8476 20.32 29.8387 20.5019 30.1205 20.6026C29.8604 20.6026 29.6006 20.6026 29.3827 20.6026C29.4941 20.4269 29.6327 20.2648 29.7119 20.0739C30.0693 19.2137 30.4093 18.3452 30.7575 17.4805C30.802 17.3698 30.8582 17.2644 30.9376 17.0957C31.0099 17.2505 31.061 17.346 31.1005 17.4467C31.4333 18.2972 31.7553 19.1529 32.1009 19.9974C32.1917 20.2192 32.3534 20.4073 32.4709 20.5925C32.1891 20.5925 31.8489 20.5925 31.5087 20.5925Z" fill="#193764"/>
<path fill-rule="evenodd" clip-rule="evenodd" d="M25.7834 20.6026C25.3711 20.6026 24.9588 20.6026 24.5464 20.6026C24.8759 20.5545 24.9213 20.3161 24.9246 20.0857C24.9366 19.2695 24.9315 18.453 24.9286 17.6365C24.9278 17.3786 24.814 17.1858 24.5293 17.0957C24.9705 17.0957 25.4117 17.0957 25.8528 17.0957C25.4364 17.1724 25.4349 17.4571 25.4378 17.7595C25.4453 18.5261 25.4443 19.2929 25.4381 20.0596C25.436 20.3088 25.4852 20.5145 25.7834 20.6026Z" fill="#193764"/>
</svg>
