<svg width="24" height="24" viewBox="0 0 24 24" fill="none" xmlns="http://www.w3.org/2000/svg">
<path d="M10 15V9L16 12L10 15ZM20.82 8.59C20.7311 7.97363 20.4829 7.39112 20.1 6.9C19.6125 6.44127 18.9694 6.18404 18.3 6.18C15.78 6 12 6 12 6C12 6 8.22 6 5.7 6.17C5.0306 6.17404 4.38752 6.43127 3.9 6.89C3.5171 7.38112 3.26893 7.96363 3.18 8.58C3.06766 9.49919 3.00756 10.424 3 11.35V12.64C3.00794 13.5627 3.06803 14.4841 3.18 15.4C3.26725 16.0199 3.5155 16.606 3.9 17.1C4.46173 17.5681 5.16881 17.8262 5.9 17.83C7.32 18 12 18 12 18C12 18 15.78 18 18.3 17.82C18.9694 17.816 19.6125 17.5587 20.1 17.1C20.4829 16.6089 20.7311 16.0264 20.82 15.41C20.9323 14.4908 20.9924 13.566 21 12.64V11.35C20.992 10.4273 20.9319 9.50588 20.82 8.59Z" fill="#242424"/>
</svg>
