<svg width="32" height="32" viewBox="0 0 32 32" fill="none" xmlns="http://www.w3.org/2000/svg">
<path d="M16 32C24.8366 32 32 24.8366 32 16C32 7.16344 24.8366 0 16 0C7.16344 0 0 7.16344 0 16C0 24.8366 7.16344 32 16 32Z" fill="url(#paint0_linear_0_492)"/>
<path d="M16 28.416C22.8572 28.416 28.416 22.8572 28.416 16C28.416 9.14282 22.8572 3.58398 16 3.58398C9.14282 3.58398 3.58398 9.14282 3.58398 16C3.58398 22.8572 9.14282 28.416 16 28.416Z" fill="url(#paint1_linear_0_492)"/>
<path d="M6.19747 26.5629C6.21715 26.5432 6.23215 26.5193 6.24138 26.493C6.25061 26.4667 6.25383 26.4386 6.25081 26.4109C6.23294 26.3264 6.19948 26.2459 6.15214 26.1736C6.10252 26.0967 6.06644 26.0119 6.04547 25.9229C6.03929 25.8831 6.04222 25.8423 6.05405 25.8038C6.06588 25.7652 6.08629 25.7299 6.11376 25.7004C6.14122 25.6708 6.17502 25.6479 6.21262 25.6334C6.25021 25.6188 6.29062 25.6129 6.33081 25.6162C6.41093 25.6321 6.48582 25.6678 6.54869 25.7199C6.61155 25.7721 6.6604 25.8391 6.69081 25.9149C6.71247 25.9719 6.7171 26.034 6.70414 26.0936C6.69238 26.1521 6.66363 26.2059 6.62147 26.2482L6.55214 26.1842C6.57716 26.1604 6.59658 26.1312 6.60903 26.099C6.62148 26.0667 6.62664 26.0321 6.62414 25.9976C6.61656 25.9221 6.58028 25.8524 6.52281 25.8029C6.47388 25.7503 6.4094 25.7148 6.33881 25.7016C6.30999 25.6969 6.28046 25.6996 6.25295 25.7094C6.22545 25.7192 6.20086 25.7357 6.18147 25.7576C6.16218 25.7757 6.14769 25.7984 6.13931 25.8235C6.13093 25.8487 6.12893 25.8755 6.13347 25.9016C6.14933 25.9804 6.18011 26.0556 6.22414 26.1229C6.26559 26.1914 6.30041 26.2638 6.32814 26.3389C6.34123 26.3905 6.34123 26.4446 6.32814 26.4962C6.31881 26.5464 6.29356 26.5922 6.25614 26.6269C6.22835 26.6569 6.19365 26.6796 6.15507 26.693C6.1165 26.7065 6.07521 26.7104 6.03481 26.7042C5.93778 26.6878 5.8488 26.64 5.78147 26.5682C5.72783 26.518 5.68516 26.4571 5.65614 26.3896C5.6303 26.33 5.62198 26.2644 5.63214 26.2002C5.64276 26.1405 5.67165 26.0855 5.71481 26.0429L5.78147 26.1069C5.75591 26.1318 5.73673 26.1625 5.72559 26.1964C5.71445 26.2303 5.71166 26.2664 5.71747 26.3016C5.73292 26.3832 5.77515 26.4573 5.83747 26.5122C5.88716 26.5671 5.95383 26.6037 6.02681 26.6162C6.05744 26.6226 6.08919 26.621 6.11906 26.6117C6.14892 26.6024 6.17591 26.5856 6.19747 26.5629ZM7.20014 27.1416C7.14185 27.2129 7.06915 27.271 6.98681 27.3122C6.91524 27.3485 6.8344 27.3625 6.75481 27.3522C6.6756 27.3408 6.60145 27.3065 6.54147 27.2536C6.49522 27.2144 6.45846 27.1653 6.43397 27.1098C6.40949 27.0544 6.39792 26.9941 6.40014 26.9336C6.40578 26.7984 6.45971 26.6697 6.55214 26.5709L6.62414 26.4829C6.6826 26.4118 6.75526 26.3537 6.83747 26.3122C6.91003 26.276 6.99169 26.2621 7.07214 26.2722C7.15117 26.2842 7.22516 26.3184 7.28547 26.3709C7.34747 26.4207 7.39376 26.4874 7.41881 26.5629C7.44015 26.6379 7.44015 26.7173 7.41881 26.7922C7.39427 26.8793 7.35156 26.9602 7.29347 27.0296L7.20014 27.1416ZM7.20014 26.9896C7.27655 26.9076 7.32347 26.8025 7.33347 26.6909C7.33289 26.6439 7.32221 26.5976 7.30215 26.555C7.28209 26.5125 7.25312 26.4748 7.21721 26.4444C7.1813 26.4141 7.13928 26.3918 7.09401 26.3791C7.04873 26.3664 7.00126 26.3636 6.95481 26.3709C6.84727 26.401 6.7532 26.4668 6.68814 26.5576L6.61347 26.6456C6.53786 26.7278 6.49187 26.8329 6.48281 26.9442C6.48177 26.9918 6.49183 27.039 6.51219 27.0821C6.53256 27.1251 6.56267 27.1629 6.60014 27.1922C6.63563 27.2246 6.67835 27.2481 6.72474 27.2606C6.77113 27.2731 6.81984 27.2744 6.86681 27.2642C6.97407 27.2336 7.06797 27.1679 7.13347 27.0776L7.20014 26.9896ZM7.95747 27.8749C7.9262 27.9138 7.8875 27.946 7.84363 27.9698C7.79977 27.9935 7.75162 28.0083 7.70198 28.0133C7.65234 28.0182 7.60221 28.0133 7.55451 27.9987C7.50681 27.9841 7.4625 27.9601 7.42414 27.9282C7.36071 27.8836 7.31161 27.8216 7.28281 27.7496C7.25597 27.6771 7.25042 27.5984 7.26681 27.5229C7.28525 27.4359 7.32258 27.3539 7.37614 27.2829L7.46147 27.1656C7.51253 27.0911 7.5789 27.0284 7.65614 26.9816C7.72391 26.9421 7.80185 26.9235 7.88014 26.9282C7.95952 26.9318 8.03587 26.9597 8.09881 27.0082C8.14278 27.0345 8.18083 27.0695 8.21058 27.1112C8.24032 27.1529 8.26111 27.2003 8.27164 27.2504C8.28216 27.3005 8.28219 27.3522 8.27172 27.4023C8.26125 27.4525 8.24051 27.4999 8.21081 27.5416L8.13614 27.4856C8.15901 27.4537 8.17501 27.4175 8.18312 27.3791C8.19122 27.3408 8.19127 27.3012 8.18324 27.2628C8.17522 27.2244 8.1593 27.1881 8.1365 27.1563C8.1137 27.1244 8.08452 27.0976 8.05081 27.0776C8.01352 27.0487 7.96991 27.029 7.92356 27.0202C7.87721 27.0114 7.82943 27.0137 7.78414 27.0269C7.67423 27.0611 7.57984 27.1328 7.51747 27.2296L7.43747 27.3389C7.36906 27.4237 7.33061 27.5287 7.32814 27.6376C7.32883 27.6835 7.34058 27.7285 7.3624 27.7689C7.38422 27.8093 7.41546 27.8438 7.45347 27.8696C7.51573 27.9203 7.59464 27.9459 7.67481 27.9416C7.7524 27.9271 7.82233 27.8855 7.87214 27.8242L7.95747 27.8749ZM8.35214 28.5336L8.74147 27.8936L8.62414 27.8216L8.66414 27.7576L8.77881 27.8296L8.83214 27.7442C8.8479 27.7129 8.86967 27.6851 8.89621 27.6622C8.92275 27.6393 8.95353 27.6219 8.98681 27.6109C9.01898 27.6024 9.05262 27.6012 9.08534 27.6071C9.11806 27.6131 9.14906 27.6263 9.17614 27.6456C9.20456 27.6613 9.22986 27.6821 9.25081 27.7069L9.20814 27.7682C9.18766 27.7484 9.16533 27.7305 9.14147 27.7149C9.12316 27.703 9.10248 27.6951 9.08085 27.6919C9.05922 27.6887 9.03715 27.6902 9.01614 27.6962C8.97117 27.7121 8.93396 27.7445 8.91214 27.7869L8.85881 27.8749L9.02681 27.9762L8.98681 28.0402L8.81881 27.9389L8.43214 28.5816L8.35214 28.5336ZM8.92547 28.3842C8.9594 28.3183 9.00881 28.2616 9.06947 28.2189C9.12268 28.1782 9.18667 28.1541 9.25347 28.1496C9.3206 28.1448 9.38758 28.1606 9.44547 28.1949C9.49083 28.2166 9.53071 28.2482 9.56211 28.2875C9.59351 28.3267 9.61563 28.3726 9.62681 28.4216C9.64949 28.5306 9.62944 28.6442 9.57081 28.7389V28.7576C9.53688 28.8235 9.48747 28.8802 9.42681 28.9229C9.37427 28.9648 9.3099 28.989 9.24281 28.9922C9.17571 28.9967 9.10883 28.9809 9.05081 28.9469C9.00578 28.9248 8.96619 28.893 8.93485 28.8538C8.9035 28.8146 8.88118 28.769 8.86947 28.7202C8.84691 28.6103 8.86693 28.496 8.92547 28.4002V28.3842ZM8.99481 28.4509C8.94896 28.5259 8.93191 28.615 8.94681 28.7016C8.95543 28.7384 8.97177 28.7729 8.99476 28.8029C9.01774 28.8329 9.04684 28.8577 9.08012 28.8756C9.11341 28.8935 9.15012 28.9041 9.18782 28.9068C9.22552 28.9094 9.26335 28.904 9.29881 28.8909C9.38043 28.853 9.44639 28.788 9.48547 28.7069V28.6909C9.5152 28.6394 9.5334 28.5821 9.53881 28.5229C9.54206 28.4697 9.53198 28.4165 9.50947 28.3682C9.48493 28.3232 9.44789 28.2861 9.40281 28.2616C9.36843 28.2444 9.33055 28.2355 9.29214 28.2355C9.25373 28.2355 9.21585 28.2444 9.18147 28.2616C9.09986 28.2995 9.03389 28.3645 8.99481 28.4456V28.4509ZM10.2401 28.6936L10.1868 28.6616C10.1406 28.6385 10.0879 28.6319 10.0375 28.6429C9.98411 28.6574 9.93659 28.6882 9.90148 28.7309L9.65881 29.2429L9.57614 29.2056L9.93081 28.4589L10.0108 28.4989L9.95481 28.6162C9.99149 28.5859 10.0361 28.5667 10.0834 28.561C10.1307 28.5553 10.1786 28.5634 10.2215 28.5842C10.2396 28.5925 10.2559 28.6043 10.2695 28.6189L10.2401 28.6936ZM11.1548 29.5762C11.1667 29.5512 11.1728 29.5239 11.1728 29.4962C11.1728 29.4686 11.1667 29.4412 11.1548 29.4162C11.1041 29.3457 11.0408 29.2852 10.9681 29.2376C10.8931 29.1849 10.8266 29.121 10.7708 29.0482C10.7463 29.0144 10.7308 28.9748 10.7256 28.9333C10.7205 28.8919 10.726 28.8497 10.7415 28.8109C10.7562 28.7735 10.7792 28.7399 10.8088 28.7127C10.8383 28.6855 10.8737 28.6652 10.9121 28.6536C11.0011 28.6334 11.0942 28.6408 11.1788 28.6749C11.2428 28.6989 11.301 28.7361 11.3495 28.7842C11.3916 28.828 11.4202 28.8829 11.432 28.9425C11.4439 29.002 11.4383 29.0637 11.4161 29.1202L11.3281 29.0882C11.3427 29.0569 11.3502 29.0228 11.3502 28.9882C11.3502 28.9537 11.3427 28.9196 11.3281 28.8882C11.2905 28.8223 11.2297 28.7729 11.1575 28.7496C11.0921 28.7205 11.019 28.7139 10.9495 28.7309C10.9209 28.7376 10.8945 28.7514 10.8726 28.771C10.8507 28.7905 10.834 28.8153 10.8241 28.8429C10.8148 28.8677 10.8114 28.8944 10.8142 28.9208C10.817 28.9472 10.8258 28.9726 10.8401 28.9949C10.8849 29.0604 10.942 29.1165 11.0081 29.1602C11.075 29.2058 11.1359 29.2596 11.1895 29.3202C11.2237 29.3604 11.2483 29.4078 11.2615 29.4589C11.2706 29.5092 11.265 29.561 11.2455 29.6082C11.2326 29.6475 11.2099 29.6827 11.1796 29.7107C11.1492 29.7387 11.1123 29.7585 11.0721 29.7682C10.977 29.7915 10.8768 29.783 10.7868 29.7442C10.7174 29.718 10.6539 29.6781 10.6001 29.6269C10.5526 29.5835 10.5192 29.5268 10.5041 29.4642C10.4856 29.4061 10.4856 29.3437 10.5041 29.2856L10.5921 29.3176C10.5788 29.3507 10.5733 29.3865 10.5761 29.4221C10.5789 29.4577 10.5898 29.4922 10.6081 29.5229C10.6551 29.5919 10.7235 29.6435 10.8028 29.6696C10.8701 29.6982 10.9445 29.7056 11.0161 29.6909C11.0471 29.6853 11.0762 29.6718 11.1004 29.6517C11.1247 29.6316 11.1434 29.6056 11.1548 29.5762ZM11.6588 30.0429C11.5948 30.0233 11.5369 29.9874 11.4908 29.9389C11.4481 29.8876 11.4196 29.826 11.4081 29.7602C11.3977 29.6888 11.4032 29.616 11.4241 29.5469V29.5176C11.4448 29.4458 11.4823 29.38 11.5335 29.3256C11.5785 29.277 11.6356 29.2412 11.6988 29.2216C11.7596 29.2029 11.8247 29.2029 11.8855 29.2216C11.9292 29.2331 11.9698 29.2544 12.004 29.284C12.0382 29.3136 12.0651 29.3506 12.0828 29.3922C12.1177 29.4869 12.1177 29.5909 12.0828 29.6856L12.0695 29.7336L11.5068 29.5576V29.5762C11.4759 29.6551 11.4759 29.7427 11.5068 29.8216C11.522 29.8569 11.5446 29.8886 11.5731 29.9143C11.6017 29.9401 11.6354 29.9594 11.6721 29.9709C11.7151 29.9811 11.7599 29.9811 11.8028 29.9709C11.847 29.9633 11.8889 29.946 11.9255 29.9202L11.9681 29.9789C11.926 30.0145 11.8756 30.0391 11.8216 30.0502C11.7676 30.0614 11.7116 30.0589 11.6588 30.0429ZM11.8721 29.2962C11.8414 29.2857 11.8087 29.2821 11.7764 29.2858C11.7441 29.2895 11.713 29.3004 11.6855 29.3176C11.6219 29.3574 11.5725 29.4161 11.5441 29.4856L12.0161 29.6322C12.0405 29.5669 12.0405 29.4949 12.0161 29.4296C12.0046 29.3974 11.9854 29.3686 11.9604 29.3454C11.9353 29.3222 11.9051 29.3053 11.8721 29.2962ZM12.7175 29.5469L12.6615 29.5256C12.6123 29.5081 12.5586 29.5081 12.5095 29.5256C12.4597 29.5498 12.4187 29.589 12.3921 29.6376L12.2508 30.1869L12.1628 30.1629L12.3681 29.3629L12.4561 29.3842L12.4241 29.5122C12.4544 29.4724 12.4964 29.443 12.5442 29.4281C12.592 29.4133 12.6433 29.4138 12.6908 29.4296C12.7111 29.4332 12.7302 29.4414 12.7468 29.4536L12.7175 29.5469ZM12.9948 30.2429L13.3841 29.6002L13.4748 29.6189L13.0055 30.3629L12.9335 30.3496L12.8001 29.4776L12.8908 29.4962L12.9948 30.2429ZM13.5788 30.4829L13.4908 30.4669L13.6268 29.6669L13.7175 29.6829L13.5788 30.4829ZM13.6508 29.4162C13.6535 29.4004 13.6621 29.3861 13.6748 29.3762C13.6891 29.3667 13.7065 29.3631 13.7233 29.3661C13.7402 29.3691 13.7553 29.3784 13.7655 29.3922C13.7688 29.3993 13.7705 29.4071 13.7705 29.4149C13.7705 29.4227 13.7688 29.4305 13.7655 29.4376C13.7628 29.4535 13.7542 29.4677 13.7415 29.4776C13.7251 29.4833 13.7072 29.4833 13.6908 29.4776C13.6828 29.4769 13.675 29.4743 13.668 29.4702C13.6611 29.466 13.6552 29.4603 13.6508 29.4536C13.6465 29.4415 13.6465 29.4283 13.6508 29.4162ZM14.1655 30.5042C14.2226 30.5134 14.2812 30.5021 14.3308 30.4722C14.3534 30.4576 14.3727 30.4385 14.3874 30.416C14.4021 30.3935 14.4119 30.3681 14.4161 30.3416H14.5041C14.4967 30.3906 14.4743 30.4363 14.4401 30.4722C14.4054 30.5105 14.3613 30.539 14.3121 30.5549C14.2614 30.571 14.2078 30.5765 14.1548 30.5709C14.1065 30.5669 14.0597 30.5518 14.0181 30.5268C13.9765 30.5018 13.9411 30.4677 13.9148 30.4269C13.8667 30.3372 13.8498 30.234 13.8668 30.1336V30.1069C13.8756 30.0336 13.8992 29.9628 13.9361 29.8989C13.9694 29.8431 14.0186 29.7985 14.0775 29.7709C14.1364 29.7429 14.2025 29.7336 14.2668 29.7442C14.3074 29.7462 14.3472 29.7564 14.3837 29.7744C14.4201 29.7923 14.4525 29.8176 14.4788 29.8486C14.505 29.8797 14.5246 29.9158 14.5364 29.9547C14.5481 29.9936 14.5516 30.0345 14.5468 30.0749H14.4588C14.4624 30.0455 14.46 30.0157 14.4518 29.9873C14.4435 29.9589 14.4296 29.9325 14.4108 29.9096C14.3718 29.8654 14.3175 29.8378 14.2588 29.8322C14.2224 29.8258 14.1849 29.8282 14.1496 29.8393C14.1143 29.8505 14.0823 29.87 14.0561 29.8962C13.9975 29.9631 13.9628 30.0475 13.9575 30.1362V30.1336C13.9368 30.224 13.9501 30.3189 13.9948 30.4002C14.0134 30.4295 14.0385 30.454 14.0681 30.4721C14.0976 30.4901 14.131 30.5011 14.1655 30.5042ZM15.0108 30.6669C14.9434 30.6656 14.8782 30.6432 14.8241 30.6029C14.7688 30.5659 14.726 30.5129 14.7015 30.4509C14.6743 30.3842 14.6634 30.312 14.6695 30.2402V30.2082C14.6727 30.1345 14.6928 30.0624 14.7281 29.9976C14.7607 29.9388 14.8086 29.8899 14.8668 29.8562C14.9216 29.824 14.9848 29.8092 15.0481 29.8136C15.0933 29.8149 15.1377 29.8264 15.1778 29.8471C15.218 29.8679 15.253 29.8974 15.2801 29.9336C15.3374 30.0169 15.3612 30.1188 15.3468 30.2189V30.2696L14.7601 30.2296V30.2456C14.75 30.3308 14.7729 30.4167 14.8241 30.4856C14.847 30.5163 14.8763 30.5417 14.9098 30.5601C14.9434 30.5785 14.9806 30.5895 15.0188 30.5922C15.0632 30.596 15.1079 30.5896 15.1495 30.5736C15.1905 30.5564 15.227 30.5299 15.2561 30.4962L15.3095 30.5442C15.2747 30.5889 15.2288 30.6237 15.1764 30.6452C15.1241 30.6668 15.067 30.6742 15.0108 30.6669ZM15.0455 29.8909C15.0128 29.888 14.98 29.8923 14.9491 29.9033C14.9183 29.9144 14.8902 29.932 14.8668 29.9549C14.8144 30.0089 14.7799 30.0779 14.7681 30.1522L15.2615 30.1842C15.2688 30.1133 15.2499 30.0421 15.2081 29.9842C15.1902 29.9566 15.1663 29.9334 15.1381 29.9163C15.1099 29.8992 15.0783 29.8887 15.0455 29.8856V29.8909ZM16.7708 30.1709C16.7744 30.2622 16.7581 30.3532 16.7228 30.4376C16.6945 30.5008 16.651 30.5561 16.5963 30.5985C16.5415 30.6409 16.4771 30.6692 16.4088 30.6808C16.3405 30.6924 16.2704 30.687 16.2047 30.665C16.139 30.6431 16.0797 30.6052 16.0321 30.5549C15.9468 30.4494 15.9015 30.3172 15.9041 30.1816V30.0669C15.9004 29.9756 15.9168 29.8845 15.9521 29.8002C15.9834 29.726 16.0352 29.6621 16.1015 29.6162C16.1683 29.5732 16.246 29.5501 16.3255 29.5496C16.4044 29.5452 16.4828 29.5644 16.5507 29.6047C16.6186 29.6451 16.673 29.7048 16.7068 29.7762C16.7472 29.8593 16.7682 29.9505 16.7681 30.0429L16.7708 30.1709ZM16.6721 30.0536C16.6765 29.9417 16.6426 29.8317 16.5761 29.7416C16.5454 29.706 16.5073 29.6775 16.4645 29.6579C16.4217 29.6384 16.3752 29.6282 16.3281 29.6282C16.2811 29.6282 16.2346 29.6384 16.1918 29.6579C16.149 29.6775 16.1109 29.706 16.0801 29.7416C16.0163 29.8355 15.9862 29.9483 15.9948 30.0616V30.1762C15.9931 30.2886 16.0287 30.3984 16.0961 30.4882C16.1261 30.5253 16.1645 30.5546 16.2081 30.5736C16.2517 30.5926 16.2993 30.6009 16.3468 30.5976C16.3943 30.5983 16.4412 30.5878 16.4839 30.567C16.5265 30.5461 16.5636 30.5155 16.5921 30.4776C16.6541 30.383 16.6823 30.2702 16.6721 30.1576V30.0536ZM17.3575 29.8669C17.3362 29.8656 17.3148 29.8656 17.2935 29.8669C17.2419 29.8701 17.193 29.8908 17.1548 29.9256C17.1156 29.9647 17.0895 30.015 17.0801 30.0696L17.1255 30.6349H17.0348L16.9708 29.8136H17.0588V29.9442C17.074 29.8977 17.1031 29.8568 17.1422 29.8273C17.1813 29.7977 17.2285 29.7808 17.2775 29.7789C17.2977 29.7744 17.3186 29.7744 17.3388 29.7789L17.3575 29.8669ZM17.5015 30.1869C17.4819 30.0796 17.4988 29.9688 17.5495 29.8722C17.5702 29.8318 17.601 29.7974 17.6388 29.7722C17.6766 29.747 17.7202 29.7319 17.7655 29.7282C17.8149 29.7202 17.8656 29.7254 17.9124 29.7432C17.9592 29.761 18.0005 29.7908 18.0321 29.8296V29.7096H18.1175L18.2215 30.5096C18.2303 30.5555 18.2299 30.6028 18.2203 30.6485C18.2107 30.6943 18.1921 30.7377 18.1655 30.7762C18.1383 30.8113 18.1041 30.8403 18.065 30.8614C18.026 30.8825 17.983 30.8953 17.9388 30.8989C17.8823 30.9072 17.8247 30.9017 17.7708 30.8829C17.719 30.8665 17.6722 30.8371 17.6348 30.7976L17.6775 30.7362C17.7091 30.7685 17.7475 30.7932 17.79 30.8084C17.8325 30.8237 17.8779 30.8291 17.9228 30.8242C17.9555 30.8214 17.9873 30.8119 18.0162 30.7963C18.0451 30.7807 18.0705 30.7594 18.0908 30.7336C18.1287 30.6763 18.1431 30.6065 18.1308 30.5389V30.4376C18.1078 30.4813 18.0738 30.5183 18.0322 30.5449C17.9906 30.5716 17.9428 30.587 17.8935 30.5896C17.8493 30.5973 17.804 30.5938 17.7616 30.5793C17.7191 30.5649 17.6811 30.54 17.6508 30.5069C17.5775 30.4248 17.5334 30.3207 17.5255 30.2109L17.5015 30.1869ZM17.5948 30.1869C17.6022 30.2747 17.6356 30.3582 17.6908 30.4269C17.7142 30.4531 17.7438 30.4729 17.7769 30.4846C17.81 30.4962 17.8455 30.4993 17.8801 30.4936C17.9302 30.4898 17.9779 30.4706 18.0165 30.4386C18.0552 30.4066 18.083 30.3634 18.0961 30.3149L18.0481 29.9336C18.0236 29.8885 17.9866 29.8515 17.9415 29.8269C17.8957 29.8026 17.8432 29.7942 17.7921 29.8029C17.7571 29.8063 17.7234 29.8182 17.6941 29.8378C17.6647 29.8573 17.6407 29.8838 17.6241 29.9149C17.5891 30.0021 17.5808 30.0977 17.6001 30.1896L17.5948 30.1869ZM19.0055 30.3736C18.9878 30.3389 18.9743 30.3022 18.9655 30.2642C18.9423 30.3114 18.9074 30.3518 18.8641 30.3816C18.8197 30.4136 18.7687 30.4355 18.7148 30.4456C18.6469 30.4624 18.575 30.4519 18.5148 30.4162C18.4853 30.3981 18.4602 30.3736 18.4416 30.3444C18.4229 30.3153 18.411 30.2823 18.4069 30.2479C18.4028 30.2135 18.4066 30.1787 18.4179 30.1459C18.4292 30.1132 18.4477 30.0834 18.4721 30.0589C18.5463 29.992 18.6396 29.95 18.7388 29.9389L18.9015 29.9069L18.8828 29.8162C18.8794 29.7907 18.8708 29.7662 18.8575 29.7442C18.8442 29.7221 18.8265 29.7031 18.8055 29.6882C18.7539 29.6609 18.6938 29.6542 18.6375 29.6696C18.5818 29.6775 18.5308 29.7049 18.4935 29.7469C18.4773 29.7636 18.4652 29.7839 18.4583 29.8062C18.4514 29.8284 18.4497 29.8519 18.4535 29.8749L18.3628 29.8909C18.3578 29.8578 18.3606 29.824 18.3707 29.7921C18.3809 29.7602 18.3983 29.731 18.4215 29.7069C18.4753 29.6456 18.5489 29.605 18.6295 29.5922C18.7058 29.5739 18.7861 29.5834 18.8561 29.6189C18.887 29.6376 18.9135 29.6628 18.9338 29.6927C18.954 29.7227 18.9676 29.7566 18.9735 29.7922L19.0455 30.1762C19.0545 30.2362 19.0744 30.2941 19.1041 30.3469L19.0055 30.3736ZM18.7121 30.3736C18.7685 30.3641 18.8211 30.3392 18.8641 30.3016C18.9025 30.2642 18.9301 30.2173 18.9441 30.1656L18.9095 29.9869L18.7495 30.0162C18.6758 30.0277 18.6067 30.0591 18.5495 30.1069C18.5313 30.1229 18.5171 30.1429 18.5081 30.1654C18.4991 30.1879 18.4955 30.2122 18.4975 30.2363C18.4996 30.2604 18.5073 30.2837 18.52 30.3043C18.5328 30.3249 18.5502 30.3423 18.5708 30.3549C18.6152 30.3755 18.6657 30.3783 18.7121 30.3629V30.3736ZM19.2348 29.4776L19.2721 29.6136C19.2883 29.5607 19.3166 29.5123 19.3548 29.4722C19.3943 29.4358 19.4418 29.4093 19.4935 29.3949C19.5282 29.3833 19.5651 29.3794 19.6015 29.3835C19.6379 29.3877 19.6729 29.3998 19.7041 29.4189C19.766 29.4697 19.8084 29.5404 19.8241 29.6189L19.9575 30.1522L19.8695 30.1736L19.7361 29.6402C19.726 29.5814 19.6947 29.5283 19.6481 29.4909C19.6251 29.4771 19.5993 29.4685 19.5726 29.4658C19.5459 29.463 19.5189 29.4661 19.4935 29.4749C19.4404 29.4884 19.3934 29.5194 19.3601 29.5629C19.3266 29.611 19.3064 29.6671 19.3015 29.7256L19.4428 30.2589L19.3548 30.2829L19.1495 29.4829L19.2348 29.4776ZM19.8988 29.0509C19.8955 29.0438 19.8938 29.0361 19.8938 29.0282C19.8938 29.0204 19.8955 29.0127 19.8988 29.0056C19.9076 28.9902 19.9219 28.9787 19.9388 28.9736C19.9464 28.9702 19.9545 28.9684 19.9628 28.9684C19.9711 28.9684 19.9793 28.9702 19.9868 28.9736C19.9942 28.9771 20.0008 28.9823 20.0059 28.9888C20.0109 28.9953 20.0145 29.0028 20.0161 29.0109C20.0214 29.0256 20.0214 29.0416 20.0161 29.0562C20.0071 29.0708 19.9928 29.0813 19.9761 29.0856C19.9685 29.0885 19.9603 29.0897 19.9521 29.0892C19.9439 29.0887 19.9359 29.0865 19.9286 29.0828C19.9213 29.079 19.9149 29.0737 19.9098 29.0673C19.9046 29.0609 19.9009 29.0535 19.8988 29.0456V29.0509ZM20.3095 30.0376L20.2215 30.0642L19.9841 29.2642L20.0695 29.2376L20.3095 30.0376ZM20.6028 29.8669L21.1095 29.6909L21.1335 29.7656L20.5335 29.9736L20.5095 29.9122L20.7601 29.1122L20.3015 29.2696L20.2775 29.1949L20.8428 29.0002L20.8641 29.0642L20.6028 29.8669ZM21.8055 29.4909C21.7816 29.4593 21.7611 29.4253 21.7441 29.3896C21.7311 29.4405 21.7054 29.4873 21.6695 29.5256C21.632 29.565 21.5865 29.5959 21.5361 29.6162C21.4712 29.6429 21.3984 29.6429 21.3335 29.6162C21.3011 29.6043 21.2718 29.5851 21.2478 29.5603C21.2239 29.5354 21.2058 29.5054 21.1951 29.4726C21.1843 29.4398 21.1811 29.405 21.1856 29.3707C21.1902 29.3365 21.2025 29.3037 21.2215 29.2749C21.2787 29.1949 21.36 29.1351 21.4535 29.1042L21.6001 29.0669L21.5655 28.9816C21.5564 28.9573 21.5425 28.9351 21.5247 28.9163C21.5068 28.8975 21.4853 28.8825 21.4615 28.8722C21.4073 28.8518 21.3476 28.8518 21.2935 28.8722C21.2409 28.8927 21.1967 28.9303 21.1681 28.9789C21.1551 28.9978 21.147 29.0197 21.1447 29.0425C21.1423 29.0654 21.1458 29.0884 21.1548 29.1096L21.0695 29.1442C21.0575 29.113 21.0529 29.0794 21.0562 29.046C21.0594 29.0127 21.0704 28.9806 21.0881 28.9522C21.1302 28.883 21.1939 28.8296 21.2695 28.8002C21.34 28.7657 21.4209 28.7591 21.4961 28.7816C21.5305 28.7932 21.5618 28.8124 21.5876 28.8378C21.6135 28.8632 21.6333 28.8941 21.6455 28.9282L21.7948 29.2882C21.8156 29.3448 21.8463 29.3971 21.8855 29.4429L21.8055 29.4909ZM21.5148 29.5389C21.5684 29.5167 21.6153 29.4808 21.6508 29.4349C21.6824 29.3914 21.7 29.3393 21.7015 29.2856L21.6321 29.1176L21.4828 29.1816C21.412 29.2058 21.3498 29.2503 21.3041 29.3096C21.2892 29.3286 21.279 29.3509 21.2745 29.3746C21.2699 29.3984 21.271 29.4229 21.2778 29.4461C21.2846 29.4693 21.2968 29.4905 21.3134 29.5081C21.3301 29.5256 21.3507 29.5389 21.3735 29.5469C21.4198 29.5629 21.4706 29.56 21.5148 29.5389ZM21.8108 28.3496L21.9015 28.5389L22.0561 28.4669L22.0881 28.5336L21.9335 28.6082L22.1681 29.1042C22.1799 29.1388 22.2035 29.1681 22.2348 29.1869C22.2484 29.1939 22.2635 29.1976 22.2788 29.1976C22.2941 29.1976 22.3092 29.1939 22.3228 29.1869L22.3868 29.1496L22.4215 29.2136C22.3975 29.2363 22.3694 29.2544 22.3388 29.2669C22.3159 29.2778 22.2908 29.2835 22.2655 29.2835C22.2401 29.2835 22.2151 29.2778 22.1921 29.2669C22.1438 29.2367 22.1064 29.1919 22.0855 29.1389L21.8508 28.6402L21.7148 28.7069L21.6828 28.6376L21.8188 28.5736L21.7281 28.3816L21.8108 28.3496ZM22.1068 28.1762C22.1015 28.1607 22.1015 28.1438 22.1068 28.1282C22.113 28.1117 22.1254 28.0983 22.1415 28.0909C22.1491 28.0877 22.1572 28.086 22.1655 28.086C22.1737 28.086 22.1819 28.0877 22.1895 28.0909C22.1971 28.0929 22.2041 28.0966 22.2101 28.1017C22.2161 28.1068 22.2209 28.1131 22.2241 28.1202C22.2273 28.1274 22.2289 28.1351 22.2289 28.1429C22.2289 28.1507 22.2273 28.1584 22.2241 28.1656C22.2215 28.174 22.2171 28.1817 22.2111 28.1882C22.2051 28.1947 22.1977 28.1997 22.1895 28.2029C22.1819 28.2061 22.1737 28.2078 22.1655 28.2078C22.1572 28.2078 22.1491 28.2061 22.1415 28.2029C22.1271 28.1984 22.1149 28.1889 22.1068 28.1762ZM22.6855 29.0669L22.6028 29.1069L22.2295 28.3709L22.3121 28.3309L22.6855 29.0669ZM22.6801 28.6029C22.6444 28.5379 22.6226 28.4662 22.6161 28.3922C22.6102 28.3257 22.6242 28.2589 22.6561 28.2002C22.689 28.1407 22.738 28.0917 22.7975 28.0589C22.8403 28.0329 22.8883 28.0167 22.9382 28.0116C22.988 28.0066 23.0383 28.0127 23.0855 28.0296C23.1907 28.0674 23.2769 28.1449 23.3255 28.2456V28.2616C23.3635 28.3258 23.3863 28.3978 23.3921 28.4722C23.398 28.5388 23.3841 28.6056 23.3521 28.6642C23.3191 28.7229 23.2701 28.771 23.2108 28.8029C23.168 28.8287 23.12 28.8449 23.0703 28.8504C23.0206 28.856 22.9703 28.8507 22.9228 28.8349C22.8186 28.7955 22.733 28.7184 22.6828 28.6189L22.6801 28.6029ZM22.7735 28.5789C22.8129 28.6572 22.8791 28.7187 22.9601 28.7522C22.9958 28.7667 23.0343 28.7728 23.0727 28.7701C23.1111 28.7673 23.1483 28.7557 23.1815 28.7362C23.2156 28.7182 23.2449 28.6924 23.2672 28.6609C23.2894 28.6294 23.3039 28.5931 23.3095 28.5549C23.324 28.4618 23.3031 28.3666 23.2508 28.2882V28.2749C23.2237 28.222 23.1844 28.1763 23.1361 28.1416C23.0936 28.1089 23.0428 28.0885 22.9895 28.0829C22.9267 28.0818 22.8656 28.1028 22.8168 28.1423C22.768 28.1818 22.7347 28.2373 22.7228 28.2989C22.7087 28.3916 22.7286 28.4863 22.7788 28.5656L22.7735 28.5789ZM23.3495 27.7496L23.4295 27.8669C23.4277 27.8115 23.4396 27.7566 23.4641 27.7069C23.4878 27.6584 23.5248 27.6177 23.5708 27.5896C23.5995 27.5673 23.6329 27.5516 23.6684 27.5438C23.7039 27.536 23.7407 27.5361 23.7761 27.5442C23.8516 27.5726 23.9147 27.6264 23.9548 27.6962L24.2481 28.1496L24.1735 28.2002L23.8775 27.7336C23.8493 27.6823 23.804 27.6427 23.7495 27.6216C23.7227 27.6155 23.695 27.6154 23.6682 27.6214C23.6415 27.6274 23.6164 27.6393 23.5948 27.6562C23.5487 27.685 23.5145 27.7295 23.4988 27.7816C23.4813 27.838 23.4813 27.8984 23.4988 27.9549L23.8055 28.4296L23.7308 28.4776L23.2801 27.7869L23.3495 27.7496ZM24.7495 27.5282C24.7375 27.511 24.7215 27.497 24.703 27.4872C24.6844 27.4775 24.6638 27.4723 24.6428 27.4722C24.5835 27.476 24.5255 27.4914 24.4721 27.5176C24.4179 27.5442 24.3606 27.5639 24.3015 27.5762C24.2639 27.5858 24.2244 27.5858 24.1868 27.5762C24.1519 27.5639 24.1219 27.5405 24.1015 27.5096C24.082 27.4846 24.069 27.4553 24.0634 27.4242C24.0578 27.3931 24.0599 27.361 24.0695 27.3309C24.0925 27.2595 24.1384 27.1976 24.2001 27.1549C24.2618 27.1047 24.3393 27.0783 24.4188 27.0802C24.453 27.081 24.4866 27.0898 24.5167 27.106C24.5469 27.1222 24.5727 27.1454 24.5921 27.1736L24.5175 27.2269C24.5037 27.208 24.4856 27.1926 24.4648 27.1819C24.4439 27.1713 24.4209 27.1657 24.3975 27.1656C24.3431 27.1659 24.2904 27.1847 24.2481 27.2189C24.2045 27.2461 24.1715 27.2876 24.1548 27.3362C24.1477 27.3558 24.1457 27.3768 24.149 27.3973C24.1523 27.4178 24.1607 27.4372 24.1735 27.4536C24.1838 27.4688 24.1977 27.4811 24.214 27.4895C24.2303 27.4979 24.2485 27.502 24.2668 27.5016C24.3253 27.4959 24.3822 27.4797 24.4348 27.4536C24.493 27.4278 24.5538 27.4081 24.6161 27.3949C24.6546 27.3852 24.695 27.3852 24.7335 27.3949C24.768 27.4106 24.7982 27.4344 24.8215 27.4642C24.841 27.4907 24.8541 27.5214 24.8596 27.5538C24.8652 27.5862 24.8631 27.6195 24.8535 27.6509C24.8264 27.7239 24.777 27.7865 24.7121 27.8296C24.6477 27.8832 24.5666 27.9124 24.4828 27.9122C24.4486 27.9123 24.4149 27.9044 24.3843 27.8892C24.3538 27.8739 24.3272 27.8516 24.3068 27.8242L24.3788 27.7709C24.3944 27.7896 24.414 27.8047 24.4361 27.8148C24.4583 27.825 24.4824 27.83 24.5068 27.8296C24.5654 27.8273 24.6217 27.8057 24.6668 27.7682C24.7117 27.7375 24.7461 27.6938 24.7655 27.6429C24.7727 27.624 24.775 27.6036 24.7722 27.5835C24.7694 27.5635 24.7616 27.5445 24.7495 27.5282ZM25.9468 27.0776L25.8881 27.1282L25.0108 26.1469L25.0695 26.0962L25.9468 27.0776ZM26.7655 25.5602C26.7509 25.5442 26.7325 25.5321 26.712 25.5251C26.6915 25.5181 26.6695 25.5164 26.6481 25.5202C26.582 25.538 26.519 25.5659 26.4615 25.6029C26.3967 25.644 26.3268 25.6763 26.2535 25.6989C26.2049 25.7162 26.1525 25.7202 26.1018 25.7103C26.0511 25.7005 26.0041 25.6772 25.9655 25.6429C25.9316 25.6156 25.9048 25.5805 25.8876 25.5405C25.8704 25.5005 25.8633 25.457 25.8668 25.4136C25.8761 25.3122 25.9215 25.2176 25.9948 25.1469C26.0415 25.0927 26.0998 25.0499 26.1655 25.0216C26.2245 24.9973 26.2891 24.9899 26.3521 25.0002C26.4131 25.0102 26.4697 25.0381 26.5148 25.0802L26.3868 25.2216C26.3687 25.2035 26.347 25.1895 26.3231 25.1803C26.2992 25.1711 26.2737 25.167 26.2481 25.1682C26.1924 25.1772 26.142 25.2067 26.1068 25.2509C26.0688 25.287 26.0444 25.335 26.0375 25.3869C26.0362 25.4084 26.0399 25.4299 26.0482 25.4498C26.0565 25.4697 26.0693 25.4874 26.0855 25.5016C26.1003 25.5153 26.1184 25.5249 26.138 25.5296C26.1576 25.5343 26.1781 25.5338 26.1975 25.5282C26.2628 25.5107 26.3249 25.4828 26.3815 25.4456C26.4457 25.4052 26.5146 25.3729 26.5868 25.3496C26.6402 25.3366 26.696 25.3366 26.7495 25.3496C26.8 25.3616 26.8461 25.3875 26.8828 25.4242C26.9149 25.4521 26.9398 25.4872 26.9556 25.5266C26.9714 25.566 26.9775 25.6086 26.9735 25.6509C26.96 25.7522 26.913 25.846 26.8401 25.9176C26.7886 25.9741 26.7259 26.0195 26.6561 26.0509C26.5955 26.0794 26.5281 26.0904 26.4615 26.0829C26.3962 26.075 26.3354 26.046 26.2881 26.0002L26.4188 25.8589C26.4379 25.8786 26.4614 25.8934 26.4874 25.9022C26.5133 25.911 26.541 25.9135 26.5681 25.9096C26.6313 25.8979 26.6881 25.8638 26.7281 25.8136C26.7669 25.7767 26.7923 25.7279 26.8001 25.6749C26.8037 25.6544 26.8024 25.6334 26.7964 25.6135C26.7904 25.5935 26.7798 25.5753 26.7655 25.5602ZM27.4668 25.1869C27.4354 25.2295 27.3955 25.265 27.3496 25.2911C27.3036 25.3173 27.2527 25.3336 27.2001 25.3389C27.1463 25.3437 27.092 25.3374 27.0406 25.3204C26.9893 25.3034 26.9419 25.2761 26.9015 25.2402L26.8828 25.2242C26.8227 25.1774 26.7743 25.1171 26.7415 25.0482C26.7118 24.987 26.6997 24.9186 26.7068 24.8509C26.7152 24.7832 26.743 24.7193 26.7868 24.6669C26.8147 24.6271 26.8513 24.5942 26.8938 24.5706C26.9363 24.547 26.9836 24.5335 27.0321 24.5309C27.1421 24.5337 27.2473 24.5763 27.3281 24.6509L27.3868 24.6989L27.0481 25.1176C27.0972 25.152 27.1563 25.1689 27.2161 25.1656C27.244 25.163 27.2711 25.1546 27.2954 25.1408C27.3198 25.127 27.3409 25.1082 27.3575 25.0856C27.3825 25.0541 27.4 25.0173 27.4088 24.978C27.4176 24.9388 27.4173 24.8981 27.4081 24.8589L27.5441 24.8429C27.5602 24.8996 27.5602 24.9596 27.5441 25.0162C27.533 25.0787 27.5064 25.1373 27.4668 25.1869ZM26.9041 24.7602C26.889 24.7781 26.8781 24.7991 26.8721 24.8217C26.8661 24.8443 26.8652 24.8679 26.8695 24.8909C26.8806 24.9439 26.9075 24.9923 26.9468 25.0296L27.1681 24.7629C27.1285 24.7299 27.0784 24.7119 27.0268 24.7122C27.0045 24.7111 26.9823 24.7148 26.9616 24.7231C26.9408 24.7314 26.9222 24.7441 26.9068 24.7602H26.9041ZM27.4961 24.0402C27.4779 24.0585 27.4609 24.0781 27.4455 24.0989C27.422 24.1251 27.4073 24.1579 27.4035 24.1928C27.3997 24.2277 27.4069 24.263 27.4241 24.2936L27.8801 24.6269L27.7708 24.7762L27.1041 24.2909L27.2081 24.1469L27.2855 24.1976C27.2696 24.1634 27.2632 24.1255 27.267 24.088C27.2707 24.0505 27.2845 24.0146 27.3068 23.9842C27.3192 23.9657 27.3356 23.9502 27.3548 23.9389L27.4961 24.0402ZM28.0828 23.9202L27.6855 23.4509L27.7895 23.2909L28.3228 23.9842L28.2348 24.1176L27.3868 23.9042L27.4935 23.7442L28.0828 23.9202ZM27.6615 23.0829C27.6387 23.0701 27.6215 23.0491 27.6135 23.0242C27.6086 22.9957 27.6143 22.9663 27.6295 22.9416C27.6439 22.9174 27.6666 22.8994 27.6935 22.8909C27.7051 22.8852 27.7179 22.8823 27.7308 22.8823C27.7437 22.8823 27.7565 22.8852 27.7681 22.8909C27.7797 22.8969 27.7899 22.9052 27.7982 22.9153C27.8064 22.9254 27.8125 22.937 27.8161 22.9496C27.8208 22.9773 27.8151 23.0058 27.8001 23.0296C27.7867 23.0551 27.7637 23.0743 27.7361 23.0829C27.7121 23.0921 27.6855 23.0921 27.6615 23.0829ZM28.6535 23.4482L28.5601 23.6056L27.8508 23.1842L27.9468 23.0242L28.6535 23.4482ZM28.8161 22.8882C28.8275 22.8707 28.835 22.8509 28.8382 22.8302C28.8414 22.8096 28.8403 22.7884 28.8348 22.7682C28.8313 22.7494 28.8237 22.7316 28.8127 22.7159C28.8016 22.7003 28.7874 22.6872 28.7708 22.6776L28.8535 22.5229C28.8983 22.5493 28.9345 22.5882 28.9575 22.6349C28.9839 22.6829 28.9959 22.7376 28.9921 22.7922C28.9912 22.8503 28.9756 22.9072 28.9468 22.9576C28.925 23.0034 28.8934 23.0438 28.8542 23.0761C28.815 23.1083 28.7693 23.1316 28.7201 23.1442C28.609 23.1667 28.4936 23.1457 28.3975 23.0856H28.3815C28.2827 23.0384 28.2055 22.9555 28.1655 22.8536C28.1376 22.7625 28.1445 22.6643 28.1849 22.5781C28.2253 22.4919 28.2963 22.4237 28.3841 22.3869C28.4245 22.3737 28.4671 22.369 28.5093 22.3732C28.5516 22.3773 28.5925 22.3902 28.6295 22.4109L28.5468 22.5629C28.5065 22.5473 28.4618 22.5473 28.4215 22.5629C28.3988 22.5708 28.3779 22.5834 28.3603 22.5997C28.3426 22.616 28.3284 22.6357 28.3187 22.6577C28.3089 22.6797 28.3038 22.7035 28.3036 22.7275C28.3034 22.7516 28.3081 22.7754 28.3175 22.7976C28.3517 22.8575 28.404 22.9051 28.4668 22.9336L28.4935 22.9496C28.553 22.9875 28.6231 23.0053 28.6935 23.0002C28.7223 22.9949 28.7491 22.9815 28.7708 22.9617C28.7925 22.942 28.8082 22.9165 28.8161 22.8882ZM29.3335 22.1682C29.3131 22.217 29.283 22.2612 29.2449 22.2978C29.2069 22.3345 29.1617 22.363 29.1121 22.3816C29.0606 22.3987 29.0062 22.4052 28.9521 22.4006C28.898 22.396 28.8454 22.3805 28.7975 22.3549H28.7788C28.708 22.324 28.6458 22.2764 28.5975 22.2162C28.5537 22.1639 28.5259 22.1 28.5175 22.0322C28.5096 21.9648 28.5207 21.8964 28.5495 21.8349C28.5676 21.7897 28.5957 21.7492 28.6318 21.7164C28.6678 21.6836 28.7108 21.6594 28.7575 21.6456C28.8644 21.6215 28.9764 21.6376 29.0721 21.6909L29.1388 21.7229L28.9121 22.2109C28.968 22.232 29.0296 22.232 29.0855 22.2109C29.1121 22.2015 29.1365 22.1867 29.1572 22.1674C29.1778 22.1481 29.1943 22.1248 29.2055 22.0989C29.2237 22.0634 29.2332 22.0241 29.2332 21.9842C29.2332 21.9444 29.2237 21.905 29.2055 21.8696L29.3361 21.8189C29.3656 21.8702 29.3821 21.9278 29.3841 21.9869C29.3811 22.0504 29.3638 22.1124 29.3335 22.1682ZM28.6828 21.9016C28.6729 21.9224 28.6677 21.9452 28.6677 21.9682C28.6677 21.9913 28.6729 22.0141 28.6828 22.0349C28.7114 22.0786 28.7522 22.1129 28.8001 22.1336L28.9495 21.8136C28.902 21.7971 28.8503 21.7971 28.8028 21.8136C28.7795 21.8171 28.7573 21.8259 28.7378 21.8393C28.7184 21.8527 28.7023 21.8703 28.6908 21.8909L28.6828 21.9016ZM29.5041 20.2802C29.5975 20.3114 29.683 20.3623 29.7548 20.4296C29.8166 20.4868 29.8602 20.561 29.8801 20.6429C29.8964 20.7266 29.89 20.8132 29.8615 20.8936C29.8346 20.9746 29.7845 21.046 29.7175 21.0989C29.6516 21.151 29.5718 21.1826 29.4881 21.1896C29.3915 21.1976 29.2942 21.1849 29.2028 21.1522L29.1441 21.1309C29.0513 21.0988 28.966 21.0479 28.8935 20.9816C28.8305 20.9231 28.7868 20.8468 28.7681 20.7629C28.7497 20.6804 28.7552 20.5944 28.7841 20.5149C28.812 20.4343 28.8619 20.3632 28.9281 20.3096C28.9944 20.2581 29.0739 20.2267 29.1575 20.2189C29.2552 20.2118 29.3534 20.2254 29.4455 20.2589L29.5041 20.2802ZM29.3841 20.4429C29.2933 20.4039 29.1926 20.3946 29.0961 20.4162C29.0588 20.4261 29.0246 20.4452 28.9967 20.4717C28.9687 20.4983 28.9479 20.5315 28.9361 20.5682C28.9224 20.6041 28.9176 20.6428 28.9222 20.6809C28.9269 20.719 28.9408 20.7554 28.9628 20.7869C29.0252 20.8616 29.1075 20.9171 29.2001 20.9469L29.2615 20.9682C29.3535 21.0061 29.4548 21.0154 29.5521 20.9949C29.5894 20.9842 29.6235 20.9645 29.6514 20.9375C29.6793 20.9105 29.7001 20.8771 29.7121 20.8402C29.7259 20.8044 29.7307 20.7657 29.7261 20.7276C29.7214 20.6895 29.7075 20.6531 29.6855 20.6216C29.6213 20.5451 29.536 20.4894 29.4401 20.4616L29.3841 20.4429ZM29.5468 19.6509C29.5468 19.6749 29.5281 19.6989 29.5201 19.7229C29.5069 19.7557 29.5041 19.7917 29.5123 19.8261C29.5204 19.8605 29.539 19.8915 29.5655 19.9149L30.0988 20.0722L30.0455 20.2482L29.2455 20.0216L29.2961 19.8509L29.3841 19.8722C29.3579 19.8453 29.3393 19.8117 29.3304 19.7752C29.3215 19.7386 29.3226 19.7003 29.3335 19.6642C29.3389 19.642 29.3489 19.6211 29.3628 19.6029L29.5468 19.6509ZM29.8028 19.6242C29.699 19.6027 29.6052 19.5474 29.5361 19.4669C29.5057 19.4304 29.4844 19.3872 29.4742 19.3407C29.464 19.2943 29.4651 19.2461 29.4775 19.2002C29.4851 19.159 29.5023 19.12 29.5278 19.0867C29.5533 19.0533 29.5863 19.0264 29.6241 19.0082L29.5441 18.9816L29.5841 18.8189L30.3628 19.0002C30.4089 19.0088 30.4527 19.027 30.4913 19.0537C30.5299 19.0803 30.5625 19.1148 30.5868 19.1549C30.6106 19.1985 30.6255 19.2465 30.6305 19.2959C30.6356 19.3454 30.6307 19.3954 30.6161 19.4429C30.6035 19.502 30.578 19.5575 30.5415 19.6056C30.5092 19.652 30.465 19.6888 30.4135 19.7122L30.3255 19.6029C30.3624 19.5855 30.3948 19.5599 30.4202 19.528C30.4456 19.4961 30.4634 19.4588 30.4721 19.4189C30.4863 19.368 30.4806 19.3137 30.4561 19.2669C30.4417 19.2442 30.4225 19.2249 30.4 19.2102C30.3775 19.1954 30.3521 19.1857 30.3255 19.1816H30.2721C30.2953 19.2145 30.3106 19.2522 30.3171 19.292C30.3236 19.3317 30.321 19.3723 30.3095 19.4109C30.3003 19.4555 30.2804 19.4972 30.2517 19.5325C30.2229 19.5678 30.186 19.5956 30.1441 19.6136C30.0351 19.657 29.9143 19.6607 29.8028 19.6242ZM29.8615 19.4482C29.9266 19.4687 29.9964 19.4687 30.0615 19.4482C30.0873 19.4386 30.1101 19.4226 30.1279 19.4015C30.1456 19.3805 30.1577 19.3553 30.1628 19.3282C30.173 19.2955 30.1732 19.2604 30.1632 19.2276C30.1532 19.1948 30.1336 19.1657 30.1068 19.1442L29.7548 19.0616C29.7222 19.0695 29.6927 19.0869 29.6699 19.1116C29.6471 19.1363 29.6321 19.1671 29.6268 19.2002C29.6184 19.227 29.6175 19.2555 29.6241 19.2827C29.6306 19.31 29.6445 19.3349 29.6641 19.3549C29.7201 19.4067 29.7911 19.4394 29.8668 19.4482H29.8615ZM30.5041 18.2936C30.4776 18.2971 30.4507 18.2971 30.4241 18.2936C30.4488 18.3258 30.4664 18.3629 30.4756 18.4025C30.4848 18.442 30.4854 18.4831 30.4775 18.5229C30.4683 18.5964 30.4322 18.6639 30.3761 18.7122C30.3474 18.7342 30.3142 18.7496 30.2788 18.7574C30.2435 18.7652 30.2069 18.7651 30.1715 18.7573C30.1362 18.7494 30.1031 18.7339 30.0744 18.7118C30.0457 18.6898 30.0222 18.6617 30.0055 18.6296C29.9689 18.5381 29.9605 18.4378 29.9815 18.3416L30.0028 18.2296H29.9495C29.931 18.2248 29.9117 18.224 29.8928 18.2273C29.874 18.2305 29.856 18.2376 29.8401 18.2482C29.8243 18.2597 29.811 18.2744 29.8014 18.2915C29.7917 18.3085 29.7858 18.3274 29.7841 18.3469C29.7781 18.3841 29.7837 18.4223 29.8001 18.4562C29.8071 18.4702 29.8172 18.4823 29.8297 18.4916C29.8423 18.5008 29.8568 18.507 29.8721 18.5096L29.8401 18.6909C29.7954 18.682 29.7545 18.6597 29.7228 18.6269C29.6884 18.5883 29.6645 18.5414 29.6535 18.4909C29.6414 18.4329 29.6414 18.373 29.6535 18.3149C29.663 18.2322 29.7018 18.1556 29.7628 18.0989C29.7928 18.075 29.8277 18.0578 29.865 18.0486C29.9023 18.0394 29.9411 18.0384 29.9788 18.0456L30.3468 18.1069C30.4065 18.1203 30.4684 18.1203 30.5281 18.1069L30.5041 18.2936ZM30.3388 18.4722C30.348 18.4373 30.348 18.4005 30.3388 18.3656C30.3282 18.3326 30.3077 18.3038 30.2801 18.2829L30.1281 18.2562L30.1095 18.3549C30.0931 18.407 30.0931 18.4628 30.1095 18.5149C30.1178 18.5327 30.1305 18.5482 30.1463 18.5598C30.1621 18.5715 30.1807 18.5789 30.2001 18.5816C30.2159 18.5851 30.2322 18.585 30.2479 18.5813C30.2636 18.5776 30.2783 18.5704 30.2908 18.5602C30.317 18.5378 30.3341 18.5065 30.3388 18.4722ZM29.7601 17.6482H29.8668C29.8341 17.616 29.8094 17.5765 29.7945 17.533C29.7797 17.4895 29.7753 17.4431 29.7815 17.3976C29.8001 17.2269 29.9068 17.1522 30.1015 17.1682L30.6348 17.2269L30.6161 17.4109L30.0828 17.3549C30.0415 17.3465 29.9986 17.3541 29.9628 17.3762C29.9478 17.3897 29.9358 17.4061 29.9275 17.4245C29.9192 17.4429 29.9149 17.4628 29.9148 17.4829C29.9098 17.5171 29.9149 17.5521 29.9296 17.5834C29.9443 17.6147 29.9679 17.6409 29.9975 17.6589L30.5815 17.7202L30.5601 17.9042L29.7415 17.8189L29.7601 17.6482ZM29.6001 16.9469C29.5737 16.9457 29.5489 16.9342 29.5308 16.9149C29.521 16.9042 29.5138 16.8915 29.5097 16.8777C29.5055 16.8638 29.5045 16.8492 29.5068 16.8349C29.5075 16.8068 29.5189 16.7801 29.5388 16.7602C29.5484 16.7513 29.5597 16.7445 29.5722 16.7403C29.5846 16.7362 29.5978 16.7348 29.6108 16.7362C29.6246 16.7364 29.6382 16.7395 29.6506 16.7455C29.663 16.7515 29.6739 16.7601 29.6826 16.7708C29.6912 16.7816 29.6974 16.794 29.7007 16.8074C29.704 16.8208 29.7042 16.8347 29.7015 16.8482C29.7023 16.8623 29.6999 16.8764 29.6943 16.8894C29.6887 16.9023 29.6802 16.9138 29.6695 16.9229C29.65 16.9391 29.6254 16.9476 29.6001 16.9469ZM30.6481 16.8136V16.9976L29.8241 16.9469V16.7629L30.6481 16.8136ZM30.5281 16.3816V15.9416H30.6748V16.6109H30.5521L30.0188 16.1842V16.5949H29.8695V15.9496H29.9868L30.5281 16.3816ZM30.6668 15.2696C30.6429 15.2827 30.6166 15.2909 30.5895 15.2936C30.6473 15.3458 30.6833 15.418 30.6902 15.4956C30.6971 15.5732 30.6745 15.6506 30.6268 15.7122C30.6059 15.7382 30.5795 15.7593 30.5496 15.7741C30.5196 15.7888 30.4868 15.7968 30.4535 15.7976C30.4144 15.8006 30.3752 15.7939 30.3394 15.778C30.3036 15.7622 30.2722 15.7378 30.2481 15.7069C30.1963 15.6276 30.1685 15.535 30.1681 15.4402V15.3282H30.1148C30.0963 15.3274 30.0778 15.3302 30.0604 15.3366C30.043 15.3431 30.027 15.3529 30.0135 15.3656C29.9882 15.3972 29.9758 15.4372 29.9788 15.4776C29.9789 15.5147 29.9921 15.5506 30.0161 15.5789C30.0252 15.5914 30.0373 15.6014 30.0513 15.608C30.0653 15.6145 30.0807 15.6174 30.0961 15.6162V15.8029C30.0504 15.8028 30.0058 15.7888 29.9681 15.7629C29.9257 15.7318 29.8918 15.6905 29.8695 15.6429C29.8447 15.5893 29.8311 15.5313 29.8295 15.4722C29.8229 15.389 29.8456 15.306 29.8935 15.2376C29.9183 15.2078 29.9492 15.1838 29.9842 15.1672C30.0192 15.1507 30.0574 15.1419 30.0961 15.1416H30.4668C30.5274 15.1416 30.5874 15.1289 30.6428 15.1042L30.6668 15.2696ZM30.5415 15.4776C30.5386 15.4418 30.5277 15.4072 30.5095 15.3762C30.4922 15.3461 30.4662 15.3219 30.4348 15.3069H30.2801V15.4082C30.2798 15.4619 30.2946 15.5146 30.3228 15.5602C30.334 15.5771 30.3497 15.5905 30.368 15.5989C30.3864 15.6074 30.4067 15.6106 30.4268 15.6082C30.4427 15.6083 30.4585 15.6048 30.4728 15.5979C30.4871 15.5909 30.4997 15.5808 30.5095 15.5682C30.5322 15.5396 30.5428 15.5032 30.5388 15.4669L30.5415 15.4776ZM29.6001 14.7416L29.8001 14.7256V14.5789H29.9388V14.7229L30.4001 14.6669C30.4245 14.667 30.4481 14.6585 30.4668 14.6429C30.4742 14.6337 30.4795 14.6229 30.4823 14.6114C30.4851 14.5998 30.4852 14.5878 30.4828 14.5762C30.4854 14.555 30.4854 14.5335 30.4828 14.5122H30.6268C30.6407 14.5509 30.6497 14.5913 30.6535 14.6322C30.6659 14.7727 30.5939 14.85 30.4375 14.8642L29.9708 14.9042V15.0402L29.8321 15.0536V14.9176L29.6321 14.9336L29.6001 14.7416ZM29.5575 14.4696C29.5311 14.4734 29.5043 14.4667 29.4828 14.4509C29.4719 14.4416 29.4629 14.4302 29.4565 14.4174C29.4501 14.4045 29.4464 14.3906 29.4455 14.3762C29.4413 14.3482 29.448 14.3196 29.4641 14.2962C29.4724 14.2863 29.4825 14.2781 29.4939 14.2721C29.5054 14.2662 29.5179 14.2626 29.5308 14.2616C29.5439 14.259 29.5573 14.2594 29.5702 14.2626C29.5831 14.2658 29.5952 14.2718 29.6055 14.2802C29.616 14.2897 29.6245 14.3012 29.6305 14.314C29.6365 14.3268 29.6397 14.3408 29.6401 14.3549C29.6432 14.3686 29.6433 14.3828 29.6405 14.3966C29.6378 14.4104 29.6322 14.4234 29.6241 14.4349C29.6067 14.454 29.5831 14.4663 29.5575 14.4696ZM30.5655 14.1496L30.5868 14.3336L29.7681 14.4322L29.7468 14.2482L30.5655 14.1496ZM30.1335 14.0216C30.0607 14.039 29.9849 14.039 29.9121 14.0216C29.8426 14.0048 29.7798 13.9672 29.7322 13.9138C29.6846 13.8605 29.6543 13.7939 29.6455 13.7229C29.6347 13.6742 29.6347 13.6237 29.6453 13.5749C29.6558 13.5261 29.6768 13.4802 29.7068 13.4402C29.7721 13.3554 29.8677 13.2991 29.9735 13.2829H30.0161C30.09 13.2671 30.1663 13.2671 30.2401 13.2829C30.309 13.301 30.371 13.339 30.4184 13.3921C30.4658 13.4452 30.4966 13.5111 30.5068 13.5816C30.514 13.6321 30.5106 13.6835 30.4968 13.7326C30.483 13.7818 30.4592 13.8275 30.4268 13.8669C30.3537 13.9529 30.2509 14.0081 30.1388 14.0216H30.1335ZM30.1335 13.8376C30.2036 13.8285 30.2695 13.7988 30.3228 13.7522C30.3427 13.7318 30.3573 13.7067 30.3652 13.6793C30.3731 13.6518 30.3741 13.6228 30.3681 13.5949C30.3642 13.5669 30.3534 13.5403 30.3366 13.5174C30.3199 13.4946 30.2977 13.4764 30.2721 13.4642C30.2027 13.4361 30.1262 13.4305 30.0535 13.4482C29.9836 13.4556 29.9181 13.4856 29.8668 13.5336C29.8464 13.5532 29.8313 13.5777 29.8229 13.6047C29.8146 13.6318 29.8131 13.6605 29.8188 13.6882C29.8217 13.7162 29.8319 13.743 29.8482 13.7659C29.8646 13.7888 29.8866 13.8071 29.9121 13.8189C29.9765 13.8443 30.0469 13.8508 30.1148 13.8376H30.1335ZM29.5361 13.0189L29.6268 12.9896C29.5857 12.9695 29.5497 12.9404 29.5215 12.9043C29.4933 12.8683 29.4737 12.8263 29.4641 12.7816C29.4268 12.6136 29.5015 12.5149 29.6935 12.4589L30.2268 12.3362L30.2668 12.5176L29.7468 12.6376C29.7064 12.6444 29.6696 12.6652 29.6428 12.6962C29.6323 12.7137 29.6256 12.7332 29.6233 12.7534C29.621 12.7737 29.6231 12.7942 29.6295 12.8136C29.6367 12.8472 29.6533 12.8781 29.6773 12.9027C29.7014 12.9272 29.732 12.9444 29.7655 12.9522L30.3388 12.8216L30.3815 13.0002L29.5815 13.1869L29.5361 13.0189ZM29.8161 11.7336C29.8019 11.7378 29.7889 11.7457 29.7786 11.7564C29.7684 11.7672 29.7611 11.7805 29.7575 11.7949C29.7487 11.8416 29.7487 11.8895 29.7575 11.9362C29.7645 11.992 29.7645 12.0485 29.7575 12.1042C29.7554 12.1467 29.7401 12.1875 29.7139 12.2209C29.6876 12.2544 29.6516 12.2788 29.6108 12.2909C29.5779 12.301 29.5431 12.3032 29.5093 12.2972C29.4754 12.2911 29.4435 12.2771 29.4161 12.2562C29.3488 12.2076 29.3006 12.1368 29.2801 12.0562C29.2519 11.976 29.2519 11.8885 29.2801 11.8082C29.2933 11.7739 29.3144 11.7432 29.3418 11.7186C29.3691 11.694 29.4019 11.6763 29.4375 11.6669L29.4908 11.8429C29.4745 11.8477 29.4595 11.8559 29.4466 11.8669C29.4337 11.8779 29.4234 11.8916 29.4161 11.9069C29.4026 11.9421 29.4026 11.9811 29.4161 12.0162C29.4256 12.0505 29.4451 12.0811 29.4721 12.1042C29.4837 12.1132 29.4972 12.1193 29.5116 12.1221C29.5259 12.1249 29.5407 12.1242 29.5548 12.1202C29.5678 12.1172 29.5796 12.1105 29.589 12.1011C29.5984 12.0917 29.6051 12.0799 29.6081 12.0669C29.6161 12.0166 29.6161 11.9653 29.6081 11.9149C29.601 11.8547 29.601 11.7938 29.6081 11.7336C29.6157 11.6935 29.6331 11.6559 29.6588 11.6242C29.6852 11.5948 29.7194 11.5736 29.7575 11.5629C29.7913 11.5522 29.8273 11.55 29.8621 11.5566C29.897 11.5631 29.9298 11.5781 29.9575 11.6002C30.0245 11.6538 30.0722 11.7278 30.0935 11.8109C30.1115 11.8705 30.117 11.9331 30.1095 11.9949C30.1029 12.0485 30.0817 12.0993 30.0481 12.1416C30.0179 12.1812 29.9759 12.2101 29.9281 12.2242L29.8775 12.0509C29.8957 12.045 29.9126 12.0353 29.9268 12.0224C29.9411 12.0096 29.9524 11.9938 29.9601 11.9762C29.9736 11.9346 29.9736 11.8898 29.9601 11.8482C29.9498 11.8107 29.9296 11.7766 29.9015 11.7496C29.8896 11.7402 29.8756 11.7338 29.8608 11.731C29.8459 11.7283 29.8306 11.7291 29.8161 11.7336ZM10.2241 12.4776H7.96547L7.46681 13.8669H7.01347L8.89614 8.89357H9.29614L11.1628 13.8669H10.7388L10.2241 12.4776ZM8.09081 12.1229H10.0855L9.09347 9.41357L8.09081 12.1229ZM12.3495 13.8669H11.9308V8.90157H12.3495V13.8669ZM17.1495 12.3229C17.1252 12.7811 16.9245 13.2121 16.5895 13.5256C16.2322 13.8161 15.7801 13.9642 15.3201 13.9416C14.9748 13.9508 14.6344 13.8581 14.3415 13.6749C14.0516 13.4818 13.823 13.2098 13.6828 12.8909C13.5234 12.5261 13.4434 12.1316 13.4481 11.7336V11.0776C13.4403 10.6735 13.5195 10.2724 13.6801 9.90157C13.8181 9.57392 14.0513 9.29523 14.3495 9.10157C14.6496 8.91685 14.9972 8.82414 15.3495 8.83491C15.5759 8.81511 15.8039 8.84212 16.0194 8.91425C16.2348 8.98638 16.4332 9.10209 16.602 9.25417C16.7709 9.40625 16.9066 9.59146 17.0008 9.79826C17.095 10.0051 17.1456 10.229 17.1495 10.4562H16.7281C16.6215 9.61002 16.1619 9.1878 15.3495 9.18957C15.1446 9.18426 14.9414 9.22709 14.7562 9.31463C14.5709 9.40217 14.4088 9.53196 14.2828 9.69357C13.9893 10.0995 13.8427 10.5932 13.8668 11.0936V11.7016C13.8449 12.1881 13.9846 12.6682 14.2641 13.0669C14.386 13.2335 14.5472 13.3674 14.7333 13.4567C14.9193 13.546 15.1246 13.588 15.3308 13.5789C15.6905 13.6061 16.0468 13.4934 16.3255 13.2642C16.5692 13.0053 16.7153 12.6697 16.7388 12.3149L17.1495 12.3229ZM18.5228 11.8482V13.8669H18.1015V8.90157H19.7948C20.238 8.87713 20.6744 9.0188 21.0188 9.29891C21.1719 9.43681 21.2919 9.60744 21.3699 9.79812C21.4479 9.98879 21.482 10.1946 21.4695 10.4002C21.4791 10.5987 21.4454 10.7969 21.3708 10.9811C21.2963 11.1653 21.1825 11.3311 21.0375 11.4669C20.6801 11.7423 20.2342 11.877 19.7841 11.8456L18.5228 11.8482ZM18.5228 11.4936H19.7948C20.1319 11.5176 20.4654 11.4127 20.7281 11.2002C20.8356 11.0975 20.9197 10.9729 20.9749 10.8349C21.0301 10.6969 21.0551 10.5487 21.0481 10.4002C21.0554 10.2488 21.0309 10.0975 20.9763 9.95604C20.9216 9.8146 20.838 9.68614 20.7308 9.57891C20.4807 9.36065 20.1557 9.24785 19.8241 9.26424H18.5228V11.4936ZM24.5521 12.4776H22.2935L21.7815 13.8669H21.3335L23.2161 8.89357H23.6135L25.5041 13.8669H25.0668L24.5521 12.4776ZM22.4188 12.1229H24.4135L23.4215 9.41357L22.4188 12.1229ZM13.0668 20.7282C13.0724 20.6043 13.049 20.4807 12.9985 20.3673C12.9481 20.2539 12.8719 20.1538 12.7761 20.0749C12.4539 19.8538 12.0916 19.698 11.7095 19.6162C11.3107 19.5227 10.9303 19.3632 10.5841 19.1442C10.4334 19.0412 10.3094 18.9036 10.2225 18.7429C10.1357 18.5822 10.0884 18.4031 10.0848 18.2205C10.0811 18.0379 10.1211 17.8571 10.2015 17.6931C10.2819 17.529 10.4003 17.3866 10.5468 17.2776C10.8961 17.0287 11.3182 16.9029 11.7468 16.9202C12.0536 16.915 12.3576 16.9807 12.6348 17.1122C12.8828 17.2295 13.0926 17.4143 13.2401 17.6456C13.3833 17.8711 13.4583 18.1331 13.4561 18.4002H13.0321C13.0367 18.2462 13.0078 18.0931 12.9475 17.9513C12.8872 17.8095 12.7969 17.6825 12.6828 17.5789C12.4203 17.3626 12.0865 17.2523 11.7468 17.2696C11.4234 17.2558 11.1046 17.3496 10.8401 17.5362C10.734 17.6111 10.6478 17.7107 10.5888 17.8264C10.5297 17.9421 10.4998 18.0704 10.5015 18.2002C10.4989 18.3202 10.5252 18.4389 10.5781 18.5466C10.631 18.6543 10.709 18.7476 10.8055 18.8189C11.1 19.0209 11.4303 19.1648 11.7788 19.2429C12.1323 19.3233 12.4751 19.445 12.8001 19.6056C13.0136 19.716 13.1968 19.8772 13.3335 20.0749C13.4516 20.2691 13.5117 20.493 13.5068 20.7202C13.5114 20.9039 13.471 21.0859 13.3892 21.2504C13.3074 21.415 13.1867 21.557 13.0375 21.6642C12.6756 21.9161 12.2405 22.0409 11.8001 22.0189C11.4691 22.022 11.1408 21.9585 10.8348 21.8322C10.5648 21.7242 10.3328 21.5386 10.1681 21.2989C10.0086 21.0754 9.92204 20.8081 9.92014 20.5336H10.3415C10.3355 20.6931 10.3679 20.8518 10.4362 20.9961C10.5044 21.1405 10.6064 21.2663 10.7335 21.3629C11.0379 21.5788 11.4061 21.6859 11.7788 21.6669C12.1096 21.6799 12.4358 21.5864 12.7095 21.4002C12.8202 21.3267 12.9108 21.2268 12.9732 21.1095C13.0356 20.9921 13.0677 20.8611 13.0668 20.7282ZM17.9948 19.7336C18.0048 20.1479 17.9237 20.5593 17.7575 20.9389C17.6158 21.2667 17.3801 21.5451 17.0801 21.7389C16.7732 21.9237 16.4196 22.0163 16.0615 22.0056C15.7982 22.0143 15.5363 21.964 15.2949 21.8583C15.0536 21.7527 14.839 21.5943 14.6668 21.3949C14.2898 20.9178 14.1001 20.3194 14.1335 19.7122V19.2002C14.1254 18.7867 14.2073 18.3764 14.3735 17.9976C14.5148 17.6673 14.752 17.3871 15.0544 17.1931C15.3567 16.9991 15.7104 16.9004 16.0695 16.9096C16.4258 16.8999 16.7774 16.9924 17.0828 17.1762C17.3788 17.3664 17.6139 17.6376 17.7601 17.9576C17.9269 18.3252 18.0115 18.7246 18.0081 19.1282L17.9948 19.7336ZM17.5761 19.2002C17.6058 18.698 17.4617 18.2008 17.1681 17.7922C17.0312 17.6323 16.8613 17.5039 16.67 17.4159C16.4787 17.3279 16.2707 17.2823 16.0601 17.2823C15.8496 17.2823 15.6415 17.3279 15.4503 17.4159C15.259 17.5039 15.0891 17.6323 14.9521 17.7922C14.6539 18.2059 14.5079 18.7099 14.5388 19.2189V19.7336C14.5123 20.2342 14.6571 20.729 14.9495 21.1362C15.0867 21.2976 15.2573 21.4272 15.4495 21.5161C15.6418 21.605 15.851 21.651 16.0628 21.651C16.2746 21.651 16.4839 21.605 16.6761 21.5161C16.8683 21.4272 17.039 21.2976 17.1761 21.1362C17.4617 20.7261 17.6024 20.2326 17.5761 19.7336V19.2002ZM22.5068 20.4002C22.4792 20.8574 22.2779 21.2867 21.9441 21.6002C21.5868 21.8907 21.1347 22.0389 20.6748 22.0162C20.3295 22.0255 19.9891 21.9327 19.6961 21.7496C19.4063 21.5571 19.1784 21.2848 19.0401 20.9656C18.8791 20.6012 18.7982 20.2066 18.8028 19.8082V19.1522C18.7953 18.749 18.8744 18.3489 19.0348 17.9789C19.1739 17.6519 19.4069 17.3735 19.7041 17.1789C20.0057 16.9953 20.3539 16.9027 20.7068 16.9122C20.9331 16.8928 21.161 16.9201 21.3763 16.9924C21.5916 17.0647 21.7898 17.1804 21.9585 17.3324C22.1273 17.4844 22.263 17.6695 22.3573 17.8761C22.4517 18.0827 22.5025 18.3065 22.5068 18.5336H22.0828C21.9788 17.6909 21.5175 17.2669 20.7068 17.2669C20.5016 17.2611 20.298 17.3039 20.1126 17.392C19.9271 17.4801 19.7652 17.6108 19.6401 17.7736C19.3498 18.1795 19.2077 18.6728 19.2375 19.1709V19.7789C19.2122 20.2683 19.3501 20.7523 19.6295 21.1549C19.7517 21.3211 19.9129 21.4548 20.0989 21.5441C20.2849 21.6333 20.49 21.6755 20.6961 21.6669C21.0562 21.6933 21.4126 21.5796 21.6908 21.3496C21.9345 21.0917 22.0807 20.7569 22.1041 20.4029L22.5068 20.4002Z" fill="white"/>
<path fill-rule="evenodd" clip-rule="evenodd" d="M6.39389 15.4907C6.39389 15.2339 6.60207 15.0257 6.85889 15.0257H25.8136C26.0704 15.0257 26.2786 15.2339 26.2786 15.4907C26.2786 15.7475 26.0704 15.9557 25.8136 15.9557H6.85889C6.60207 15.9557 6.39389 15.7475 6.39389 15.4907Z" fill="white"/>
<path d="M9.96283 24.8294C9.95101 24.7967 9.94383 24.7626 9.9415 24.728C9.90761 24.7652 9.86646 24.795 9.82059 24.8156C9.77473 24.8363 9.72512 24.8473 9.67483 24.848C9.59025 24.851 9.50757 24.8225 9.44283 24.768C9.41404 24.7427 9.39105 24.7115 9.3754 24.6766C9.35975 24.6416 9.35183 24.6037 9.35216 24.5654C9.34954 24.5197 9.35872 24.4741 9.3788 24.433C9.39888 24.3919 9.42919 24.3567 9.46683 24.3307C9.56205 24.2699 9.6741 24.241 9.78683 24.248H9.94683V24.1734C9.94819 24.1482 9.94414 24.123 9.93494 24.0996C9.92574 24.0761 9.9116 24.0549 9.8935 24.0374C9.87083 24.0205 9.84492 24.0084 9.81739 24.002C9.78986 23.9956 9.7613 23.9949 9.7335 24C9.68126 23.9979 9.62977 24.0129 9.58683 24.0427C9.56913 24.0544 9.55454 24.0702 9.54432 24.0888C9.53409 24.1074 9.52855 24.1281 9.52816 24.1494H9.36283C9.36242 24.0953 9.38027 24.0427 9.4135 24C9.45017 23.9542 9.49788 23.9184 9.55216 23.896C9.61253 23.869 9.67803 23.8554 9.74416 23.856C9.84046 23.8475 9.93625 23.8772 10.0108 23.9387C10.043 23.9674 10.0685 24.0028 10.0855 24.0424C10.1026 24.0821 10.1107 24.1249 10.1095 24.168V24.608C10.1063 24.6799 10.1181 24.7516 10.1442 24.8187L9.96283 24.8294ZM9.69616 24.704C9.74775 24.7041 9.7984 24.6902 9.84283 24.664C9.88522 24.6401 9.92026 24.6051 9.94416 24.5627V24.3654H9.8135C9.6135 24.3654 9.51216 24.424 9.51216 24.5414C9.51132 24.5641 9.51569 24.5867 9.52493 24.6075C9.53417 24.6283 9.54805 24.6467 9.5655 24.6614C9.60078 24.6902 9.64528 24.7053 9.69083 24.704H9.69616ZM10.3148 23.616C10.3143 23.5916 10.3229 23.5678 10.3388 23.5494C10.3588 23.5319 10.3843 23.5223 10.4108 23.5223C10.4373 23.5223 10.4629 23.5319 10.4828 23.5494C10.4988 23.5678 10.5074 23.5916 10.5068 23.616C10.5079 23.6405 10.4993 23.6645 10.4828 23.6827C10.4629 23.7001 10.4373 23.7097 10.4108 23.7097C10.3843 23.7097 10.3588 23.7001 10.3388 23.6827C10.3224 23.6645 10.3138 23.6405 10.3148 23.616ZM10.4908 24.8294H10.3282V23.872H10.4908V24.8294ZM11.0935 24.7147C11.1489 24.7154 11.2027 24.6965 11.2455 24.6614C11.2665 24.6458 11.2839 24.6257 11.2963 24.6027C11.3088 24.5797 11.316 24.5542 11.3175 24.528H11.4668C11.4622 24.5849 11.4418 24.6393 11.4082 24.6854C11.3722 24.7352 11.3246 24.7755 11.2695 24.8027C11.2126 24.832 11.1495 24.8476 11.0855 24.848C11.0271 24.8507 10.9687 24.8404 10.9148 24.8178C10.8608 24.7952 10.8126 24.7609 10.7735 24.7174C10.6961 24.615 10.6582 24.4881 10.6668 24.36V24.3307C10.6648 24.2453 10.6821 24.1605 10.7175 24.0827C10.7491 24.0137 10.8 23.9553 10.8642 23.9147C10.9324 23.8733 11.011 23.852 11.0908 23.8534C11.1887 23.8504 11.284 23.8848 11.3575 23.9494C11.3927 23.9811 11.4211 24.0197 11.4408 24.0628C11.4605 24.1059 11.4712 24.1526 11.4722 24.2H11.3148C11.3141 24.1713 11.3076 24.1431 11.2957 24.117C11.2837 24.0908 11.2667 24.0674 11.2455 24.048C11.2246 24.0279 11.2 24.0121 11.173 24.0016C11.146 23.991 11.1171 23.986 11.0882 23.9867C11.0512 23.9852 11.0145 23.9927 10.981 24.0085C10.9476 24.0242 10.9185 24.0479 10.8962 24.0774C10.8444 24.1562 10.82 24.2499 10.8268 24.344V24.3734C10.8188 24.4676 10.8432 24.5617 10.8962 24.64C10.9208 24.6672 10.9515 24.6881 10.9858 24.7011C11.0202 24.7141 11.057 24.7187 11.0935 24.7147ZM12.4215 24.36C12.4279 24.4858 12.3933 24.6103 12.3228 24.7147C12.2922 24.7566 12.2521 24.7905 12.2057 24.8137C12.1593 24.8369 12.108 24.8487 12.0562 24.848C12.0063 24.8493 11.9568 24.84 11.9108 24.8207C11.8648 24.8014 11.8235 24.7725 11.7895 24.736V25.1974H11.6268V23.864H11.7762V23.968C11.8088 23.9292 11.8497 23.898 11.8958 23.8768C11.9419 23.8556 11.9921 23.8449 12.0428 23.8454C12.0944 23.8446 12.1455 23.8561 12.1918 23.8788C12.2381 23.9015 12.2785 23.9348 12.3095 23.976C12.3816 24.0827 12.4163 24.2102 12.4082 24.3387L12.4215 24.36ZM12.2668 24.3414C12.2732 24.2473 12.2489 24.1537 12.1975 24.0747C12.1733 24.047 12.1426 24.0257 12.1082 24.0127C12.0738 23.9996 12.0367 23.9953 12.0002 24C11.9541 23.999 11.9086 24.0109 11.869 24.0345C11.8294 24.0581 11.7972 24.0923 11.7762 24.1334V24.5894C11.7974 24.6308 11.83 24.6653 11.8701 24.689C11.9103 24.7126 11.9563 24.7243 12.0028 24.7227C12.0392 24.7234 12.0752 24.7153 12.1077 24.6991C12.1402 24.6828 12.1683 24.6589 12.1895 24.6294C12.2455 24.5442 12.2727 24.4432 12.2668 24.3414ZM13.1788 24.8294C13.1642 24.7975 13.1561 24.763 13.1548 24.728C13.121 24.7653 13.0799 24.7952 13.034 24.8159C12.9881 24.8365 12.9385 24.8475 12.8882 24.848C12.8027 24.8514 12.7191 24.8229 12.6535 24.768C12.6247 24.7427 12.6017 24.7115 12.5861 24.6766C12.5704 24.6416 12.5625 24.6037 12.5628 24.5654C12.5602 24.5197 12.5694 24.4741 12.5895 24.433C12.6095 24.3919 12.6399 24.3567 12.6775 24.3307C12.7727 24.2699 12.8848 24.241 12.9975 24.248H13.1575V24.1734C13.1587 24.1484 13.1548 24.1235 13.1461 24.1001C13.1374 24.0768 13.1241 24.0554 13.1068 24.0374C13.0862 24.0192 13.0621 24.0053 13.036 23.9966C13.0099 23.9879 12.9823 23.9845 12.9548 23.9867C12.9026 23.9842 12.8509 23.9992 12.8082 24.0294C12.7901 24.0409 12.7751 24.0566 12.7645 24.0752C12.7538 24.0938 12.7477 24.1146 12.7468 24.136H12.5842C12.5849 24.0854 12.6028 24.0365 12.6348 23.9974C12.6705 23.9516 12.7173 23.9158 12.7708 23.8934C12.8312 23.8663 12.8967 23.8527 12.9628 23.8534C13.059 23.8459 13.1544 23.8755 13.2295 23.936C13.2608 23.9653 13.2855 24.0009 13.302 24.0404C13.3186 24.0799 13.3266 24.1225 13.3255 24.1654V24.6054C13.3236 24.6771 13.3354 24.7486 13.3602 24.816L13.1788 24.8294ZM12.9122 24.704C12.963 24.7047 13.013 24.6908 13.0562 24.664C13.0992 24.6409 13.1344 24.6057 13.1575 24.5627V24.3654H13.0295C12.8268 24.3654 12.7282 24.424 12.7282 24.5414C12.7268 24.5639 12.7307 24.5865 12.7394 24.6073C12.7482 24.6281 12.7617 24.6466 12.7788 24.6614C12.815 24.6904 12.8604 24.7055 12.9068 24.704H12.9122ZM13.5308 24.744C13.5301 24.7308 13.5321 24.7176 13.5367 24.7052C13.5412 24.6928 13.5483 24.6815 13.5575 24.672C13.5671 24.6622 13.5788 24.6547 13.5918 24.6501C13.6047 24.6455 13.6185 24.6439 13.6322 24.6454C13.6462 24.6442 13.6603 24.6459 13.6736 24.6505C13.687 24.6551 13.6992 24.6624 13.7095 24.672C13.7261 24.6923 13.7346 24.7179 13.7335 24.744C13.7342 24.7693 13.7257 24.7939 13.7095 24.8134C13.688 24.8317 13.6604 24.8412 13.6322 24.84C13.6186 24.8408 13.6049 24.8389 13.5921 24.8343C13.5793 24.8297 13.5675 24.8226 13.5575 24.8134C13.5485 24.8042 13.5416 24.7934 13.537 24.7815C13.5324 24.7695 13.5303 24.7568 13.5308 24.744ZM13.9175 24.3414C13.9131 24.2494 13.9314 24.1578 13.9708 24.0747C14.0045 24.0031 14.0582 23.9429 14.1255 23.9014C14.1939 23.8602 14.2724 23.839 14.3522 23.84C14.4132 23.8414 14.4732 23.8565 14.5277 23.8842C14.5822 23.9119 14.6297 23.9515 14.6668 24C14.7496 24.1013 14.7923 24.2294 14.7868 24.36C14.7898 24.4518 14.7715 24.5431 14.7335 24.6267C14.6983 24.6972 14.6449 24.757 14.5788 24.8C14.5096 24.8415 14.4302 24.8627 14.3495 24.8614C14.2903 24.8632 14.2314 24.852 14.177 24.8285C14.1226 24.805 14.074 24.7698 14.0348 24.7254C13.952 24.6241 13.9093 24.496 13.9148 24.3654L13.9175 24.3414ZM14.0802 24.36C14.0739 24.4548 14.1002 24.5489 14.1548 24.6267C14.1769 24.6582 14.2066 24.6838 14.241 24.701C14.2755 24.7182 14.3137 24.7266 14.3522 24.7254C14.391 24.7261 14.4294 24.7175 14.4642 24.7004C14.499 24.6832 14.5291 24.6579 14.5522 24.6267C14.6028 24.5472 14.628 24.4542 14.6242 24.36C14.6309 24.2652 14.6045 24.1709 14.5495 24.0934C14.5271 24.0622 14.4974 24.0369 14.463 24.0197C14.4286 24.0025 14.3906 23.9939 14.3522 23.9947C14.3138 23.9942 14.2758 24.0028 14.2415 24.02C14.2071 24.0372 14.1774 24.0623 14.1548 24.0934C14.1024 24.1721 14.0763 24.2655 14.0802 24.36ZM15.4135 24.0187C15.3869 24.0161 15.3601 24.0161 15.3335 24.0187C15.2867 24.0153 15.24 24.027 15.2002 24.0519C15.1604 24.0768 15.1296 24.1138 15.1122 24.1574V24.8374H14.9495V23.872H15.1095V23.9814C15.1332 23.9424 15.1665 23.9102 15.2062 23.8878C15.2458 23.8654 15.2906 23.8535 15.3362 23.8534C15.3608 23.8481 15.3862 23.8481 15.4108 23.8534L15.4135 24.0187ZM15.4802 24.3414C15.4767 24.2197 15.5122 24.1001 15.5815 24C15.6153 23.9601 15.6574 23.9281 15.7048 23.9061C15.7522 23.8841 15.8039 23.8727 15.8562 23.8727C15.9084 23.8727 15.9601 23.8841 16.0075 23.9061C16.055 23.9281 16.097 23.9601 16.1308 24V23.896H16.2802V24.8C16.2832 24.8538 16.2751 24.9077 16.2563 24.9582C16.2375 25.0087 16.2084 25.0547 16.1708 25.0934C16.0898 25.166 15.9836 25.2043 15.8748 25.2C15.8048 25.1993 15.7358 25.1839 15.6722 25.1547C15.6111 25.1299 15.5584 25.0883 15.5202 25.0347L15.6055 24.936C15.6361 24.9777 15.6763 25.0114 15.7228 25.0342C15.7692 25.0569 15.8205 25.0681 15.8722 25.0667C15.9064 25.0687 15.9406 25.0635 15.9728 25.0516C16.0049 25.0396 16.0342 25.0212 16.0588 24.9974C16.1058 24.9457 16.1307 24.8778 16.1282 24.808V24.7254C16.095 24.763 16.0539 24.7929 16.0077 24.8127C15.9616 24.8325 15.9117 24.8419 15.8615 24.84C15.8094 24.8404 15.758 24.8282 15.7116 24.8045C15.6652 24.7808 15.6251 24.7464 15.5948 24.704C15.5179 24.5989 15.4776 24.4715 15.4802 24.3414ZM15.6428 24.36C15.6362 24.4537 15.6595 24.5471 15.7095 24.6267C15.7304 24.6566 15.7584 24.6808 15.791 24.6971C15.8236 24.7134 15.8597 24.7213 15.8962 24.72C15.944 24.7214 15.9912 24.7088 16.032 24.6836C16.0727 24.6585 16.1052 24.622 16.1255 24.5787V24.1307C16.105 24.0882 16.0728 24.0526 16.0326 24.028C15.9924 24.0034 15.9459 23.9909 15.8988 23.992C15.8624 23.9905 15.8261 23.9983 15.7935 24.0146C15.7608 24.031 15.7329 24.0553 15.7122 24.0854C15.661 24.1674 15.6367 24.2635 15.6428 24.36ZM16.5335 24.9414H16.3922L16.9255 23.5387H17.0668L16.5335 24.9414ZM17.7522 24.576C17.7534 24.5558 17.7494 24.5356 17.7405 24.5173C17.7317 24.4991 17.7182 24.4835 17.7015 24.472C17.6483 24.4399 17.5895 24.4182 17.5282 24.408C17.4587 24.3968 17.3913 24.3752 17.3282 24.344C17.2855 24.3246 17.2487 24.2942 17.2215 24.256C17.1974 24.2198 17.1853 24.1769 17.1868 24.1334C17.1865 24.095 17.1953 24.0571 17.2124 24.0228C17.2296 23.9885 17.2546 23.9588 17.2855 23.936C17.3625 23.8785 17.456 23.8474 17.5522 23.8474C17.6483 23.8474 17.7418 23.8785 17.8188 23.936C17.851 23.9614 17.8768 23.9939 17.8944 24.0309C17.912 24.0679 17.9208 24.1084 17.9202 24.1494H17.7548C17.7549 24.1272 17.7499 24.1054 17.7402 24.0855C17.7305 24.0656 17.7163 24.0482 17.6988 24.0347C17.6581 24.0017 17.6072 23.9838 17.5548 23.984C17.5046 23.9811 17.4548 23.9952 17.4135 24.024C17.398 24.036 17.3854 24.0514 17.3766 24.0689C17.3678 24.0865 17.3631 24.1057 17.3628 24.1254C17.362 24.1434 17.3661 24.1613 17.3745 24.1772C17.3829 24.1931 17.3955 24.2065 17.4108 24.216C17.4646 24.2436 17.5221 24.2633 17.5815 24.2747C17.6496 24.2879 17.7159 24.3094 17.7788 24.3387C17.8232 24.3602 17.8623 24.3911 17.8935 24.4294C17.918 24.4694 17.93 24.5158 17.9282 24.5627C17.9288 24.6025 17.9199 24.6419 17.9023 24.6776C17.8847 24.7133 17.8588 24.7443 17.8268 24.768C17.7486 24.8219 17.6551 24.849 17.5602 24.8454C17.4821 24.8483 17.4044 24.8328 17.3335 24.8C17.2785 24.7739 17.2309 24.7345 17.1948 24.6854C17.1627 24.6393 17.1459 24.5842 17.1468 24.528H17.3095C17.31 24.5534 17.3163 24.5784 17.3278 24.601C17.3394 24.6236 17.3559 24.6434 17.3762 24.6587C17.4232 24.6931 17.4807 24.7101 17.5388 24.7067C17.5912 24.7092 17.6431 24.6962 17.6882 24.6694C17.7058 24.6605 17.721 24.6472 17.7322 24.6309C17.7433 24.6146 17.7502 24.5957 17.7522 24.576ZM18.0402 24.3414C18.0367 24.2492 18.0559 24.1576 18.0962 24.0747C18.1298 24.0031 18.1836 23.9429 18.2508 23.9014C18.3183 23.8603 18.3959 23.8391 18.4748 23.84C18.5345 23.8377 18.5939 23.8488 18.6488 23.8723C18.7037 23.8958 18.7527 23.9312 18.7922 23.976C18.8749 24.0773 18.9177 24.2054 18.9122 24.336C18.9166 24.4279 18.8982 24.5195 18.8588 24.6027C18.8255 24.6736 18.7728 24.7337 18.7068 24.776C18.6374 24.8171 18.5581 24.8383 18.4775 24.8374C18.4179 24.8393 18.3586 24.8281 18.3037 24.8046C18.2489 24.7811 18.1999 24.7458 18.1602 24.7014C18.0774 24.6001 18.0347 24.472 18.0402 24.3414ZM18.2055 24.36C18.1978 24.455 18.2243 24.5495 18.2802 24.6267C18.3021 24.6584 18.3317 24.6841 18.3662 24.7013C18.4007 24.7186 18.439 24.7268 18.4775 24.7254C18.5159 24.7261 18.554 24.7175 18.5883 24.7003C18.6227 24.6832 18.6524 24.6579 18.6748 24.6267C18.7276 24.5481 18.7538 24.4546 18.7495 24.36C18.7562 24.2652 18.7298 24.1709 18.6748 24.0934C18.6517 24.0623 18.6215 24.0371 18.5867 24.02C18.5519 24.0028 18.5136 23.9942 18.4748 23.9947C18.4368 23.9941 18.3992 24.0028 18.3653 24.02C18.3314 24.0372 18.3022 24.0624 18.2802 24.0934C18.2267 24.1716 18.2004 24.2653 18.2055 24.36ZM19.4668 24.7147C19.5222 24.7154 19.576 24.6965 19.6188 24.6614C19.6399 24.6458 19.6572 24.6257 19.6697 24.6027C19.6821 24.5797 19.6893 24.5542 19.6908 24.528H19.8482C19.8435 24.5849 19.8232 24.6393 19.7895 24.6854C19.7536 24.7352 19.7059 24.7755 19.6508 24.8027C19.5939 24.832 19.5309 24.8476 19.4668 24.848C19.4084 24.8507 19.3501 24.8404 19.2961 24.8178C19.2422 24.7952 19.1939 24.7609 19.1548 24.7174C19.0746 24.6161 19.0338 24.4891 19.0402 24.36V24.3307C19.0381 24.2453 19.0554 24.1605 19.0908 24.0827C19.1224 24.0137 19.1734 23.9553 19.2375 23.9147C19.3058 23.8733 19.3843 23.852 19.4642 23.8534C19.562 23.8504 19.6573 23.8848 19.7308 23.9494C19.7661 23.9811 19.7944 24.0197 19.8141 24.0628C19.8339 24.1059 19.8445 24.1526 19.8455 24.2H19.6882C19.6874 24.1713 19.6809 24.1431 19.669 24.117C19.6571 24.0908 19.64 24.0674 19.6188 24.048C19.576 24.0135 19.5217 23.9963 19.4668 24C19.4299 23.9985 19.3931 24.006 19.3597 24.0218C19.3263 24.0376 19.2972 24.0612 19.2748 24.0907C19.223 24.1695 19.1987 24.2633 19.2055 24.3574V24.3867C19.1974 24.4809 19.2219 24.575 19.2748 24.6534C19.3002 24.6774 19.3306 24.6953 19.3638 24.706C19.3971 24.7166 19.4323 24.7196 19.4668 24.7147ZM20.6535 24.3974H20.8322V24.5334H20.6535V24.832H20.4882V24.5334H19.9015V24.4374L20.4775 23.5414H20.6535V24.3974ZM20.0882 24.3974H20.4882V23.7627L20.4695 23.8L20.0882 24.3974ZM21.5095 24.576C21.5108 24.5558 21.5068 24.5356 21.4979 24.5173C21.489 24.4991 21.4755 24.4835 21.4588 24.472C21.4056 24.4399 21.3468 24.4182 21.2855 24.408C21.2169 24.3968 21.1503 24.3752 21.0882 24.344C21.045 24.3242 21.0074 24.294 20.9788 24.256C20.9559 24.2192 20.9439 24.1767 20.9442 24.1334C20.9444 24.0948 20.9536 24.0569 20.9713 24.0226C20.9889 23.9883 21.0143 23.9586 21.0455 23.936C21.1205 23.8753 21.216 23.8457 21.3122 23.8534C21.4086 23.8472 21.5038 23.8777 21.5788 23.9387C21.611 23.9641 21.6368 23.9965 21.6544 24.0335C21.672 24.0705 21.6808 24.1111 21.6802 24.152H21.5175C21.5171 24.1297 21.5116 24.1078 21.5014 24.0879C21.4913 24.068 21.4767 24.0507 21.4588 24.0374C21.4176 24.0078 21.3682 23.9919 21.3175 23.9919C21.2668 23.9919 21.2174 24.0078 21.1762 24.0374C21.1602 24.0489 21.1473 24.0642 21.1384 24.0818C21.1296 24.0995 21.1252 24.119 21.1255 24.1387C21.1249 24.1564 21.1288 24.1739 21.1367 24.1897C21.1446 24.2056 21.1563 24.2192 21.1708 24.2294C21.2232 24.2489 21.2779 24.2614 21.3335 24.2667C21.4026 24.2796 21.4698 24.3011 21.5335 24.3307C21.5776 24.3515 21.616 24.3826 21.6455 24.4214C21.6709 24.4611 21.6839 24.5075 21.6828 24.5547C21.6836 24.5948 21.6745 24.6345 21.6564 24.6703C21.6383 24.7061 21.6116 24.7369 21.5788 24.76C21.5006 24.8139 21.4071 24.841 21.3122 24.8374C21.2425 24.8388 21.1734 24.8252 21.1095 24.7974C21.0541 24.7719 21.0062 24.7324 20.9708 24.6827C20.9377 24.6369 20.92 24.5818 20.9202 24.5254H21.0668C21.0684 24.5505 21.0751 24.5751 21.0866 24.5976C21.098 24.6201 21.114 24.64 21.1335 24.656C21.1811 24.6893 21.2382 24.7061 21.2962 24.704C21.3485 24.7065 21.4005 24.6935 21.4455 24.6667C21.4628 24.658 21.4777 24.6452 21.4889 24.6294C21.5001 24.6136 21.5071 24.5952 21.5095 24.576ZM21.8002 24.3414C21.7958 24.2494 21.8141 24.1578 21.8535 24.0747C21.8872 24.0031 21.9409 23.9429 22.0082 23.9014C22.0766 23.8602 22.155 23.839 22.2348 23.84C22.2941 23.8378 22.3531 23.8488 22.4076 23.8723C22.462 23.8959 22.5105 23.9313 22.5495 23.976C22.6365 24.08 22.6787 24.2143 22.6668 24.3494C22.6698 24.4412 22.6515 24.5324 22.6135 24.616C22.5783 24.6865 22.5249 24.7464 22.4588 24.7894C22.3896 24.8308 22.3102 24.8521 22.2295 24.8507C22.1703 24.8526 22.1114 24.8414 22.057 24.8178C22.0026 24.7943 21.954 24.7591 21.9148 24.7147C21.832 24.6135 21.7893 24.4853 21.7948 24.3547L21.8002 24.3414ZM21.9628 24.36C21.9565 24.4548 21.9829 24.5489 22.0375 24.6267C22.0596 24.6582 22.0892 24.6838 22.1237 24.701C22.1581 24.7182 22.1963 24.7266 22.2348 24.7254C22.2736 24.7261 22.312 24.7175 22.3468 24.7004C22.3816 24.6832 22.4118 24.6579 22.4348 24.6267C22.4855 24.5472 22.5106 24.4542 22.5068 24.36C22.5136 24.2652 22.4872 24.1709 22.4322 24.0934C22.4097 24.0622 22.38 24.0369 22.3457 24.0197C22.3113 24.0025 22.2733 23.9939 22.2348 23.9947C22.1964 23.9942 22.1585 24.0028 22.1242 24.02C22.0898 24.0372 22.0601 24.0623 22.0375 24.0934C21.9851 24.1721 21.9589 24.2655 21.9628 24.36Z" fill="white"/>
<path d="M29.5522 28.6055V28.7175H29.3335V29.2748H29.2002V28.7175H28.9868V28.6055H29.5522ZM30.2721 29.2748L30.2482 28.8801V28.6935C30.2295 28.7521 30.2108 28.8321 30.1895 28.8935L30.0695 29.2641H29.9335L29.8135 28.8828C29.8002 28.8321 29.7815 28.7521 29.7655 28.6935V28.8801L29.7415 29.2748H29.6002L29.6508 28.6055H29.8482L29.9655 28.9335C29.9655 28.9841 29.9922 29.0321 30.0082 29.1015C30.0268 29.0401 30.0402 28.9841 30.0562 28.9335L30.1708 28.6055H30.3628L30.4135 29.2748H30.2721Z" fill="#231F20"/>
<defs>
<linearGradient id="paint0_linear_0_492" x1="32" y1="16" x2="0" y2="16" gradientUnits="userSpaceOnUse">
<stop stop-color="#2161AD"/>
<stop offset="0.18" stop-color="#206AB3"/>
<stop offset="0.47" stop-color="#1C82C5"/>
<stop offset="0.84" stop-color="#17AAE1"/>
<stop offset="1" stop-color="#14BDEF"/>
</linearGradient>
<linearGradient id="paint1_linear_0_492" x1="3.58398" y1="16" x2="28.416" y2="16" gradientUnits="userSpaceOnUse">
<stop stop-color="#2161AD"/>
<stop offset="0.18" stop-color="#206AB3"/>
<stop offset="0.47" stop-color="#1C82C5"/>
<stop offset="0.84" stop-color="#17AAE1"/>
<stop offset="1" stop-color="#14BDEF"/>
</linearGradient>
</defs>
</svg>
