<svg width="26" height="23" viewBox="0 0 26 23" fill="none" xmlns="http://www.w3.org/2000/svg">
<path d="M0.590827 18.397C0.611237 18.3765 0.6268 18.3517 0.636374 18.3244C0.645948 18.2971 0.649289 18.268 0.646153 18.2393C0.627616 18.1516 0.592906 18.0681 0.543799 17.9931C0.49232 17.9134 0.454893 17.8254 0.433147 17.733C0.426733 17.6917 0.429774 17.6495 0.442043 17.6095C0.454312 17.5695 0.475489 17.5328 0.50398 17.5022C0.532472 17.4716 0.567536 17.4478 0.606536 17.4327C0.645536 17.4176 0.687456 17.4115 0.729142 17.4149C0.81226 17.4314 0.88995 17.4684 0.955164 17.5225C1.02038 17.5766 1.07105 17.6461 1.10259 17.7247C1.12507 17.7839 1.12987 17.8483 1.11643 17.9101C1.10422 17.9708 1.0744 18.0266 1.03067 18.0705L0.958746 18.0041C0.984697 17.9794 1.00485 17.9492 1.01776 17.9157C1.03067 17.8822 1.03603 17.8463 1.03344 17.8105C1.02557 17.7322 0.987937 17.6599 0.928316 17.6086C0.877561 17.554 0.810666 17.5172 0.737441 17.5034C0.707545 17.4986 0.67691 17.5014 0.648377 17.5115C0.619845 17.5217 0.59434 17.5389 0.574229 17.5615C0.55421 17.5804 0.539181 17.6039 0.53049 17.6299C0.521799 17.656 0.519719 17.6838 0.524435 17.7109C0.540886 17.7927 0.57281 17.8707 0.61849 17.9405C0.661484 18.0116 0.697609 18.0866 0.726376 18.1646C0.739958 18.2181 0.739958 18.2742 0.726376 18.3278C0.716697 18.3798 0.690505 18.4274 0.651685 18.4633C0.622852 18.4944 0.586859 18.518 0.546841 18.532C0.506823 18.5459 0.463993 18.5499 0.422081 18.5436C0.321427 18.5265 0.229128 18.4769 0.159282 18.4025C0.103631 18.3503 0.0593653 18.2872 0.0292655 18.2171C0.00246024 18.1554 -0.00617583 18.0872 0.00436917 18.0207C0.0153884 17.9588 0.0453491 17.9018 0.0901246 17.8575L0.159282 17.9239C0.132758 17.9497 0.112869 17.9816 0.101309 18.0167C0.0897487 18.0519 0.0868609 18.0893 0.092891 18.1259C0.108918 18.2105 0.152723 18.2874 0.217375 18.3444C0.26892 18.4013 0.338082 18.4393 0.413783 18.4523C0.445563 18.4589 0.478498 18.4573 0.509477 18.4476C0.540456 18.4379 0.568454 18.4205 0.590827 18.397ZM1.63096 18.9972C1.57049 19.0712 1.49508 19.1315 1.40965 19.1743C1.33541 19.2119 1.25155 19.2264 1.16899 19.2158C1.08682 19.204 1.0099 19.1684 0.947681 19.1134C0.899693 19.0728 0.861559 19.0218 0.836161 18.9643C0.810762 18.9068 0.798762 18.8443 0.801066 18.7815C0.806913 18.6412 0.862859 18.5078 0.958746 18.4053L1.03344 18.314C1.09408 18.2402 1.16945 18.1799 1.25474 18.1369C1.33001 18.0994 1.41471 18.0849 1.49818 18.0954C1.58016 18.1079 1.65692 18.1434 1.71948 18.1978C1.78379 18.2495 1.83182 18.3186 1.8578 18.397C1.87994 18.4747 1.87994 18.5571 1.8578 18.6349C1.83235 18.7252 1.78803 18.8091 1.72778 18.8811L1.63096 18.9972ZM1.63096 18.8396C1.71023 18.7545 1.75889 18.6455 1.76927 18.5297C1.76867 18.481 1.75759 18.4329 1.73678 18.3888C1.71597 18.3447 1.68592 18.3055 1.64867 18.2741C1.61141 18.2426 1.56782 18.2195 1.52086 18.2063C1.47389 18.1932 1.42465 18.1902 1.37646 18.1978C1.2649 18.229 1.16732 18.2973 1.09983 18.3914L1.02237 18.4827C0.943933 18.568 0.896227 18.677 0.886822 18.7925C0.885742 18.8419 0.896179 18.8909 0.917306 18.9355C0.938433 18.9802 0.969669 19.0193 1.00854 19.0498C1.04535 19.0834 1.08967 19.1077 1.13779 19.1207C1.18591 19.1337 1.23645 19.135 1.28517 19.1245C1.39644 19.0927 1.49385 19.0245 1.5618 18.9309L1.63096 18.8396ZM2.41659 19.758C2.38414 19.7983 2.344 19.8317 2.2985 19.8564C2.25299 19.881 2.20304 19.8964 2.15155 19.9015C2.10006 19.9067 2.04806 19.9015 1.99857 19.8864C1.94909 19.8712 1.90312 19.8464 1.86333 19.8133C1.79753 19.767 1.74659 19.7026 1.71671 19.628C1.68888 19.5528 1.68312 19.4712 1.70012 19.3928C1.71925 19.3025 1.75797 19.2176 1.81354 19.1439L1.90206 19.0221C1.95502 18.9449 2.02387 18.8798 2.104 18.8313C2.1743 18.7903 2.25515 18.771 2.33637 18.7759C2.41871 18.7796 2.49792 18.8086 2.56321 18.8589C2.60882 18.8861 2.6483 18.9225 2.67915 18.9657C2.71001 19.009 2.73158 19.0581 2.74249 19.1101C2.75341 19.1621 2.75344 19.2158 2.74258 19.2678C2.73172 19.3197 2.7102 19.3689 2.67939 19.4122L2.60193 19.3541C2.62566 19.3211 2.64225 19.2835 2.65066 19.2437C2.65908 19.2039 2.65912 19.1628 2.6508 19.123C2.64247 19.0832 2.62596 19.0456 2.60231 19.0125C2.57866 18.9794 2.54838 18.9516 2.51341 18.9309C2.47473 18.9009 2.4295 18.8805 2.38141 18.8713C2.33333 18.8622 2.28376 18.8646 2.23678 18.8783C2.12277 18.9138 2.02485 18.9882 1.96015 19.0885L1.87716 19.202C1.80619 19.2899 1.76631 19.3988 1.76374 19.5118C1.76446 19.5594 1.77665 19.6061 1.79928 19.648C1.82192 19.6899 1.85433 19.7257 1.89376 19.7524C1.95834 19.805 2.0402 19.8317 2.12336 19.8271C2.20386 19.8121 2.2764 19.769 2.32807 19.7054L2.41659 19.758ZM2.826 20.4413L3.22989 19.7773L3.10817 19.7027L3.14966 19.6363L3.26861 19.711L3.32394 19.6224C3.34029 19.59 3.36287 19.561 3.3904 19.5373C3.41793 19.5136 3.44987 19.4955 3.48439 19.4841C3.51776 19.4753 3.55265 19.474 3.5866 19.4802C3.62054 19.4864 3.6527 19.5 3.68079 19.5201C3.71027 19.5364 3.73652 19.558 3.75825 19.5837L3.71399 19.6473C3.69274 19.6267 3.66958 19.6082 3.64483 19.592C3.62583 19.5796 3.60438 19.5715 3.58194 19.5681C3.5595 19.5648 3.53661 19.5663 3.51482 19.5726C3.46816 19.5891 3.42956 19.6227 3.40693 19.6667L3.3516 19.758L3.52588 19.8631L3.48439 19.9295L3.31011 19.8244L2.90899 20.4911L2.826 20.4413ZM3.42076 20.2863C3.45596 20.2179 3.50721 20.1591 3.57014 20.1148C3.62533 20.0727 3.69171 20.0476 3.76102 20.0429C3.83065 20.038 3.90013 20.0544 3.96019 20.0899C4.00725 20.1124 4.04861 20.1452 4.08119 20.186C4.11376 20.2267 4.1367 20.2742 4.1483 20.3251C4.17183 20.4382 4.15103 20.556 4.09021 20.6543V20.6736C4.05501 20.742 4.00375 20.8009 3.94083 20.8451C3.88633 20.8886 3.81955 20.9137 3.74995 20.9171C3.68035 20.9217 3.61097 20.9053 3.55078 20.87C3.50407 20.8471 3.463 20.8141 3.43048 20.7735C3.39797 20.7328 3.37481 20.6855 3.36267 20.6349C3.33926 20.5209 3.36003 20.4022 3.42076 20.3029V20.2863ZM3.49269 20.3555C3.44513 20.4333 3.42743 20.5257 3.44289 20.6155C3.45183 20.6537 3.46879 20.6895 3.49263 20.7207C3.51648 20.7518 3.54666 20.7775 3.58119 20.7961C3.61572 20.8146 3.6538 20.8257 3.69291 20.8284C3.73202 20.8311 3.77127 20.8255 3.80804 20.8119C3.89271 20.7726 3.96114 20.7052 4.00169 20.6211V20.6045C4.03252 20.5511 4.0514 20.4916 4.05701 20.4302C4.06039 20.375 4.04993 20.3199 4.02658 20.2697C4.00112 20.223 3.9627 20.1846 3.91593 20.1591C3.88027 20.1413 3.84097 20.1321 3.80113 20.1321C3.76128 20.1321 3.72198 20.1413 3.68633 20.1591C3.60166 20.1984 3.53323 20.2659 3.49269 20.35V20.3555ZM4.78455 20.6072L4.72923 20.574C4.6813 20.5501 4.62665 20.5433 4.57431 20.5547C4.51896 20.5697 4.46965 20.6016 4.43323 20.646L4.1815 21.1771L4.09574 21.1384L4.46366 20.3638L4.54665 20.4053L4.48856 20.527C4.52661 20.4955 4.57293 20.4756 4.62199 20.4697C4.67105 20.4638 4.72076 20.4722 4.76519 20.4938C4.78402 20.5024 4.80095 20.5146 4.81498 20.5298L4.78455 20.6072ZM5.7334 21.5229C5.7457 21.497 5.75208 21.4686 5.75208 21.4399C5.75208 21.4112 5.7457 21.3828 5.7334 21.3569C5.68079 21.2837 5.61514 21.2209 5.53976 21.1716C5.46193 21.1169 5.3929 21.0507 5.33505 20.9752C5.30963 20.94 5.29352 20.899 5.2882 20.856C5.28288 20.8129 5.28853 20.7692 5.30462 20.729C5.31992 20.6902 5.34379 20.6553 5.37445 20.6271C5.40511 20.5988 5.44176 20.5778 5.48166 20.5657C5.57397 20.5448 5.67049 20.5525 5.75829 20.5879C5.82467 20.6127 5.88502 20.6514 5.93534 20.7013C5.979 20.7467 6.00873 20.8037 6.02099 20.8654C6.03324 20.9272 6.02752 20.9912 6.0045 21.0498L5.91321 21.0167C5.92831 20.9842 5.93613 20.9487 5.93613 20.9129C5.93613 20.8771 5.92831 20.8417 5.91321 20.8092C5.87421 20.7408 5.81106 20.6895 5.73616 20.6653C5.66837 20.6351 5.59247 20.6283 5.52039 20.646C5.49075 20.653 5.46332 20.6672 5.44062 20.6875C5.41791 20.7078 5.40064 20.7335 5.39037 20.7622C5.38069 20.7879 5.37715 20.8156 5.38004 20.843C5.38292 20.8703 5.39214 20.8966 5.40697 20.9198C5.45343 20.9877 5.51261 21.046 5.58125 21.0913C5.65063 21.1386 5.71382 21.1944 5.76936 21.2573C5.80488 21.299 5.83042 21.3482 5.84405 21.4012C5.85347 21.4533 5.84771 21.5071 5.82745 21.5561C5.81407 21.5968 5.79053 21.6333 5.75907 21.6624C5.72761 21.6914 5.68925 21.712 5.64764 21.7221C5.54889 21.7462 5.44498 21.7374 5.35165 21.6972C5.27964 21.6699 5.2138 21.6285 5.158 21.5754C5.10872 21.5304 5.07404 21.4716 5.05842 21.4067C5.03914 21.3464 5.03914 21.2816 5.05842 21.2214L5.14971 21.2546C5.13589 21.2889 5.13019 21.3261 5.13307 21.363C5.13595 21.3999 5.14732 21.4357 5.1663 21.4676C5.21501 21.5391 5.286 21.5926 5.36824 21.6197C5.43805 21.6494 5.51524 21.6571 5.58955 21.6418C5.6217 21.636 5.65182 21.622 5.677 21.6011C5.70219 21.5803 5.72161 21.5534 5.7334 21.5229ZM6.25623 22.007C6.18983 21.9866 6.1298 21.9495 6.08195 21.8991C6.03764 21.8459 6.00807 21.782 5.9962 21.7138C5.98538 21.6397 5.99105 21.5641 6.01279 21.4925V21.462C6.03421 21.3876 6.07309 21.3193 6.12621 21.2629C6.17296 21.2125 6.2321 21.1753 6.29772 21.155C6.36081 21.1356 6.42828 21.1356 6.49137 21.155C6.53674 21.1669 6.57879 21.189 6.61428 21.2197C6.64976 21.2504 6.67774 21.2888 6.69607 21.332C6.73228 21.4302 6.73228 21.5381 6.69607 21.6363L6.68224 21.6861L6.09855 21.5035V21.5229C6.06647 21.6047 6.06647 21.6956 6.09855 21.7774C6.11428 21.814 6.13775 21.8469 6.16735 21.8736C6.19696 21.9004 6.23199 21.9204 6.27006 21.9323C6.31462 21.9429 6.36105 21.9429 6.40561 21.9323C6.45141 21.9245 6.49488 21.9065 6.53286 21.8797L6.57712 21.9406C6.53342 21.9776 6.48116 22.003 6.42512 22.0146C6.36907 22.0262 6.31101 22.0236 6.25623 22.007ZM6.47753 21.2324C6.44564 21.2215 6.41171 21.2178 6.37821 21.2216C6.34472 21.2255 6.3125 21.2367 6.28389 21.2546C6.21794 21.2958 6.16665 21.3568 6.13728 21.4288L6.62691 21.581C6.65214 21.5132 6.65214 21.4385 6.62691 21.3707C6.6149 21.3374 6.59507 21.3075 6.56907 21.2834C6.54308 21.2593 6.51169 21.2418 6.47753 21.2324ZM7.35445 21.4925L7.29636 21.4703C7.24537 21.4522 7.18967 21.4522 7.13868 21.4703C7.08703 21.4955 7.04449 21.5361 7.01696 21.5865L6.87035 22.1564L6.77906 22.1315L6.99207 21.3016L7.08336 21.3237L7.05016 21.4565C7.08157 21.4151 7.12512 21.3846 7.17472 21.3693C7.22433 21.3539 7.2775 21.3544 7.32679 21.3707C7.34779 21.3745 7.36765 21.383 7.38488 21.3956L7.35445 21.4925ZM7.64215 22.2145L8.04603 21.5478L8.14009 21.5671L7.65322 22.3389L7.57852 22.3251L7.44021 21.4205L7.53426 21.4399L7.64215 22.2145ZM8.24797 22.4634L8.15668 22.4468L8.29777 21.6169L8.39182 21.6335L8.24797 22.4634ZM8.32266 21.3569C8.32544 21.3404 8.33433 21.3256 8.34756 21.3154C8.36236 21.3056 8.3804 21.3018 8.39791 21.3049C8.41543 21.308 8.43108 21.3177 8.44161 21.332C8.44507 21.3394 8.44686 21.3474 8.44686 21.3555C8.44686 21.3637 8.44507 21.3717 8.44161 21.379C8.43883 21.3955 8.42994 21.4103 8.41672 21.4205C8.39969 21.4264 8.38118 21.4264 8.36416 21.4205C8.35581 21.4198 8.34773 21.4172 8.34054 21.4129C8.33335 21.4085 8.32724 21.4027 8.32266 21.3956C8.31823 21.3831 8.31823 21.3694 8.32266 21.3569ZM8.85656 22.4856C8.91586 22.4951 8.97661 22.4833 9.02807 22.4524C9.05149 22.4372 9.07148 22.4173 9.08673 22.394C9.10197 22.3706 9.11215 22.3443 9.11659 22.3168H9.20788C9.20014 22.3677 9.17696 22.415 9.14149 22.4524C9.10547 22.492 9.05969 22.5216 9.00871 22.5381C8.95603 22.5548 8.90046 22.5605 8.8455 22.5547C8.79534 22.5505 8.74681 22.5349 8.70365 22.509C8.66049 22.4831 8.62384 22.4476 8.59653 22.4053C8.54661 22.3122 8.52909 22.2052 8.54673 22.101V22.0734C8.55589 21.9973 8.58036 21.9239 8.61866 21.8576C8.65317 21.7997 8.70424 21.7534 8.76527 21.7248C8.82639 21.6958 8.89492 21.6862 8.96168 21.6972C9.0038 21.6991 9.04507 21.7098 9.0829 21.7284C9.12073 21.747 9.15432 21.7733 9.18157 21.8055C9.20882 21.8376 9.22915 21.8751 9.24129 21.9155C9.25343 21.9559 9.25713 21.9983 9.25214 22.0402H9.16085C9.16459 22.0097 9.16211 21.9788 9.15355 21.9493C9.14499 21.9198 9.13053 21.8924 9.11106 21.8687C9.07059 21.8229 9.01422 21.7942 8.95338 21.7885C8.91558 21.7817 8.87672 21.7843 8.84011 21.7958C8.8035 21.8074 8.77023 21.8276 8.74314 21.8548C8.6823 21.9242 8.64629 22.0118 8.64079 22.1038V22.101C8.61937 22.1949 8.63315 22.2933 8.67952 22.3777C8.69882 22.408 8.72481 22.4335 8.75551 22.4522C8.7862 22.4709 8.82077 22.4823 8.85656 22.4856ZM9.73348 22.6543C9.66358 22.6529 9.59587 22.6297 9.53984 22.5879C9.48239 22.5495 9.43801 22.4945 9.41259 22.4302C9.38442 22.361 9.37304 22.2861 9.37939 22.2117V22.1785C9.38279 22.102 9.4036 22.0272 9.44025 21.96C9.47402 21.899 9.52374 21.8483 9.5841 21.8133C9.6409 21.7799 9.70648 21.7645 9.77221 21.7691C9.81909 21.7705 9.86507 21.7823 9.90673 21.8039C9.94839 21.8254 9.98467 21.8561 10.0129 21.8936C10.0723 21.98 10.097 22.0857 10.082 22.1896V22.2421L9.47345 22.2006V22.2172C9.46296 22.3057 9.48672 22.3947 9.53984 22.4662C9.56358 22.4981 9.5939 22.5244 9.62875 22.5435C9.6636 22.5626 9.70215 22.574 9.74178 22.5768C9.78785 22.5808 9.8342 22.5742 9.87733 22.5575C9.91992 22.5397 9.95779 22.5122 9.98798 22.4773L10.0433 22.5271C10.0072 22.5734 9.95963 22.6095 9.90529 22.6318C9.85095 22.6541 9.79173 22.6619 9.73348 22.6543ZM9.76944 21.8493C9.73559 21.8463 9.70149 21.8507 9.66949 21.8622C9.63749 21.8736 9.60836 21.8919 9.5841 21.9157C9.5297 21.9718 9.49395 22.0433 9.48175 22.1204L9.99351 22.1536C10.0012 22.08 9.98146 22.0062 9.93819 21.9461C9.91959 21.9175 9.89475 21.8934 9.86553 21.8756C9.83631 21.8579 9.80346 21.847 9.76944 21.8438V21.8493ZM11.5592 22.1398C11.563 22.2345 11.546 22.3289 11.5095 22.4164C11.4801 22.482 11.435 22.5393 11.3782 22.5833C11.3214 22.6273 11.2546 22.6567 11.1837 22.6687C11.1129 22.6807 11.0402 22.6751 10.972 22.6523C10.9038 22.6296 10.8424 22.5903 10.793 22.5381C10.7045 22.4287 10.6575 22.2915 10.6602 22.1508V22.0319C10.6563 21.9371 10.6733 21.8427 10.71 21.7553C10.7424 21.6782 10.7962 21.612 10.8649 21.5644C10.9342 21.5197 11.0148 21.4957 11.0973 21.4952C11.1791 21.4906 11.2605 21.5106 11.3309 21.5524C11.4014 21.5943 11.4578 21.6563 11.4929 21.7304C11.5348 21.8165 11.5566 21.9111 11.5565 22.007L11.5592 22.1398ZM11.4569 22.0181C11.4614 21.902 11.4263 21.7879 11.3573 21.6944C11.3254 21.6575 11.2859 21.6279 11.2415 21.6076C11.1971 21.5873 11.1488 21.5768 11.1 21.5768C11.0512 21.5768 11.003 21.5873 10.9586 21.6076C10.9142 21.6279 10.8747 21.6575 10.8428 21.6944C10.7765 21.7918 10.7453 21.9089 10.7542 22.0264V22.1453C10.7524 22.2619 10.7894 22.3757 10.8594 22.469C10.8904 22.5074 10.9302 22.5378 10.9755 22.5575C11.0208 22.5772 11.0701 22.5858 11.1194 22.5824C11.1686 22.5831 11.2173 22.5723 11.2616 22.5506C11.3058 22.529 11.3443 22.4972 11.3739 22.4579C11.4382 22.3598 11.4675 22.2428 11.4569 22.1259V22.0181ZM12.1678 21.8244C12.1457 21.823 12.1236 21.823 12.1014 21.8244C12.048 21.8277 11.9972 21.8492 11.9576 21.8853C11.9169 21.9258 11.8898 21.978 11.8801 22.0347L11.9272 22.6211H11.8331L11.7667 21.7691H11.858V21.9046C11.8738 21.8563 11.904 21.814 11.9445 21.7833C11.9851 21.7526 12.034 21.7351 12.0848 21.7331C12.1058 21.7285 12.1275 21.7285 12.1485 21.7331L12.1678 21.8244ZM12.3172 22.1564C12.2969 22.0451 12.3144 21.9301 12.367 21.8299C12.3885 21.788 12.4204 21.7523 12.4596 21.7261C12.4989 21.7 12.5441 21.6843 12.5911 21.6806C12.6424 21.6723 12.6949 21.6776 12.7435 21.6961C12.792 21.7145 12.8349 21.7454 12.8677 21.7857V21.6612H12.9562L13.0641 22.4911C13.0733 22.5388 13.0729 22.5878 13.0629 22.6353C13.0529 22.6828 13.0336 22.7278 13.006 22.7677C12.9778 22.8041 12.9423 22.8342 12.9018 22.8561C12.8614 22.878 12.8168 22.8912 12.7709 22.895C12.7123 22.9035 12.6525 22.8979 12.5966 22.8784C12.5428 22.8613 12.4943 22.8309 12.4555 22.7899L12.4998 22.7262C12.5326 22.7597 12.5725 22.7853 12.6166 22.8011C12.6606 22.8169 12.7077 22.8225 12.7543 22.8175C12.7882 22.8146 12.8212 22.8047 12.8512 22.7886C12.8812 22.7724 12.9075 22.7502 12.9286 22.7235C12.9679 22.664 12.9828 22.5917 12.9701 22.5215V22.4164C12.9462 22.4618 12.9109 22.5001 12.8678 22.5278C12.8246 22.5554 12.775 22.5714 12.7239 22.5741C12.6781 22.5821 12.631 22.5784 12.587 22.5634C12.543 22.5484 12.5035 22.5226 12.4721 22.4883C12.3961 22.4031 12.3504 22.2952 12.3421 22.1813L12.3172 22.1564ZM12.414 22.1564C12.4217 22.2474 12.4564 22.3341 12.5136 22.4053C12.5379 22.4325 12.5686 22.4531 12.6029 22.4652C12.6373 22.4773 12.6741 22.4805 12.71 22.4745C12.762 22.4706 12.8114 22.4506 12.8515 22.4174C12.8917 22.3843 12.9205 22.3394 12.9341 22.2892L12.8843 21.8936C12.8588 21.8468 12.8204 21.8084 12.7737 21.7829C12.7262 21.7577 12.6717 21.749 12.6187 21.758C12.5824 21.7615 12.5474 21.7739 12.517 21.7942C12.4866 21.8145 12.4617 21.842 12.4445 21.8742C12.4082 21.9646 12.3995 22.0638 12.4196 22.1591L12.414 22.1564ZM13.8774 22.35C13.8591 22.314 13.8451 22.2759 13.8359 22.2366C13.8119 22.2855 13.7757 22.3274 13.7308 22.3583C13.6847 22.3915 13.6318 22.4142 13.5759 22.4247C13.5054 22.4422 13.4309 22.4312 13.3684 22.3943C13.3378 22.3755 13.3118 22.35 13.2924 22.3198C13.2731 22.2896 13.2608 22.2553 13.2565 22.2196C13.2523 22.184 13.2561 22.1478 13.2678 22.1139C13.2796 22.0799 13.2988 22.049 13.3241 22.0236C13.4011 21.9542 13.4978 21.9106 13.6008 21.8991L13.7695 21.8659L13.7502 21.7719C13.7467 21.7454 13.7377 21.7199 13.7239 21.6971C13.7101 21.6742 13.6917 21.6545 13.6699 21.6391C13.6164 21.6107 13.5541 21.6037 13.4957 21.6197C13.4379 21.6279 13.385 21.6563 13.3463 21.6999C13.3295 21.7173 13.317 21.7383 13.3098 21.7614C13.3026 21.7845 13.3009 21.8089 13.3048 21.8327L13.2107 21.8493C13.2056 21.815 13.2084 21.7799 13.2189 21.7468C13.2295 21.7137 13.2475 21.6835 13.2716 21.6584C13.3274 21.5948 13.4038 21.5527 13.4874 21.5395C13.5665 21.5205 13.6499 21.5303 13.7225 21.5671C13.7545 21.5866 13.782 21.6127 13.803 21.6437C13.824 21.6748 13.8381 21.71 13.8442 21.747L13.9189 22.1453C13.9283 22.2075 13.9489 22.2675 13.9798 22.3223L13.8774 22.35ZM13.5731 22.35C13.6316 22.3402 13.6861 22.3143 13.7308 22.2753C13.7706 22.2366 13.7993 22.1879 13.8138 22.1342L13.7778 21.9489L13.6118 21.9793C13.5354 21.9913 13.4637 22.0238 13.4044 22.0734C13.3855 22.09 13.3708 22.1108 13.3614 22.1341C13.3521 22.1574 13.3483 22.1826 13.3505 22.2076C13.3526 22.2326 13.3606 22.2568 13.3738 22.2782C13.387 22.2995 13.4051 22.3175 13.4265 22.3306C13.4725 22.352 13.525 22.355 13.5731 22.3389V22.35ZM14.1153 21.4205L14.154 21.5616C14.1708 21.5067 14.2002 21.4565 14.2398 21.415C14.2807 21.3772 14.33 21.3497 14.3836 21.3348C14.4197 21.3227 14.4579 21.3187 14.4957 21.323C14.5334 21.3273 14.5698 21.3398 14.6022 21.3597C14.6664 21.4124 14.7104 21.4857 14.7267 21.5671L14.865 22.1204L14.7737 22.1425L14.6354 21.5893C14.6248 21.5283 14.5924 21.4732 14.5441 21.4344C14.5202 21.4201 14.4934 21.4111 14.4657 21.4083C14.438 21.4054 14.41 21.4087 14.3836 21.4178C14.3286 21.4317 14.2798 21.4639 14.2453 21.5091C14.2106 21.559 14.1896 21.6172 14.1845 21.6778L14.3311 22.2311L14.2398 22.256L14.0268 21.4261L14.1153 21.4205ZM14.8041 20.9779C14.8007 20.9706 14.7989 20.9625 14.7989 20.9544C14.7989 20.9463 14.8007 20.9383 14.8041 20.9309C14.8132 20.9149 14.8281 20.9031 14.8456 20.8977C14.8535 20.8942 14.8619 20.8924 14.8705 20.8924C14.8791 20.8924 14.8876 20.8942 14.8954 20.8977C14.9031 20.9014 14.9099 20.9068 14.9152 20.9135C14.9205 20.9202 14.9241 20.9281 14.9258 20.9364C14.9313 20.9516 14.9313 20.9683 14.9258 20.9835C14.9164 20.9986 14.9016 21.0095 14.8843 21.0139C14.8764 21.0169 14.8679 21.0182 14.8594 21.0177C14.8509 21.0171 14.8426 21.0149 14.835 21.011C14.8275 21.007 14.8208 21.0016 14.8155 20.9949C14.8102 20.9883 14.8063 20.9806 14.8041 20.9724V20.9779ZM15.2301 22.0015L15.1388 22.0291L14.8926 21.1992L14.9812 21.1716L15.2301 22.0015ZM15.5344 21.8244L16.06 21.6418L16.0849 21.7193L15.4625 21.9351L15.4376 21.8714L15.6976 21.0415L15.2218 21.2048L15.1969 21.1273L15.7834 20.9254L15.8055 20.9918L15.5344 21.8244ZM16.782 21.4344C16.7573 21.4016 16.736 21.3663 16.7184 21.3292C16.7049 21.382 16.6782 21.4306 16.641 21.4703C16.6021 21.5112 16.5549 21.5432 16.5026 21.5644C16.4353 21.592 16.3597 21.592 16.2924 21.5644C16.2588 21.552 16.2284 21.5321 16.2036 21.5063C16.1787 21.4805 16.16 21.4494 16.1488 21.4154C16.1376 21.3813 16.1343 21.3452 16.139 21.3097C16.1438 21.2742 16.1565 21.2402 16.1762 21.2103C16.2356 21.1272 16.3199 21.0652 16.4169 21.0332L16.569 20.9945L16.5331 20.906C16.5237 20.8808 16.5093 20.8577 16.4907 20.8382C16.4722 20.8188 16.4499 20.8032 16.4252 20.7926C16.369 20.7713 16.3071 20.7713 16.2509 20.7926C16.1963 20.8138 16.1505 20.8528 16.1209 20.9032C16.1073 20.9228 16.0989 20.9455 16.0965 20.9692C16.0941 20.9929 16.0977 21.0169 16.1071 21.0388L16.0185 21.0747C16.0061 21.0423 16.0014 21.0074 16.0047 20.9729C16.0081 20.9383 16.0195 20.905 16.0379 20.8756C16.0815 20.8037 16.1477 20.7483 16.226 20.7179C16.2992 20.6821 16.3831 20.6752 16.4611 20.6985C16.4968 20.7105 16.5292 20.7305 16.5561 20.7568C16.5829 20.7832 16.6034 20.8153 16.6161 20.8507L16.771 21.2241C16.7926 21.2827 16.8244 21.3371 16.865 21.3846L16.782 21.4344ZM16.4805 21.4842C16.5361 21.4611 16.5848 21.4239 16.6216 21.3763C16.6543 21.3311 16.6726 21.2771 16.6742 21.2214L16.6022 21.0471L16.4473 21.1135C16.3738 21.1386 16.3094 21.1848 16.262 21.2463C16.2465 21.266 16.2359 21.2891 16.2312 21.3137C16.2264 21.3384 16.2276 21.3638 16.2346 21.3878C16.2417 21.4119 16.2543 21.434 16.2716 21.4522C16.2889 21.4704 16.3102 21.4842 16.3339 21.4925C16.382 21.509 16.4346 21.5061 16.4805 21.4842ZM16.7876 20.2504L16.8816 20.4468L17.0421 20.3721L17.0753 20.4413L16.9148 20.5187L17.1583 21.0332C17.1705 21.0691 17.195 21.0995 17.2274 21.119C17.2415 21.1263 17.2572 21.1301 17.2731 21.1301C17.2889 21.1301 17.3046 21.1263 17.3187 21.119L17.3851 21.0803L17.4211 21.1467C17.3961 21.1703 17.3671 21.189 17.3353 21.202C17.3115 21.2133 17.2855 21.2192 17.2592 21.2192C17.2329 21.2192 17.2069 21.2133 17.1832 21.202C17.133 21.1707 17.0943 21.1242 17.0725 21.0692L16.8291 20.5519L16.688 20.6211L16.6548 20.5491L16.7959 20.4828L16.7018 20.2836L16.7876 20.2504ZM17.0946 20.0706C17.0892 20.0544 17.0892 20.0369 17.0946 20.0208C17.101 20.0036 17.114 19.9897 17.1306 19.982C17.1385 19.9787 17.1469 19.977 17.1555 19.977C17.164 19.977 17.1725 19.9787 17.1804 19.982C17.1882 19.9842 17.1956 19.988 17.2018 19.9932C17.208 19.9985 17.213 20.0051 17.2163 20.0125C17.2196 20.0199 17.2213 20.0279 17.2213 20.036C17.2213 20.0441 17.2196 20.0521 17.2163 20.0595C17.2136 20.0683 17.209 20.0763 17.2028 20.083C17.1966 20.0897 17.1889 20.0949 17.1804 20.0982C17.1725 20.1016 17.164 20.1033 17.1555 20.1033C17.1469 20.1033 17.1385 20.1016 17.1306 20.0982C17.1157 20.0935 17.103 20.0837 17.0946 20.0706ZM17.6949 20.9945L17.6092 21.036L17.2219 20.2725L17.3076 20.231L17.6949 20.9945ZM17.6894 20.5132C17.6523 20.4457 17.6297 20.3713 17.623 20.2946C17.6169 20.2256 17.6313 20.1563 17.6645 20.0955C17.6985 20.0337 17.7494 19.9829 17.8111 19.9489C17.8555 19.9218 17.9053 19.9051 17.957 19.8998C18.0087 19.8946 18.0609 19.9009 18.1099 19.9184C18.219 19.9576 18.3084 20.0381 18.3588 20.1425V20.1591C18.3983 20.2257 18.4219 20.3005 18.428 20.3776C18.4341 20.4467 18.4197 20.516 18.3865 20.5768C18.3523 20.6377 18.3014 20.6876 18.2399 20.7207C18.1954 20.7474 18.1457 20.7642 18.0941 20.77C18.0426 20.7757 17.9904 20.7702 17.9411 20.7539C17.833 20.7129 17.7442 20.633 17.6922 20.5298L17.6894 20.5132ZM17.7862 20.4883C17.8271 20.5695 17.8958 20.6333 17.9798 20.6681C18.0168 20.6831 18.0568 20.6895 18.0966 20.6866C18.1364 20.6837 18.175 20.6717 18.2095 20.6515C18.2448 20.6328 18.2753 20.606 18.2983 20.5733C18.3214 20.5406 18.3364 20.503 18.3422 20.4634C18.3573 20.3668 18.3356 20.2681 18.2814 20.1868V20.1729C18.2532 20.1181 18.2125 20.0707 18.1624 20.0346C18.1183 20.0007 18.0656 19.9796 18.0103 19.9738C17.9452 19.9726 17.8817 19.9944 17.8311 20.0354C17.7805 20.0764 17.746 20.1339 17.7336 20.1978C17.7191 20.294 17.7397 20.3923 17.7917 20.4745L17.7862 20.4883ZM18.3837 19.628L18.4667 19.7497C18.4648 19.6922 18.4772 19.6352 18.5027 19.5837C18.5272 19.5334 18.5656 19.4912 18.6133 19.462C18.6431 19.4388 18.6777 19.4226 18.7145 19.4145C18.7514 19.4064 18.7896 19.4065 18.8263 19.415C18.9046 19.4444 18.9701 19.5001 19.0117 19.5726L19.316 20.0429L19.2385 20.0955L18.9315 19.6114C18.9023 19.5582 18.8552 19.517 18.7987 19.4952C18.7709 19.4888 18.7421 19.4888 18.7144 19.495C18.6866 19.5012 18.6606 19.5136 18.6382 19.5311C18.5904 19.561 18.555 19.6072 18.5386 19.6612C18.5205 19.7197 18.5205 19.7824 18.5386 19.841L18.8568 20.3334L18.7793 20.3832L18.3118 19.6667L18.3837 19.628ZM19.836 19.3984C19.8236 19.3805 19.8071 19.3659 19.7878 19.3558C19.7686 19.3457 19.7471 19.3404 19.7254 19.3403C19.6639 19.3442 19.6037 19.3602 19.5483 19.3873C19.4921 19.4149 19.4326 19.4354 19.3713 19.4482C19.3323 19.4581 19.2914 19.4581 19.2524 19.4482C19.2161 19.4353 19.185 19.411 19.1638 19.379C19.1437 19.3531 19.1301 19.3227 19.1243 19.2904C19.1185 19.2581 19.1207 19.2249 19.1306 19.1937C19.1545 19.1195 19.2022 19.0554 19.2662 19.0111C19.3301 18.959 19.4106 18.9316 19.493 18.9336C19.5285 18.9344 19.5633 18.9435 19.5946 18.9604C19.6259 18.9772 19.6527 19.0012 19.6728 19.0304L19.5954 19.0858C19.5811 19.0661 19.5623 19.0502 19.5407 19.0391C19.5191 19.0281 19.4952 19.0222 19.4709 19.0221C19.4145 19.0225 19.3599 19.042 19.316 19.0775C19.2707 19.1057 19.2365 19.1487 19.2192 19.1992C19.2118 19.2195 19.2097 19.2413 19.2131 19.2625C19.2165 19.2838 19.2252 19.3039 19.2385 19.3209C19.2492 19.3367 19.2636 19.3495 19.2806 19.3582C19.2975 19.3669 19.3163 19.3712 19.3353 19.3707C19.396 19.3648 19.455 19.348 19.5096 19.3209C19.57 19.2941 19.6331 19.2737 19.6977 19.26C19.7377 19.25 19.7795 19.25 19.8194 19.26C19.8552 19.2763 19.8866 19.301 19.9107 19.332C19.931 19.3594 19.9446 19.3912 19.9503 19.4248C19.9561 19.4585 19.9539 19.493 19.9439 19.5256C19.9159 19.6013 19.8646 19.6662 19.7973 19.711C19.7305 19.7665 19.6463 19.7969 19.5594 19.7967C19.524 19.7968 19.489 19.7886 19.4573 19.7728C19.4256 19.7569 19.398 19.7338 19.3768 19.7054L19.4515 19.6501C19.4677 19.6695 19.488 19.6851 19.511 19.6956C19.534 19.7062 19.559 19.7114 19.5843 19.711C19.6451 19.7086 19.7035 19.6862 19.7503 19.6473C19.7969 19.6154 19.8326 19.5701 19.8526 19.5173C19.8601 19.4977 19.8625 19.4765 19.8596 19.4557C19.8567 19.4349 19.8486 19.4152 19.836 19.3984ZM21.0781 18.9309L21.0173 18.9834L20.1071 17.9654L20.168 17.9129L21.0781 18.9309ZM21.9274 17.3568C21.9123 17.3402 21.8932 17.3276 21.8719 17.3204C21.8506 17.3131 21.8278 17.3114 21.8057 17.3153C21.7371 17.3337 21.6717 17.3626 21.612 17.4011C21.5448 17.4437 21.4723 17.4772 21.3962 17.5007C21.3458 17.5186 21.2915 17.5227 21.2389 17.5125C21.1863 17.5023 21.1375 17.4781 21.0975 17.4426C21.0623 17.4143 21.0346 17.3778 21.0167 17.3363C20.9989 17.2949 20.9915 17.2497 20.9951 17.2047C21.0047 17.0995 21.0519 17.0013 21.1279 16.928C21.1763 16.8719 21.2369 16.8274 21.305 16.798C21.3662 16.7728 21.4332 16.7652 21.4986 16.7759C21.5618 16.7863 21.6205 16.8151 21.6673 16.8589L21.5346 17.0055C21.5157 16.9868 21.4932 16.9722 21.4685 16.9627C21.4437 16.9531 21.4172 16.9489 21.3907 16.9502C21.3329 16.9595 21.2806 16.9901 21.2441 17.0359C21.2047 17.0734 21.1793 17.1232 21.1722 17.177C21.1709 17.1993 21.1747 17.2216 21.1833 17.2423C21.1919 17.2629 21.2051 17.2812 21.222 17.296C21.2373 17.3102 21.2561 17.3202 21.2764 17.325C21.2968 17.3299 21.318 17.3294 21.3381 17.3236C21.4059 17.3054 21.4704 17.2764 21.529 17.2379C21.5956 17.1959 21.6672 17.1625 21.742 17.1383C21.7975 17.1248 21.8553 17.1248 21.9108 17.1383C21.9632 17.1508 22.0111 17.1776 22.0491 17.2157C22.0824 17.2446 22.1082 17.281 22.1246 17.3219C22.141 17.3628 22.1473 17.407 22.1431 17.4509C22.1291 17.5559 22.0805 17.6533 22.0048 17.7275C21.9513 17.7862 21.8864 17.8332 21.814 17.8658C21.751 17.8953 21.6811 17.9068 21.612 17.899C21.5443 17.8908 21.4812 17.8607 21.4322 17.8133L21.5678 17.6666C21.5876 17.687 21.612 17.7024 21.6389 17.7116C21.6658 17.7207 21.6945 17.7233 21.7227 17.7192C21.7882 17.7071 21.8471 17.6717 21.8886 17.6196C21.9289 17.5813 21.9552 17.5307 21.9633 17.4758C21.967 17.4545 21.9657 17.4327 21.9595 17.412C21.9532 17.3914 21.9422 17.3725 21.9274 17.3568ZM22.6549 16.9695C22.6224 17.0137 22.5809 17.0505 22.5333 17.0777C22.4856 17.1048 22.4328 17.1217 22.3783 17.1272C22.3224 17.1321 22.2661 17.1256 22.2128 17.108C22.1595 17.0904 22.1104 17.0621 22.0685 17.0249L22.0491 17.0083C21.9867 16.9596 21.9365 16.8971 21.9025 16.8257C21.8716 16.7621 21.8592 16.6912 21.8665 16.621C21.8752 16.5507 21.904 16.4844 21.9495 16.4301C21.9784 16.3888 22.0164 16.3546 22.0605 16.3302C22.1046 16.3058 22.1537 16.2917 22.204 16.289C22.3181 16.2919 22.4272 16.3361 22.5111 16.4135L22.5719 16.4633L22.2206 16.8976C22.2715 16.9333 22.3328 16.9509 22.3949 16.9474C22.4238 16.9448 22.4518 16.936 22.4771 16.9217C22.5024 16.9074 22.5243 16.8879 22.5415 16.8644C22.5674 16.8317 22.5856 16.7936 22.5947 16.7529C22.6038 16.7122 22.6036 16.6699 22.5941 16.6293L22.7351 16.6127C22.7518 16.6715 22.7518 16.7337 22.7351 16.7925C22.7235 16.8573 22.696 16.9181 22.6549 16.9695ZM22.0712 16.5269C22.0555 16.5454 22.0442 16.5672 22.0379 16.5906C22.0317 16.6141 22.0308 16.6386 22.0353 16.6625C22.0468 16.7175 22.0748 16.7676 22.1155 16.8063L22.3451 16.5297C22.3039 16.4954 22.252 16.4768 22.1985 16.4771C22.1754 16.476 22.1523 16.4798 22.1308 16.4884C22.1093 16.497 22.0899 16.5101 22.074 16.5269H22.0712ZM22.6853 15.78C22.6664 15.799 22.6488 15.8194 22.6328 15.8409C22.6084 15.868 22.5932 15.9021 22.5892 15.9383C22.5853 15.9745 22.5928 16.0111 22.6106 16.0428L23.0837 16.3886L22.9703 16.5435L22.2787 16.0401L22.3866 15.8907L22.4668 15.9432C22.4503 15.9077 22.4437 15.8685 22.4476 15.8296C22.4515 15.7906 22.4658 15.7535 22.4889 15.7219C22.5018 15.7027 22.5188 15.6867 22.5387 15.6749L22.6853 15.78ZM23.2939 15.6555L22.8817 15.1687L22.9896 15.0027L23.5429 15.7219L23.4516 15.8602L22.5719 15.6389L22.6826 15.473L23.2939 15.6555ZM22.8569 14.7869C22.8332 14.7736 22.8154 14.7519 22.8071 14.7261C22.8021 14.6964 22.8079 14.6659 22.8237 14.6403C22.8386 14.6152 22.8622 14.5965 22.89 14.5877C22.9021 14.5819 22.9154 14.5788 22.9288 14.5788C22.9422 14.5788 22.9554 14.5819 22.9675 14.5877C22.9795 14.594 22.9901 14.6026 22.9987 14.6131C23.0072 14.6235 23.0136 14.6356 23.0173 14.6486C23.0221 14.6774 23.0162 14.7069 23.0007 14.7316C22.9867 14.7581 22.9629 14.778 22.9343 14.7869C22.9094 14.7965 22.8818 14.7965 22.8569 14.7869ZM23.8859 15.1659L23.7891 15.3291L23.0533 14.892L23.1528 14.7261L23.8859 15.1659ZM24.0547 14.585C24.0664 14.5667 24.0742 14.5462 24.0776 14.5248C24.0809 14.5034 24.0797 14.4814 24.074 14.4605C24.0704 14.441 24.0625 14.4225 24.0511 14.4062C24.0396 14.39 24.0248 14.3764 24.0076 14.3664L24.0934 14.206C24.1399 14.2334 24.1774 14.2738 24.2013 14.3222C24.2287 14.372 24.2412 14.4287 24.2372 14.4854C24.2363 14.5456 24.2201 14.6046 24.1902 14.6569C24.1676 14.7044 24.1348 14.7464 24.0942 14.7798C24.0535 14.8133 24.0061 14.8374 23.9551 14.8505C23.8398 14.8739 23.72 14.8521 23.6204 14.7897H23.6038C23.5013 14.7408 23.4212 14.6547 23.3797 14.549C23.3507 14.4546 23.3579 14.3527 23.3998 14.2633C23.4417 14.1738 23.5154 14.1031 23.6065 14.0649C23.6484 14.0512 23.6926 14.0464 23.7364 14.0507C23.7802 14.055 23.8226 14.0683 23.861 14.0898L23.7753 14.2475C23.7334 14.2313 23.6871 14.2313 23.6452 14.2475C23.6217 14.2557 23.6001 14.2687 23.5817 14.2856C23.5634 14.3025 23.5487 14.323 23.5386 14.3459C23.5285 14.3687 23.5232 14.3933 23.523 14.4183C23.5227 14.4432 23.5276 14.4679 23.5374 14.4909C23.5729 14.5531 23.6271 14.6024 23.6923 14.632L23.7199 14.6486C23.7816 14.688 23.8544 14.7064 23.9274 14.7012C23.9574 14.6956 23.9851 14.6818 24.0076 14.6612C24.0301 14.6407 24.0464 14.6143 24.0547 14.585ZM24.5913 13.8381C24.5702 13.8887 24.539 13.9345 24.4995 13.9725C24.46 14.0106 24.4131 14.0402 24.3617 14.0594C24.3083 14.0772 24.2518 14.0839 24.1957 14.0791C24.1395 14.0744 24.085 14.0582 24.0353 14.0317H24.0159C23.9425 13.9997 23.878 13.9503 23.8278 13.8879C23.7824 13.8336 23.7536 13.7673 23.7448 13.697C23.7367 13.627 23.7481 13.5561 23.778 13.4923C23.7968 13.4454 23.826 13.4034 23.8634 13.3693C23.9008 13.3353 23.9453 13.3102 23.9938 13.2959C24.1047 13.2709 24.2209 13.2876 24.3202 13.3429L24.3894 13.3761L24.1543 13.8823C24.2122 13.9042 24.2761 13.9042 24.3341 13.8823C24.3617 13.8726 24.387 13.8572 24.4084 13.8372C24.4298 13.8172 24.4469 13.793 24.4585 13.7662C24.4775 13.7294 24.4873 13.6886 24.4873 13.6472C24.4873 13.6058 24.4775 13.565 24.4585 13.5283L24.5941 13.4757C24.6246 13.5289 24.6417 13.5887 24.6439 13.65C24.6408 13.7158 24.6228 13.7801 24.5913 13.8381ZM23.9163 13.5614C23.906 13.583 23.9007 13.6067 23.9007 13.6306C23.9007 13.6545 23.906 13.6782 23.9163 13.6998C23.946 13.7451 23.9884 13.7806 24.0381 13.8021L24.193 13.4702C24.1437 13.4531 24.0901 13.4531 24.0408 13.4702C24.0166 13.4738 23.9936 13.4829 23.9734 13.4968C23.9533 13.5107 23.9366 13.529 23.9246 13.5504L23.9163 13.5614ZM24.7684 11.8795C24.8652 11.9118 24.9539 11.9647 25.0284 12.0344C25.0925 12.0939 25.1377 12.1708 25.1584 12.2557C25.1753 12.3426 25.1686 12.4324 25.1391 12.5158C25.1111 12.5998 25.0592 12.6739 24.9897 12.7288C24.9214 12.7829 24.8386 12.8156 24.7518 12.8228C24.6515 12.8312 24.5506 12.818 24.4558 12.7841L24.3949 12.762C24.2986 12.7286 24.2101 12.6759 24.1349 12.6071C24.0696 12.5464 24.0242 12.4673 24.0049 12.3802C23.9857 12.2947 23.9915 12.2054 24.0215 12.123C24.0504 12.0394 24.1021 11.9656 24.1709 11.91C24.2396 11.8566 24.3221 11.8239 24.4088 11.8159C24.5101 11.8085 24.612 11.8227 24.7075 11.8574L24.7684 11.8795ZM24.6439 12.0483C24.5497 12.0078 24.4451 11.9982 24.3451 12.0206C24.3064 12.0308 24.2709 12.0506 24.2419 12.0782C24.2129 12.1057 24.1913 12.1402 24.1791 12.1783C24.1648 12.2155 24.1599 12.2556 24.1647 12.2952C24.1695 12.3347 24.184 12.3725 24.2068 12.4051C24.2715 12.4826 24.3569 12.5402 24.453 12.5711L24.5166 12.5932C24.6121 12.6325 24.7172 12.6421 24.8182 12.6209C24.8568 12.6098 24.8922 12.5893 24.9211 12.5613C24.9501 12.5334 24.9717 12.4987 24.9841 12.4605C24.9984 12.4233 25.0034 12.3831 24.9986 12.3436C24.9938 12.304 24.9793 12.2663 24.9565 12.2336C24.8899 12.1543 24.8014 12.0966 24.702 12.0676L24.6439 12.0483ZM24.8126 11.2267C24.8126 11.2516 24.7933 11.2765 24.785 11.3014C24.7712 11.3354 24.7684 11.3728 24.7768 11.4084C24.7852 11.4441 24.8045 11.4763 24.832 11.5005L25.3853 11.6638L25.3299 11.8463L24.5 11.6112L24.5526 11.4342L24.6439 11.4563C24.6166 11.4283 24.5974 11.3935 24.5882 11.3556C24.5789 11.3176 24.58 11.2779 24.5913 11.2405C24.597 11.2174 24.6073 11.1958 24.6218 11.1769L24.8126 11.2267ZM25.0782 11.199C24.9705 11.1767 24.8732 11.1193 24.8016 11.0358C24.77 10.998 24.7479 10.9531 24.7373 10.9049C24.7267 10.8568 24.7279 10.8068 24.7407 10.7592C24.7486 10.7163 24.7665 10.676 24.7929 10.6414C24.8194 10.6068 24.8536 10.5789 24.8929 10.56L24.8099 10.5323L24.8514 10.3636L25.6591 10.5517C25.707 10.5606 25.7524 10.5795 25.7924 10.6071C25.8325 10.6348 25.8662 10.6706 25.8915 10.7121C25.9162 10.7574 25.9316 10.8072 25.9368 10.8585C25.9421 10.9098 25.937 10.9616 25.9219 11.0109C25.9088 11.0722 25.8824 11.1298 25.8445 11.1797C25.811 11.2278 25.7651 11.266 25.7117 11.2903L25.6204 11.1769C25.6587 11.1588 25.6923 11.1322 25.7187 11.0991C25.745 11.066 25.7635 11.0273 25.7725 10.986C25.7872 10.9332 25.7813 10.8769 25.7559 10.8283C25.7409 10.8048 25.7211 10.7847 25.6977 10.7695C25.6743 10.7542 25.648 10.7441 25.6204 10.7398H25.5651C25.5891 10.774 25.605 10.8131 25.6117 10.8543C25.6184 10.8955 25.6157 10.9377 25.6038 10.9777C25.5943 11.024 25.5737 11.0673 25.5438 11.1039C25.514 11.1405 25.4757 11.1693 25.4323 11.188C25.3192 11.233 25.1939 11.2369 25.0782 11.199ZM25.1391 11.0164C25.2066 11.0377 25.279 11.0377 25.3465 11.0164C25.3733 11.0065 25.397 10.9898 25.4154 10.968C25.4338 10.9462 25.4463 10.92 25.4517 10.892C25.4623 10.858 25.4624 10.8216 25.4521 10.7876C25.4417 10.7535 25.4213 10.7234 25.3936 10.7011L25.0284 10.6153C24.9946 10.6236 24.9639 10.6416 24.9403 10.6672C24.9167 10.6928 24.9012 10.7248 24.8956 10.7592C24.8869 10.7869 24.886 10.8165 24.8928 10.8448C24.8996 10.873 24.914 10.8989 24.9343 10.9196C24.9924 10.9733 25.066 11.0072 25.1446 11.0164H25.1391ZM25.8057 9.81863C25.7782 9.82225 25.7503 9.82225 25.7227 9.81863C25.7484 9.85206 25.7666 9.89058 25.7761 9.93161C25.7856 9.97263 25.7863 10.0152 25.7781 10.0565C25.7686 10.1328 25.7311 10.2028 25.673 10.2529C25.6431 10.2757 25.6087 10.2917 25.572 10.2998C25.5353 10.3079 25.4974 10.3078 25.4607 10.2996C25.4241 10.2915 25.3897 10.2754 25.3599 10.2525C25.3301 10.2296 25.3058 10.2005 25.2884 10.1672C25.2505 10.0723 25.2418 9.96826 25.2635 9.86842L25.2857 9.75224H25.2303C25.2111 9.74732 25.1911 9.74649 25.1716 9.74983C25.152 9.75317 25.1334 9.76059 25.1169 9.7716C25.1004 9.78348 25.0867 9.79877 25.0767 9.81643C25.0667 9.8341 25.0606 9.85372 25.0588 9.87396C25.0526 9.91257 25.0584 9.95216 25.0754 9.98737C25.0826 10.0018 25.0932 10.0144 25.1061 10.024C25.1191 10.0336 25.1342 10.04 25.1501 10.0427L25.1169 10.2308C25.0705 10.2216 25.0281 10.1984 24.9952 10.1644C24.9595 10.1243 24.9348 10.0758 24.9233 10.0233C24.9108 9.96312 24.9108 9.90097 24.9233 9.84076C24.9332 9.75494 24.9734 9.67547 25.0367 9.61669C25.0679 9.59188 25.104 9.57409 25.1427 9.56454C25.1814 9.55499 25.2216 9.55391 25.2608 9.56136L25.6425 9.62499C25.7045 9.63891 25.7687 9.63891 25.8306 9.62499L25.8057 9.81863ZM25.6342 10.004C25.6437 9.9677 25.6437 9.92959 25.6342 9.89332C25.6233 9.85915 25.602 9.8292 25.5734 9.80756L25.4157 9.7799L25.3963 9.88225C25.3793 9.93628 25.3793 9.99421 25.3963 10.0482C25.405 10.0667 25.4181 10.0827 25.4345 10.0948C25.451 10.1069 25.4702 10.1147 25.4904 10.1174C25.5067 10.1211 25.5237 10.121 25.5399 10.1171C25.5562 10.1133 25.5714 10.1058 25.5844 10.0953C25.6116 10.0719 25.6293 10.0395 25.6342 10.004ZM25.0339 9.14918H25.1446C25.1107 9.11569 25.085 9.07475 25.0696 9.02962C25.0543 8.98448 25.0496 8.93639 25.0561 8.88915C25.0754 8.7121 25.1861 8.63465 25.388 8.65125L25.9413 8.71211L25.9219 8.90298L25.3687 8.84489C25.3259 8.83614 25.2813 8.84406 25.2442 8.86702C25.2286 8.88095 25.2161 8.898 25.2075 8.91706C25.199 8.93612 25.1945 8.95677 25.1944 8.97767C25.1892 9.01316 25.1945 9.04941 25.2098 9.08188C25.225 9.11435 25.2495 9.14161 25.2801 9.16025L25.886 9.22387L25.8638 9.41475L25.0146 9.32623L25.0339 9.14918ZM24.868 8.42164C24.8406 8.42038 24.8148 8.40847 24.796 8.38845C24.7859 8.37738 24.7784 8.36417 24.7741 8.3498C24.7698 8.33543 24.7688 8.32027 24.7711 8.30546C24.7718 8.27633 24.7837 8.2486 24.8043 8.228C24.8142 8.2187 24.8261 8.21166 24.8389 8.20736C24.8518 8.20306 24.8655 8.20161 24.879 8.2031C24.8933 8.20322 24.9074 8.2065 24.9203 8.21271C24.9331 8.21892 24.9445 8.2279 24.9535 8.239C24.9625 8.25011 24.9689 8.26307 24.9723 8.27695C24.9757 8.29083 24.9759 8.30529 24.9731 8.31929C24.9739 8.33389 24.9714 8.3485 24.9656 8.36194C24.9599 8.37539 24.9511 8.38731 24.9399 8.39675C24.9197 8.41351 24.8942 8.42236 24.868 8.42164ZM25.9551 8.28333V8.4742L25.1003 8.42164V8.23077L25.9551 8.28333ZM25.8306 7.83519V7.37874H25.9828V8.07309H25.8555L25.3023 7.63048V8.05649H25.1474V7.38704H25.2691L25.8306 7.83519ZM25.9745 6.68163C25.9497 6.69524 25.9224 6.70371 25.8943 6.70653C25.9542 6.76073 25.9915 6.83558 25.9987 6.9161C26.0059 6.99662 25.9824 7.07688 25.933 7.14084C25.9113 7.16779 25.8839 7.18967 25.8529 7.20496C25.8218 7.22025 25.7878 7.22858 25.7532 7.22936C25.7127 7.23248 25.672 7.22552 25.6349 7.20911C25.5977 7.1927 25.5652 7.16735 25.5402 7.13531C25.4864 7.05305 25.4576 6.95697 25.4572 6.85868V6.74249H25.4019C25.3826 6.74159 25.3634 6.74455 25.3454 6.7512C25.3273 6.75786 25.3108 6.76806 25.2967 6.78122C25.2705 6.814 25.2576 6.85552 25.2608 6.89741C25.2609 6.93592 25.2746 6.97315 25.2995 7.00253C25.3089 7.01552 25.3214 7.0259 25.336 7.03267C25.3505 7.03945 25.3665 7.04241 25.3825 7.04126V7.2349C25.3351 7.23477 25.2888 7.22031 25.2497 7.1934C25.2057 7.16111 25.1705 7.11831 25.1474 7.06892C25.1216 7.01333 25.1075 6.95309 25.1059 6.89187C25.0991 6.80548 25.1225 6.71942 25.1723 6.64844C25.198 6.61757 25.2301 6.59267 25.2664 6.57547C25.3027 6.55827 25.3423 6.54919 25.3825 6.54885H25.767C25.8299 6.5489 25.8921 6.5357 25.9496 6.51012L25.9745 6.68163ZM25.8445 6.89741C25.8415 6.86031 25.8301 6.82437 25.8113 6.79229C25.7934 6.76098 25.7664 6.73589 25.7338 6.72036H25.5734V6.82548C25.573 6.88116 25.5883 6.93581 25.6176 6.98316C25.6292 7.00063 25.6455 7.01453 25.6645 7.02332C25.6836 7.03211 25.7047 7.03544 25.7255 7.03296C25.742 7.03306 25.7584 7.02938 25.7732 7.02219C25.7881 7.01499 25.8011 7.00448 25.8113 6.99146C25.8349 6.9618 25.8458 6.92402 25.8417 6.88634L25.8445 6.89741ZM24.868 6.1339L25.0754 6.11731V5.96516H25.2193V6.11454L25.6979 6.05645C25.7231 6.0565 25.7476 6.04769 25.767 6.03155C25.7747 6.02197 25.7802 6.0108 25.7831 5.99884C25.786 5.98688 25.7861 5.97443 25.7836 5.96239C25.7863 5.94034 25.7863 5.91805 25.7836 5.896H25.933C25.9474 5.93616 25.9567 5.97799 25.9607 6.02049C25.9736 6.16618 25.8989 6.2464 25.7366 6.26116L25.2525 6.30265V6.44373L25.1086 6.45756V6.31648L24.9012 6.33308L24.868 6.1339ZM24.8237 5.85174C24.7963 5.85572 24.7685 5.84877 24.7462 5.83238C24.7349 5.82273 24.7256 5.8109 24.719 5.7976C24.7123 5.78429 24.7084 5.76977 24.7075 5.75492C24.7032 5.7258 24.7101 5.69614 24.7269 5.67193C24.7354 5.66159 24.7459 5.65308 24.7578 5.6469C24.7697 5.64072 24.7827 5.637 24.796 5.63597C24.8096 5.63332 24.8235 5.63368 24.8369 5.63702C24.8503 5.64037 24.8628 5.64662 24.8735 5.65533C24.8844 5.66512 24.8933 5.67703 24.8995 5.69035C24.9056 5.70367 24.909 5.71811 24.9095 5.73279C24.9126 5.74702 24.9127 5.76174 24.9099 5.77603C24.907 5.79032 24.9012 5.80385 24.8929 5.81578C24.8748 5.83556 24.8503 5.8483 24.8237 5.85174ZM25.8694 5.51978L25.8915 5.71066L25.0422 5.81301L25.0201 5.62214L25.8694 5.51978ZM25.4212 5.387C25.3458 5.40509 25.2671 5.40509 25.1916 5.387C25.1195 5.36958 25.0544 5.3306 25.005 5.27525C24.9555 5.2199 24.9242 5.15081 24.915 5.07717C24.9039 5.0266 24.9038 4.97422 24.9148 4.92361C24.9257 4.873 24.9475 4.82536 24.9786 4.78395C25.0464 4.69598 25.1455 4.63752 25.2552 4.62073H25.2995C25.3761 4.60428 25.4553 4.60428 25.5319 4.62073C25.6033 4.63952 25.6676 4.67892 25.7168 4.73401C25.766 4.78911 25.7979 4.85746 25.8085 4.93056C25.8159 4.98296 25.8124 5.03633 25.7981 5.08728C25.7838 5.13824 25.7591 5.18566 25.7255 5.22656C25.6497 5.31576 25.543 5.37306 25.4268 5.387H25.4212ZM25.4212 5.19613C25.494 5.18671 25.5624 5.1559 25.6176 5.1076C25.6383 5.08638 25.6534 5.06038 25.6616 5.0319C25.6698 5.00343 25.6709 4.97337 25.6647 4.94439C25.6606 4.91531 25.6494 4.8877 25.632 4.86404C25.6146 4.84037 25.5916 4.82141 25.5651 4.80884C25.4931 4.77968 25.4137 4.77387 25.3382 4.79224C25.2658 4.79989 25.1978 4.83097 25.1446 4.88077C25.1234 4.90115 25.1078 4.92654 25.0991 4.95459C25.0904 4.98264 25.0889 5.01244 25.0948 5.04121C25.0978 5.07025 25.1083 5.09801 25.1253 5.12177C25.1423 5.14553 25.1651 5.16447 25.1916 5.17676C25.2584 5.20315 25.3314 5.20987 25.4019 5.19613H25.4212ZM24.8016 4.34687L24.8956 4.31644C24.853 4.29564 24.8156 4.26541 24.7864 4.22802C24.7571 4.19064 24.7368 4.14708 24.7269 4.10067C24.6881 3.92639 24.7656 3.82404 24.9648 3.76594L25.518 3.63869L25.5595 3.8268L25.0201 3.95129C24.9782 3.95838 24.94 3.97991 24.9122 4.01215C24.9013 4.03024 24.8944 4.05048 24.892 4.07149C24.8896 4.0925 24.8918 4.11378 24.8984 4.13386C24.9058 4.16875 24.9231 4.2008 24.948 4.22627C24.973 4.25174 25.0047 4.26958 25.0395 4.27771L25.6342 4.14216L25.6785 4.3275L24.8486 4.52115L24.8016 4.34687ZM25.092 3.01351C25.0772 3.01788 25.0638 3.02606 25.0531 3.03722C25.0425 3.04838 25.0349 3.06214 25.0312 3.07713C25.022 3.12558 25.022 3.1753 25.0312 3.22375C25.0384 3.28161 25.0384 3.34016 25.0312 3.39802C25.029 3.44208 25.0132 3.48437 24.9859 3.51906C24.9587 3.55375 24.9213 3.57912 24.879 3.59167C24.8449 3.60218 24.8088 3.6044 24.7737 3.59815C24.7386 3.59189 24.7054 3.57734 24.6771 3.5557C24.6072 3.50521 24.5573 3.43178 24.536 3.34823C24.5067 3.26498 24.5067 3.17421 24.536 3.09096C24.5496 3.05534 24.5716 3.02347 24.5999 2.99798C24.6283 2.97249 24.6623 2.9541 24.6992 2.94435L24.7545 3.12693C24.7377 3.13189 24.722 3.14038 24.7087 3.15182C24.6953 3.16327 24.6846 3.17741 24.6771 3.19332C24.663 3.22982 24.663 3.27024 24.6771 3.30674C24.6869 3.34227 24.7072 3.37405 24.7352 3.39802C24.7472 3.40732 24.7612 3.41366 24.7761 3.41654C24.791 3.41943 24.8063 3.41877 24.8209 3.41462C24.8344 3.41142 24.8467 3.40455 24.8564 3.39478C24.8662 3.38502 24.8731 3.37273 24.8763 3.3593C24.8845 3.30706 24.8845 3.25385 24.8763 3.20162C24.8689 3.13913 24.8689 3.07599 24.8763 3.01351C24.8841 2.97192 24.9021 2.93294 24.9288 2.90009C24.9562 2.86959 24.9917 2.84752 25.0312 2.83646C25.0663 2.82538 25.1036 2.82312 25.1398 2.82987C25.1759 2.83663 25.2099 2.85219 25.2386 2.87519C25.3082 2.93076 25.3577 3.00749 25.3797 3.09373C25.3985 3.15551 25.4041 3.22052 25.3963 3.28461C25.3895 3.34021 25.3675 3.39286 25.3327 3.43675C25.3014 3.47782 25.2578 3.50786 25.2082 3.52251L25.1557 3.3427C25.1746 3.33657 25.192 3.3265 25.2068 3.31315C25.2216 3.2998 25.2334 3.28347 25.2414 3.26524C25.2554 3.22208 25.2554 3.17562 25.2414 3.13246C25.2307 3.09348 25.2097 3.05811 25.1806 3.03011C25.1682 3.02037 25.1538 3.01378 25.1383 3.01089C25.1229 3.008 25.107 3.0089 25.092 3.01351ZM4.76795 3.78531H2.42489L1.90759 5.22656H1.43732L3.39033 0.0673874H3.80528L5.7417 5.22656H5.30185L4.76795 3.78531ZM2.55491 3.41739H4.62411L3.59504 0.606818L2.55491 3.41739ZM6.9727 5.22656H6.53839V0.0756871H6.9727V5.22656ZM11.9521 3.62486C11.9268 4.10016 11.7187 4.54725 11.3711 4.87247C11.0005 5.17381 10.5315 5.32751 10.0544 5.30401C9.69613 5.3136 9.343 5.21738 9.03914 5.02738C8.73839 4.82709 8.50129 4.54486 8.35586 4.21409C8.19045 3.8357 8.10747 3.42644 8.11242 3.01351V2.333C8.10434 1.9138 8.18641 1.49777 8.35309 1.11305C8.49626 0.773159 8.73814 0.484057 9.04744 0.28316C9.35875 0.0915365 9.71941 -0.00463815 10.0848 0.00652932C10.3196 -0.0140035 10.5562 0.0140142 10.7797 0.0888388C11.0033 0.163663 11.209 0.283693 11.3842 0.441459C11.5593 0.599225 11.7001 0.791352 11.7978 1.00588C11.8955 1.22041 11.948 1.45275 11.9521 1.68845H11.515C11.4043 0.810603 10.9276 0.372604 10.0848 0.374448C9.87232 0.368936 9.6615 0.413371 9.46932 0.504178C9.27713 0.594985 9.10894 0.729629 8.97828 0.89728C8.67385 1.31842 8.52167 1.83055 8.54673 2.34959V2.98031C8.52398 3.48499 8.66891 3.98301 8.95891 4.39666C9.08536 4.56946 9.25252 4.70836 9.44556 4.80102C9.63859 4.89368 9.85152 4.93722 10.0654 4.92779C10.4386 4.95599 10.8082 4.83905 11.0973 4.60137C11.3501 4.33275 11.5016 3.98462 11.526 3.61656L11.9521 3.62486ZM13.3767 3.13246V5.22656H12.9396V0.0756871H14.6962C15.156 0.0503269 15.6087 0.197289 15.966 0.487867C16.1248 0.630923 16.2492 0.807931 16.3302 1.00573C16.4111 1.20353 16.4464 1.41703 16.4335 1.63035C16.4435 1.83625 16.4085 2.04186 16.3312 2.23293C16.2538 2.42399 16.1358 2.59595 15.9853 2.73688C15.6147 3.02256 15.152 3.16233 14.6852 3.12969L13.3767 3.13246ZM13.3767 2.76454H14.6962C15.0459 2.78945 15.3919 2.6807 15.6644 2.46025C15.7759 2.35367 15.8632 2.22445 15.9204 2.08129C15.9777 1.93814 16.0036 1.78437 15.9964 1.63035C16.0039 1.47324 15.9785 1.31628 15.9219 1.16955C15.8652 1.02283 15.7784 0.889568 15.6672 0.778329C15.4078 0.551912 15.0706 0.434906 14.7267 0.451905H13.3767V2.76454ZM19.6313 3.78531H17.2883L16.7571 5.22656H16.2924L18.2454 0.0673874H18.6576L20.6189 5.22656H20.1652L19.6313 3.78531ZM17.4183 3.41739H19.4875L18.4584 0.606818L17.4183 3.41739ZM7.71684 12.3443C7.7226 12.2157 7.69835 12.0875 7.64602 11.9698C7.59368 11.8522 7.5147 11.7484 7.41531 11.6665C7.08108 11.4372 6.70516 11.2755 6.30879 11.1907C5.89509 11.0937 5.50052 10.9282 5.14141 10.7011C4.98498 10.5942 4.85637 10.4514 4.76626 10.2847C4.67616 10.1181 4.62717 9.93228 4.62338 9.74285C4.61959 9.55341 4.66111 9.36581 4.74448 9.19567C4.82785 9.02552 4.95066 8.87776 5.10268 8.76467C5.46502 8.50644 5.90294 8.37604 6.34752 8.39398C6.66582 8.38853 6.98108 8.45669 7.2687 8.59315C7.52595 8.71474 7.74363 8.90653 7.89665 9.14642C8.04519 9.38034 8.12299 9.65219 8.12072 9.92928H7.68088C7.68559 9.76952 7.65564 9.61063 7.59309 9.46355C7.53053 9.31646 7.43685 9.18468 7.31849 9.07726C7.04622 8.85287 6.69988 8.73841 6.34752 8.75637C6.01204 8.74207 5.68129 8.83935 5.40697 9.033C5.2969 9.11067 5.2074 9.21398 5.14619 9.33399C5.08498 9.454 5.0539 9.5871 5.05565 9.72181C5.05301 9.84621 5.08027 9.96943 5.13515 10.0811C5.19003 10.1928 5.27091 10.2897 5.37101 10.3636C5.67651 10.5731 6.01922 10.7224 6.38071 10.8034C6.74741 10.8869 7.10302 11.0131 7.44021 11.1797C7.66168 11.2942 7.85165 11.4614 7.99347 11.6665C8.11601 11.868 8.1784 12.1002 8.17328 12.336C8.17802 12.5265 8.13614 12.7153 8.05129 12.886C7.96644 13.0567 7.84118 13.204 7.68641 13.3152C7.31106 13.5765 6.85962 13.7059 6.40284 13.6832C6.05944 13.6863 5.71891 13.6205 5.40144 13.4895C5.12132 13.3775 4.88067 13.185 4.70986 12.9363C4.54441 12.7044 4.45456 12.4271 4.4526 12.1423H4.88967C4.88343 12.3078 4.91712 12.4724 4.9879 12.6222C5.05868 12.7719 5.16446 12.9024 5.29632 13.0027C5.61211 13.2266 5.99409 13.3377 6.38071 13.318C6.72384 13.3315 7.06223 13.2345 7.34615 13.0414C7.46098 12.9651 7.55499 12.8614 7.61971 12.7397C7.68443 12.618 7.71781 12.4821 7.71684 12.3443ZM12.829 11.3124C12.8393 11.7422 12.7553 12.169 12.5828 12.5628C12.4358 12.9028 12.1913 13.1916 11.8801 13.3927C11.5617 13.5844 11.1949 13.6804 10.8234 13.6693C10.5503 13.6784 10.2786 13.6262 10.0282 13.5166C9.77787 13.407 9.55523 13.2427 9.37663 13.0358C8.98552 12.5409 8.78876 11.9202 8.82336 11.2903V10.7592C8.81503 10.3302 8.89998 9.9045 9.07233 9.51157C9.21895 9.16896 9.46501 8.87824 9.77867 8.67702C10.0923 8.47581 10.4592 8.37335 10.8317 8.38291C11.2013 8.37287 11.5661 8.46886 11.8829 8.65955C12.19 8.85677 12.4339 9.13812 12.5855 9.47007C12.7585 9.85139 12.8463 10.2658 12.8428 10.6845L12.829 11.3124ZM12.3947 10.7592C12.4254 10.2382 12.2759 9.72243 11.9714 9.29856C11.8294 9.13266 11.6531 8.99947 11.4547 8.90815C11.2563 8.81683 11.0404 8.76955 10.822 8.76955C10.6036 8.76955 10.3878 8.81683 10.1894 8.90815C9.99096 8.99947 9.81468 9.13266 9.67262 9.29856C9.36328 9.72767 9.2118 10.2505 9.24384 10.7785V11.3124C9.21633 11.8318 9.36659 12.345 9.66986 12.7675C9.81217 12.9349 9.98916 13.0694 10.1886 13.1616C10.388 13.2538 10.6051 13.3015 10.8248 13.3015C11.0445 13.3015 11.2616 13.2538 11.461 13.1616C11.6604 13.0694 11.8374 12.9349 11.9797 12.7675C12.2759 12.3421 12.4219 11.8301 12.3947 11.3124V10.7592ZM17.5096 12.004C17.481 12.4782 17.2722 12.9236 16.9259 13.2489C16.5552 13.5502 16.0862 13.7039 15.6091 13.6804C15.2509 13.69 14.8978 13.5938 14.5939 13.4038C14.2932 13.2041 14.0568 12.9216 13.9134 12.5905C13.7464 12.2125 13.6624 11.8031 13.6672 11.3899V10.7094C13.6594 10.2911 13.7415 9.87604 13.9078 9.4922C14.0522 9.15302 14.2938 8.86422 14.6022 8.66231C14.915 8.4718 15.2762 8.37574 15.6423 8.38568C15.8771 8.36556 16.1134 8.39387 16.3368 8.46885C16.5602 8.54383 16.7657 8.66388 16.9408 8.82157C17.1159 8.97925 17.2567 9.17121 17.3545 9.38555C17.4524 9.59988 17.5051 9.83203 17.5096 10.0676H17.0697C16.9618 9.19344 16.4833 8.7536 15.6423 8.7536C15.4295 8.74752 15.2182 8.79199 15.0259 8.88336C14.8335 8.97472 14.6656 9.11037 14.5358 9.2792C14.2347 9.70028 14.0872 10.212 14.1181 10.7287V11.3595C14.0919 11.8672 14.2349 12.3692 14.5247 12.7869C14.6515 12.9593 14.8187 13.098 15.0117 13.1906C15.2046 13.2832 15.4174 13.327 15.6313 13.318C16.0048 13.3454 16.3745 13.2275 16.6631 12.9888C16.9159 12.7213 17.0675 12.374 17.0919 12.0068L17.5096 12.004Z" fill="white"/>
<path fill-rule="evenodd" clip-rule="evenodd" d="M0.794578 6.91105C0.794578 6.64464 1.01054 6.42867 1.27695 6.42867H20.9399C21.2063 6.42867 21.4223 6.64464 21.4223 6.91105C21.4223 7.17745 21.2063 7.39342 20.9399 7.39342H1.27695C1.01054 7.39342 0.794578 7.17745 0.794578 6.91105Z" fill="white"/>
<path d="M4.49688 16.5986C4.48462 16.5648 4.47717 16.5294 4.47475 16.4935C4.43959 16.5321 4.39691 16.563 4.34933 16.5844C4.30175 16.6058 4.25028 16.6172 4.19812 16.618C4.11038 16.6211 4.02461 16.5915 3.95745 16.535C3.92759 16.5088 3.90373 16.4764 3.8875 16.4401C3.87127 16.4039 3.86305 16.3645 3.86339 16.3248C3.86068 16.2774 3.87019 16.2301 3.89102 16.1875C3.91186 16.1448 3.9433 16.1083 3.98234 16.0813C4.08112 16.0183 4.19736 15.9883 4.3143 15.9956H4.48028V15.9181C4.4817 15.892 4.47749 15.8659 4.46795 15.8416C4.4584 15.8172 4.44374 15.7952 4.42495 15.777C4.40144 15.7595 4.37457 15.747 4.34601 15.7403C4.31745 15.7337 4.28782 15.733 4.25897 15.7383C4.20479 15.7361 4.15137 15.7516 4.10683 15.7826C4.08846 15.7947 4.07333 15.8111 4.06273 15.8304C4.05212 15.8496 4.04637 15.8712 4.04597 15.8932H3.87446C3.87403 15.8371 3.89255 15.7825 3.92702 15.7383C3.96506 15.6907 4.01455 15.6536 4.07087 15.6304C4.13349 15.6024 4.20143 15.5882 4.27004 15.5889C4.36994 15.5801 4.4693 15.6109 4.54667 15.6747C4.58003 15.7045 4.60648 15.7412 4.62416 15.7823C4.64184 15.8234 4.65032 15.8679 4.64902 15.9126V16.369C4.64569 16.4436 4.65793 16.518 4.68499 16.5876L4.49688 16.5986ZM4.22025 16.4686C4.27376 16.4687 4.32631 16.4543 4.37239 16.4271C4.41637 16.4023 4.45272 16.366 4.47751 16.322V16.1173H4.34196C4.13449 16.1173 4.02937 16.1781 4.02937 16.2999C4.0285 16.3235 4.03303 16.3469 4.04262 16.3685C4.0522 16.3901 4.0666 16.4092 4.0847 16.4243C4.1213 16.4543 4.16746 16.47 4.21471 16.4686H4.22025ZM4.86203 15.34C4.86148 15.3146 4.87035 15.29 4.88693 15.2708C4.9076 15.2527 4.93414 15.2427 4.96162 15.2427C4.98909 15.2427 5.01563 15.2527 5.03631 15.2708C5.05288 15.29 5.06175 15.3146 5.0612 15.34C5.06232 15.3654 5.05338 15.3902 5.03631 15.4091C5.01563 15.4272 4.98909 15.4372 4.96162 15.4372C4.93414 15.4372 4.9076 15.4272 4.88693 15.4091C4.86986 15.3902 4.86092 15.3654 4.86203 15.34ZM5.04461 16.5986H4.87586V15.6055H5.04461V16.5986ZM5.66979 16.4797C5.72723 16.4804 5.78309 16.4608 5.82747 16.4243C5.8493 16.4082 5.8673 16.3874 5.88021 16.3635C5.89311 16.3396 5.90061 16.3132 5.90216 16.286H6.05708C6.05223 16.345 6.03116 16.4015 5.99622 16.4492C5.95894 16.501 5.90955 16.5428 5.85237 16.571C5.79332 16.6014 5.72793 16.6175 5.66149 16.618C5.60087 16.6208 5.54038 16.6101 5.48441 16.5866C5.42843 16.5632 5.37837 16.5276 5.33784 16.4824C5.25755 16.3762 5.21826 16.2446 5.22718 16.1118V16.0813C5.22503 15.9927 5.243 15.9047 5.27974 15.8241C5.31252 15.7525 5.36537 15.6919 5.43189 15.6498C5.50272 15.6069 5.58422 15.5848 5.66703 15.5862C5.76852 15.5831 5.86738 15.6187 5.94366 15.6857C5.98021 15.7186 6.00963 15.7587 6.03009 15.8034C6.05055 15.8482 6.06162 15.8966 6.06261 15.9458H5.8994C5.89863 15.916 5.89187 15.8867 5.87951 15.8596C5.86715 15.8325 5.84945 15.8082 5.82747 15.7881C5.80584 15.7672 5.78028 15.7508 5.75226 15.7399C5.72424 15.729 5.69432 15.7237 5.66426 15.7245C5.62594 15.7229 5.58781 15.7307 5.55313 15.7471C5.51845 15.7634 5.48825 15.788 5.46509 15.8185C5.41137 15.9003 5.38609 15.9975 5.39316 16.0952V16.1256C5.38479 16.2233 5.41018 16.3209 5.46509 16.4022C5.49066 16.4304 5.52254 16.4521 5.55812 16.4656C5.59371 16.479 5.63198 16.4839 5.66979 16.4797ZM7.04742 16.1118C7.05406 16.2422 7.01813 16.3714 6.94506 16.4797C6.91331 16.5231 6.87164 16.5583 6.82352 16.5824C6.7754 16.6064 6.72223 16.6187 6.66843 16.618C6.61672 16.6193 6.56532 16.6097 6.51763 16.5896C6.46994 16.5696 6.42705 16.5397 6.3918 16.5018V16.9804H6.22305V15.5972H6.37797V15.7051C6.41184 15.6648 6.4542 15.6325 6.50203 15.6105C6.54986 15.5885 6.60196 15.5773 6.6546 15.5779C6.70812 15.5771 6.76107 15.589 6.80913 15.6125C6.8572 15.6361 6.89903 15.6706 6.93123 15.7134C7.00606 15.824 7.04206 15.9563 7.03358 16.0896L7.04742 16.1118ZM6.88697 16.0924C6.89363 15.9948 6.86838 15.8977 6.81505 15.8158C6.78991 15.787 6.75809 15.7649 6.72238 15.7514C6.68668 15.7379 6.6482 15.7334 6.61034 15.7383C6.56252 15.7372 6.51536 15.7496 6.47426 15.774C6.43316 15.7985 6.39979 15.8341 6.37797 15.8766V16.3497C6.39999 16.3927 6.4338 16.4285 6.47544 16.453C6.51708 16.4775 6.56482 16.4896 6.6131 16.488C6.65082 16.4888 6.68815 16.4804 6.72189 16.4635C6.75563 16.4466 6.78475 16.4218 6.80675 16.3912C6.86489 16.3028 6.89302 16.198 6.88697 16.0924ZM7.83305 16.5986C7.81792 16.5656 7.80946 16.5298 7.80815 16.4935C7.7731 16.5322 7.73043 16.5632 7.68283 16.5846C7.63523 16.6061 7.58372 16.6174 7.53152 16.618C7.44288 16.6215 7.35609 16.592 7.28808 16.535C7.25822 16.5088 7.23437 16.4764 7.21814 16.4401C7.20191 16.4039 7.19368 16.3645 7.19403 16.3248C7.19131 16.2774 7.20083 16.2301 7.22166 16.1875C7.24249 16.1448 7.27394 16.1083 7.31298 16.0813C7.41176 16.0183 7.528 15.9883 7.64494 15.9956H7.81092V15.9181C7.81218 15.8923 7.80817 15.8664 7.79913 15.8422C7.7901 15.8179 7.77622 15.7958 7.75836 15.777C7.73694 15.7581 7.71194 15.7438 7.68485 15.7347C7.65777 15.7257 7.62914 15.7222 7.60068 15.7245C7.54644 15.7218 7.49289 15.7374 7.44853 15.7687C7.42982 15.7807 7.41426 15.797 7.40319 15.8163C7.39211 15.8355 7.38584 15.8572 7.3849 15.8794H7.21616C7.21692 15.8269 7.23545 15.7762 7.26872 15.7355C7.30573 15.6881 7.35431 15.6509 7.4098 15.6276C7.47242 15.5996 7.54037 15.5855 7.60898 15.5862C7.70874 15.5785 7.80768 15.6091 7.88561 15.6719C7.91803 15.7023 7.94367 15.7392 7.96083 15.7802C7.978 15.8212 7.9863 15.8654 7.98519 15.9098V16.3663C7.98326 16.4407 7.99546 16.5149 8.02116 16.5848L7.83305 16.5986ZM7.55642 16.4686C7.60915 16.4693 7.66098 16.4549 7.7058 16.4271C7.75042 16.4032 7.78698 16.3666 7.81092 16.322V16.1173H7.67813C7.46789 16.1173 7.36554 16.1781 7.36554 16.2999C7.36412 16.3233 7.36813 16.3467 7.37724 16.3683C7.38636 16.3899 7.40034 16.409 7.4181 16.4243C7.45567 16.4545 7.50276 16.4702 7.55088 16.4686H7.55642ZM8.1982 16.5101C8.19742 16.4964 8.19948 16.4827 8.20424 16.4699C8.209 16.457 8.21636 16.4453 8.22586 16.4354C8.23583 16.4252 8.24799 16.4175 8.26141 16.4127C8.27482 16.4079 8.28916 16.4062 8.30332 16.4077C8.31788 16.4065 8.33253 16.4084 8.34635 16.4131C8.36016 16.4179 8.37283 16.4255 8.38354 16.4354C8.40072 16.4564 8.40958 16.483 8.40844 16.5101C8.40915 16.5363 8.4003 16.5619 8.38354 16.582C8.36125 16.601 8.33259 16.6109 8.30332 16.6097C8.28921 16.6105 8.27508 16.6085 8.26177 16.6037C8.24846 16.599 8.23625 16.5916 8.22586 16.582C8.21657 16.5726 8.20933 16.5613 8.20457 16.5489C8.19981 16.5366 8.19764 16.5233 8.1982 16.5101ZM8.59931 16.0924C8.59475 15.997 8.61375 15.902 8.65464 15.8158C8.68957 15.7415 8.74531 15.6791 8.81509 15.6359C8.88603 15.5933 8.96745 15.5713 9.05022 15.5723C9.11359 15.5738 9.17582 15.5895 9.23232 15.6182C9.28881 15.6469 9.33814 15.688 9.37665 15.7383C9.46252 15.8433 9.50682 15.9762 9.50113 16.1118C9.5042 16.207 9.48527 16.3017 9.44581 16.3884C9.40928 16.4615 9.35389 16.5236 9.28536 16.5682C9.21356 16.6112 9.13114 16.6332 9.04746 16.6318C8.98602 16.6338 8.92491 16.6221 8.86848 16.5978C8.81206 16.5734 8.76171 16.5368 8.72103 16.4907C8.63516 16.3857 8.59086 16.2528 8.59655 16.1173L8.59931 16.0924ZM8.76806 16.1118C8.76153 16.2101 8.78886 16.3077 8.84552 16.3884C8.86846 16.4211 8.89919 16.4476 8.93492 16.4655C8.97066 16.4833 9.01029 16.492 9.05022 16.4907C9.09047 16.4915 9.13031 16.4826 9.16641 16.4648C9.20251 16.447 9.23382 16.4208 9.2577 16.3884C9.31026 16.306 9.33633 16.2094 9.33239 16.1118C9.33937 16.0134 9.312 15.9156 9.25493 15.8351C9.23165 15.8028 9.20085 15.7765 9.16519 15.7587C9.12953 15.7409 9.09008 15.732 9.05022 15.7328C9.0104 15.7322 8.97103 15.7412 8.93541 15.759C8.89979 15.7768 8.86896 15.8029 8.84552 15.8351C8.79113 15.9168 8.76402 16.0137 8.76806 16.1118ZM10.1512 15.7577C10.1236 15.7549 10.0958 15.7549 10.0682 15.7577C10.0196 15.7542 9.97122 15.7663 9.92994 15.7921C9.88867 15.818 9.85669 15.8563 9.83862 15.9015V16.6069H9.66988V15.6055H9.83586V15.7189C9.86044 15.6786 9.89496 15.6452 9.93612 15.6219C9.97728 15.5987 10.0237 15.5864 10.071 15.5862C10.0965 15.5807 10.1229 15.5807 10.1484 15.5862L10.1512 15.7577ZM10.2204 16.0924C10.2168 15.9662 10.2536 15.8421 10.3255 15.7383C10.3606 15.6969 10.4042 15.6637 10.4534 15.6409C10.5026 15.6181 10.5562 15.6063 10.6104 15.6063C10.6647 15.6063 10.7182 15.6181 10.7674 15.6409C10.8166 15.6637 10.8603 15.6969 10.8954 15.7383V15.6304H11.0503V16.5682C11.0534 16.624 11.045 16.6799 11.0255 16.7322C11.006 16.7846 10.9758 16.8324 10.9368 16.8725C10.8528 16.9479 10.7426 16.9876 10.6298 16.9831C10.5572 16.9824 10.4855 16.9664 10.4195 16.9361C10.3562 16.9104 10.3015 16.8673 10.2619 16.8116L10.3504 16.7093C10.3821 16.7525 10.4239 16.7875 10.472 16.8111C10.5202 16.8347 10.5734 16.8463 10.627 16.8448C10.6625 16.8469 10.698 16.8415 10.7314 16.8292C10.7647 16.8168 10.7951 16.7976 10.8207 16.7729C10.8694 16.7194 10.8952 16.6489 10.8926 16.5765V16.4907C10.8582 16.5298 10.8155 16.5608 10.7677 16.5814C10.7198 16.6019 10.668 16.6116 10.616 16.6097C10.5619 16.61 10.5086 16.5974 10.4604 16.5729C10.4123 16.5483 10.3708 16.5126 10.3393 16.4686C10.2596 16.3596 10.2178 16.2274 10.2204 16.0924ZM10.3891 16.1118C10.3822 16.209 10.4065 16.3058 10.4583 16.3884C10.4799 16.4194 10.509 16.4445 10.5428 16.4614C10.5766 16.4783 10.6141 16.4865 10.6519 16.4852C10.7016 16.4866 10.7505 16.4735 10.7928 16.4475C10.8351 16.4214 10.8688 16.3836 10.8898 16.3386V15.8739C10.8686 15.8298 10.8351 15.7928 10.7934 15.7673C10.7517 15.7418 10.7036 15.7289 10.6547 15.73C10.6169 15.7285 10.5793 15.7365 10.5454 15.7535C10.5115 15.7704 10.4825 15.7956 10.461 15.8268C10.408 15.912 10.3828 16.0116 10.3891 16.1118ZM11.3131 16.7148H11.1665L11.7197 15.2597H11.8663L11.3131 16.7148ZM12.5773 16.3358C12.5786 16.3148 12.5744 16.2939 12.5652 16.275C12.556 16.256 12.542 16.2398 12.5247 16.2279C12.4695 16.1946 12.4085 16.1721 12.3449 16.1615C12.2728 16.1499 12.2029 16.1275 12.1374 16.0952C12.0932 16.075 12.055 16.0435 12.0268 16.0039C12.0018 15.9663 11.9892 15.9218 11.9908 15.8766C11.9905 15.8368 11.9996 15.7975 12.0174 15.762C12.0352 15.7264 12.0611 15.6955 12.0932 15.6719C12.173 15.6122 12.2701 15.5799 12.3698 15.5799C12.4695 15.5799 12.5666 15.6122 12.6464 15.6719C12.6798 15.6982 12.7066 15.7319 12.7248 15.7703C12.7431 15.8087 12.7522 15.8507 12.7515 15.8932H12.58C12.5801 15.8703 12.575 15.8476 12.5649 15.827C12.5548 15.8063 12.5401 15.7883 12.5219 15.7743C12.4797 15.74 12.4269 15.7214 12.3726 15.7217C12.3204 15.7187 12.2688 15.7333 12.2259 15.7632C12.2099 15.7757 12.1968 15.7916 12.1877 15.8098C12.1786 15.828 12.1737 15.848 12.1734 15.8683C12.1726 15.887 12.1767 15.9056 12.1855 15.9221C12.1943 15.9386 12.2073 15.9525 12.2232 15.9624C12.279 15.991 12.3386 16.0114 12.4002 16.0232C12.4709 16.037 12.5396 16.0593 12.6049 16.0896C12.651 16.1119 12.6916 16.144 12.7239 16.1837C12.7493 16.2252 12.7618 16.2733 12.7598 16.322C12.7605 16.3633 12.7513 16.4042 12.733 16.4412C12.7147 16.4782 12.6879 16.5104 12.6547 16.535C12.5736 16.5909 12.4765 16.619 12.3781 16.6152C12.2971 16.6183 12.2165 16.6022 12.143 16.5682C12.0859 16.5411 12.0365 16.5002 11.9991 16.4492C11.9657 16.4014 11.9483 16.3443 11.9493 16.286H12.1181C12.1186 16.3124 12.1251 16.3383 12.1371 16.3618C12.149 16.3852 12.1662 16.4057 12.1872 16.4216C12.236 16.4573 12.2956 16.4749 12.356 16.4714C12.4103 16.474 12.4642 16.4605 12.5109 16.4326C12.5292 16.4234 12.5449 16.4097 12.5565 16.3928C12.5681 16.3758 12.5753 16.3563 12.5773 16.3358ZM12.876 16.0924C12.8724 15.9968 12.8924 15.9018 12.9341 15.8158C12.9691 15.7415 13.0248 15.6791 13.0946 15.6359C13.1645 15.5934 13.2451 15.5713 13.3269 15.5723C13.3888 15.57 13.4505 15.5814 13.5074 15.6058C13.5644 15.6302 13.6152 15.667 13.6561 15.7134C13.742 15.8184 13.7863 15.9513 13.7806 16.0869C13.7852 16.1822 13.7662 16.2772 13.7253 16.3635C13.6907 16.4371 13.6361 16.4994 13.5676 16.5433C13.4956 16.5859 13.4133 16.6079 13.3297 16.6069C13.2679 16.6089 13.2063 16.5973 13.1495 16.5729C13.0926 16.5485 13.0417 16.512 13.0005 16.4658C12.9146 16.3608 12.8703 16.2279 12.876 16.0924ZM13.0475 16.1118C13.0396 16.2102 13.0671 16.3083 13.125 16.3884C13.1478 16.4213 13.1785 16.4479 13.2142 16.4658C13.25 16.4837 13.2897 16.4923 13.3297 16.4907C13.3696 16.4915 13.409 16.4826 13.4447 16.4648C13.4803 16.447 13.5111 16.4207 13.5344 16.3884C13.5892 16.3068 13.6163 16.2099 13.6119 16.1118C13.6189 16.0134 13.5915 15.9156 13.5344 15.8351C13.5104 15.8029 13.479 15.7768 13.443 15.759C13.4069 15.7412 13.3671 15.7322 13.3269 15.7328C13.2875 15.7322 13.2485 15.7412 13.2133 15.759C13.1782 15.7769 13.1479 15.803 13.125 15.8351C13.0695 15.9163 13.0423 16.0135 13.0475 16.1118ZM14.356 16.4797C14.4134 16.4804 14.4693 16.4608 14.5137 16.4243C14.5355 16.4082 14.5535 16.3874 14.5664 16.3635C14.5793 16.3396 14.5868 16.3132 14.5884 16.286H14.7516C14.7467 16.345 14.7257 16.4015 14.6907 16.4492C14.6534 16.501 14.6041 16.5428 14.5469 16.571C14.4878 16.6014 14.4224 16.6175 14.356 16.618C14.2954 16.6208 14.2349 16.6101 14.1789 16.5866C14.1229 16.5632 14.0729 16.5276 14.0323 16.4824C13.9491 16.3774 13.9068 16.2456 13.9134 16.1118V16.0813C13.9112 15.9927 13.9292 15.9047 13.966 15.8241C13.9987 15.7525 14.0516 15.6919 14.1181 15.6498C14.1889 15.6069 14.2704 15.5848 14.3532 15.5862C14.4547 15.5831 14.5536 15.6187 14.6299 15.6857C14.6664 15.7186 14.6958 15.7587 14.7163 15.8034C14.7368 15.8482 14.7478 15.8966 14.7488 15.9458H14.5856C14.5848 15.916 14.5781 15.8867 14.5657 15.8596C14.5534 15.8325 14.5357 15.8082 14.5137 15.7881C14.4693 15.7523 14.413 15.7345 14.356 15.7383C14.3177 15.7368 14.2796 15.7445 14.2449 15.7609C14.2102 15.7773 14.18 15.8018 14.1568 15.8324C14.1031 15.9142 14.0778 16.0114 14.0849 16.109V16.1394C14.0765 16.2371 14.1019 16.3348 14.1568 16.416C14.1831 16.441 14.2147 16.4596 14.2491 16.4706C14.2836 16.4816 14.3202 16.4847 14.356 16.4797ZM15.587 16.1505H15.7724V16.2916H15.587V16.6014H15.4155V16.2916H14.8069V16.192L15.4044 15.2625H15.587V16.1505ZM15.0006 16.1505H15.4155V15.4921L15.3961 15.5308L15.0006 16.1505ZM16.475 16.3358C16.4763 16.3148 16.4722 16.2939 16.4629 16.275C16.4537 16.256 16.4398 16.2398 16.4224 16.2279C16.3672 16.1946 16.3062 16.1721 16.2426 16.1615C16.1714 16.1499 16.1024 16.1275 16.0379 16.0952C15.9931 16.0746 15.9541 16.0433 15.9245 16.0039C15.9007 15.9657 15.8883 15.9216 15.8885 15.8766C15.8888 15.8366 15.8984 15.7973 15.9166 15.7617C15.9349 15.7261 15.9613 15.6954 15.9937 15.6719C16.0714 15.6089 16.1705 15.5782 16.2703 15.5862C16.3704 15.5798 16.4691 15.6114 16.5469 15.6747C16.5803 15.701 16.6071 15.7347 16.6253 15.7731C16.6435 15.8114 16.6527 15.8535 16.652 15.896H16.4833C16.4829 15.8728 16.4772 15.8501 16.4666 15.8295C16.4561 15.8089 16.441 15.7909 16.4224 15.777C16.3797 15.7464 16.3284 15.7299 16.2758 15.7299C16.2232 15.7299 16.172 15.7464 16.1292 15.777C16.1126 15.789 16.0992 15.8049 16.0901 15.8232C16.0809 15.8415 16.0763 15.8617 16.0767 15.8822C16.0761 15.9005 16.0801 15.9187 16.0883 15.9351C16.0965 15.9515 16.1087 15.9657 16.1237 15.9762C16.178 15.9965 16.2347 16.0095 16.2924 16.0149C16.3641 16.0283 16.4338 16.0506 16.4999 16.0813C16.5456 16.1029 16.5854 16.1352 16.6161 16.1754C16.6425 16.2166 16.6559 16.2648 16.6548 16.3137C16.6556 16.3553 16.6462 16.3965 16.6274 16.4336C16.6086 16.4708 16.581 16.5027 16.5469 16.5267C16.4658 16.5826 16.3687 16.6107 16.2703 16.6069C16.198 16.6084 16.1263 16.5943 16.0601 16.5654C16.0025 16.539 15.9529 16.498 15.9162 16.4465C15.8818 16.399 15.8634 16.3419 15.8636 16.2833H16.0158C16.0174 16.3094 16.0244 16.3349 16.0363 16.3582C16.0482 16.3815 16.0647 16.4022 16.0849 16.4188C16.1343 16.4533 16.1935 16.4708 16.2537 16.4686C16.308 16.4712 16.3619 16.4577 16.4086 16.4299C16.4266 16.4209 16.442 16.4076 16.4536 16.3912C16.4652 16.3748 16.4726 16.3558 16.475 16.3358ZM16.7765 16.0924C16.772 15.997 16.791 15.902 16.8319 15.8158C16.8668 15.7415 16.9225 15.6791 16.9923 15.6359C17.0632 15.5933 17.1447 15.5713 17.2274 15.5723C17.2889 15.57 17.3502 15.5814 17.4066 15.6059C17.4631 15.6303 17.5134 15.667 17.5539 15.7134C17.6441 15.8213 17.6879 15.9606 17.6756 16.1007C17.6786 16.1959 17.6597 16.2906 17.6203 16.3773C17.5837 16.4505 17.5283 16.5125 17.4598 16.5571C17.388 16.6001 17.3056 16.6222 17.2219 16.6208C17.1605 16.6227 17.0994 16.6111 17.0429 16.5867C16.9865 16.5623 16.9362 16.5258 16.8955 16.4797C16.8096 16.3747 16.7653 16.2418 16.771 16.1062L16.7765 16.0924ZM16.9453 16.1118C16.9387 16.2101 16.9661 16.3077 17.0227 16.3884C17.0457 16.4211 17.0764 16.4476 17.1121 16.4655C17.1479 16.4833 17.1875 16.492 17.2274 16.4907C17.2677 16.4915 17.3075 16.4826 17.3436 16.4648C17.3797 16.447 17.411 16.4208 17.4349 16.3884C17.4875 16.306 17.5135 16.2094 17.5096 16.1118C17.5166 16.0134 17.4892 15.9156 17.4321 15.8351C17.4089 15.8028 17.3781 15.7765 17.3424 15.7587C17.3067 15.7409 17.2673 15.732 17.2274 15.7328C17.1876 15.7322 17.1482 15.7412 17.1126 15.759C17.077 15.7768 17.0462 15.8029 17.0227 15.8351C16.9683 15.9168 16.9412 16.0137 16.9453 16.1118Z" fill="white"/>
</svg>
