<svg width="24" height="24" viewBox="0 0 24 24" fill="none" xmlns="http://www.w3.org/2000/svg">
<path d="M12 3C14.4398 3 14.7499 2.99982 15.7197 3.0498C16.4649 3.0659 17.2026 3.20782 17.9004 3.46973C18.4958 3.70537 19.035 4.06334 19.4844 4.51953C19.9338 4.97586 20.2832 5.52104 20.5098 6.12012C20.7716 6.81784 20.9136 7.55473 20.9297 8.2998C20.9797 9.25977 20.9805 9.56998 20.9805 12.0098C20.9805 14.4495 20.9297 14.72 20.9297 15.7197C20.9136 16.4649 20.7717 17.2026 20.5098 17.9004C20.2787 18.4974 19.9253 19.0395 19.4727 19.4922C19.0198 19.9451 18.4772 20.2991 17.8799 20.5303C17.1822 20.7921 16.4452 20.9341 15.7002 20.9502C14.7402 21.0002 14.43 21 11.9902 21C9.55046 21 9.28005 20.9502 8.28027 20.9502C7.53512 20.9341 6.7974 20.7922 6.09961 20.5303C5.50146 20.2981 4.95872 19.9428 4.50586 19.4883C4.05292 19.0336 3.69969 18.4888 3.46973 17.8896C3.20792 17.192 3.0659 16.455 3.0498 15.71C2.99981 14.75 3 14.44 3 12C3 9.56024 2.99982 9.25005 3.0498 8.28027C3.0659 7.53512 3.20782 6.7974 3.46973 6.09961C3.70195 5.50146 4.05716 4.95872 4.51172 4.50586C4.96638 4.05292 5.51119 3.69969 6.11035 3.46973C6.80802 3.20792 7.54503 3.0659 8.29004 3.0498C9.25 2.99981 9.56004 3 12 3ZM12 4.63965C9.5903 4.63965 9.31007 4.69042 8.36035 4.69043C7.79021 4.69776 7.22523 4.80227 6.69043 5C6.30796 5.15086 5.96064 5.3792 5.66992 5.66992C5.3792 5.96064 5.15086 6.30796 5 6.69043C4.80227 7.22523 4.69776 7.79021 4.69043 8.36035C4.64045 9.31009 4.63965 9.59028 4.63965 12C4.63965 14.4097 4.69042 14.6899 4.69043 15.6396C4.69776 16.2098 4.80227 16.7748 5 17.3096C5.15086 17.692 5.3792 18.0394 5.66992 18.3301C5.96064 18.6208 6.30796 18.8491 6.69043 19C7.22523 19.1977 7.79021 19.3022 8.36035 19.3096C9.31009 19.3596 9.59028 19.3604 12 19.3604C14.4097 19.3604 14.6899 19.3096 15.6396 19.3096C16.2098 19.3022 16.7748 19.1977 17.3096 19C17.692 18.8491 18.0394 18.6208 18.3301 18.3301C18.6208 18.0394 18.8491 17.692 19 17.3096C19.1977 16.7748 19.3022 16.2098 19.3096 15.6396C19.3596 14.6899 19.3604 14.4097 19.3604 12C19.3604 9.5903 19.3096 9.31007 19.3096 8.36035C19.3022 7.79021 19.1977 7.22523 19 6.69043C18.8491 6.30796 18.6208 5.96064 18.3301 5.66992C18.0394 5.3792 17.692 5.15086 17.3096 5C16.776 4.79544 16.211 4.68365 15.6396 4.66992C14.6899 4.61994 14.3997 4.62012 12 4.62012V4.63965ZM12 7.37988C13.2253 7.37991 14.4002 7.86701 15.2666 8.7334C16.1329 9.59981 16.6201 10.7748 16.6201 12C16.6201 12.9137 16.3485 13.8067 15.8408 14.5664C15.3332 15.3261 14.6117 15.9189 13.7676 16.2686C12.9235 16.6181 11.9947 16.7095 11.0986 16.5312C10.2025 16.353 9.3795 15.9127 8.7334 15.2666C8.08732 14.6205 7.64704 13.7975 7.46875 12.9014C7.29049 12.0052 7.38177 11.0756 7.73145 10.2314C8.08114 9.38739 8.67394 8.66579 9.43359 8.1582C10.1933 7.65074 11.0864 7.37988 12 7.37988ZM13.1475 9.22852C12.5995 9.00161 11.9968 8.94199 11.415 9.05762C10.8331 9.17337 10.2985 9.45935 9.87891 9.87891C9.45935 10.2985 9.17337 10.8331 9.05762 11.415C8.94199 11.9968 9.00161 12.5995 9.22852 13.1475C9.45555 13.6956 9.83975 14.1645 10.333 14.4941C10.8264 14.8238 11.4067 15 12 15C12.7956 15 13.5585 14.6837 14.1211 14.1211C14.6837 13.5585 15 12.7956 15 12C15 11.4067 14.8238 10.8264 14.4941 10.333C14.1645 9.83975 13.6956 9.45555 13.1475 9.22852ZM16.7998 6.12012C17.3963 6.12012 17.8799 6.60373 17.8799 7.2002C17.8798 7.79657 17.3962 8.28027 16.7998 8.28027C16.2035 8.28018 15.7198 7.79652 15.7197 7.2002C15.7197 6.60378 16.2034 6.12021 16.7998 6.12012Z" fill="#242424"/>
</svg>
