<svg width="27" height="27" viewBox="0 0 27 27" fill="none" xmlns="http://www.w3.org/2000/svg">
<path d="M11.6785 1.28712H13.0386L13.4676 0L13.8816 1.28712H15.2438L14.1283 2.09587L14.5574 3.39371L13.4612 2.58926L12.3564 3.38299L12.7854 2.09587L11.6785 1.28712ZM17.5456 2.92391H18.9057L19.3347 1.63679L19.7488 2.92391H21.111L20.0062 3.71978L20.4223 5.00691L19.324 4.2046L18.2192 4.99833L18.6483 3.7112L17.5456 2.92391ZM11.7107 24.6699H13.0707L13.4998 23.3827L13.9138 24.6699H15.276L14.1712 25.4657L14.5874 26.7528L13.4848 25.972L12.38 26.7679L12.809 25.4807L11.7107 24.6699ZM17.5306 23.1425H18.8928L19.3219 21.8553L19.738 23.1425H21.0981L19.9955 23.9362L20.4095 25.234L19.3111 24.4296L18.2042 25.2383L18.6332 23.9512L17.5306 23.1425ZM21.8511 18.8177H23.2133L23.6423 17.5306L24.0585 18.8177H25.4185L24.3202 19.6329L24.7342 20.92L23.6359 20.1156L22.5332 20.92L22.9623 19.6329L21.8511 18.8177ZM23.4321 12.927H24.7921L25.2212 11.6399L25.6373 12.927H26.9995L25.8948 13.7229L26.3088 15.01L25.2126 14.2055L24.1078 15.0014L24.5369 13.7143L23.4321 12.927ZM21.9476 7.06416H23.3077L23.7367 5.77704L24.1529 7.06416H25.5129L24.4081 7.86003L24.8243 9.14715L23.726 8.3427L22.6212 9.13857L23.0502 7.85145L21.9476 7.06416ZM5.86499 23.1425H7.2272L7.65624 21.8553L8.07241 23.1425H9.43247L8.32769 23.9362L8.74386 25.234L7.64551 24.4296L6.54287 25.2233L6.97192 23.9362L5.86499 23.1425ZM1.60247 18.7898H2.96467L3.39371 17.5027L3.80988 18.7898H5.16994L4.06731 19.5857L4.48133 20.8728L3.38299 20.0684L2.28035 20.8643L2.70939 19.5771L1.60247 18.7898ZM0 12.927H1.36006L1.7891 11.6399L2.20527 12.927H3.56748L2.4584 13.7357L2.87243 15.0229L1.77623 14.227L0.671449 15.0229L1.10049 13.7357L0 12.927ZM1.60247 7.06416H2.96467L3.39371 5.77704L3.80988 7.06416H5.16994L4.06731 7.86003L4.48133 9.14715L3.38299 8.3427L2.28035 9.13857L2.70939 7.85145L1.60247 7.06416ZM5.78133 2.92391H7.14353L7.57257 1.63679L7.98874 2.92391H9.3488L8.24617 3.71978L8.66019 5.00691L7.56185 4.2046L6.45921 4.99833L6.88825 3.7112L5.78133 2.92391Z" fill="#FFCD02"/>
</svg>
