<svg width="30" height="27" viewBox="0 0 30 27" fill="none" xmlns="http://www.w3.org/2000/svg">
<path d="M2.26804 23.1406L3.59107 25.4424C3.86598 25.927 4.26117 26.3077 4.72509 26.5846L9.45017 18.3465H0C0 18.883 0.137457 19.4196 0.412371 19.9041L2.26804 23.1406Z" fill="#0066DA"/>
<path d="M15 8.65559L10.2749 0.417466C9.811 0.694377 9.41581 1.07513 9.14089 1.55973L0.412371 16.7899C0.142513 17.264 0.0003593 17.8 0 18.3465H9.45017L15 8.65559Z" fill="#00AC47"/>
<path d="M25.2749 26.5846C25.7388 26.3077 26.134 25.927 26.4089 25.4424L26.9588 24.4905L29.5876 19.9041C29.8625 19.4196 30 18.883 30 18.3465H20.5491L22.5601 22.3271L25.2749 26.5846Z" fill="#EA4335"/>
<path d="M15.0001 8.65349L19.7252 0.415367C19.2613 0.138456 18.7286 0 18.1788 0H11.8214C11.2716 0 10.7389 0.155763 10.275 0.415367L15.0001 8.65349Z" fill="#00832D"/>
<path d="M20.5491 18.3465H9.45017L4.72509 26.5846C5.189 26.8616 5.72163 27 6.27146 27H23.7285C24.2783 27 24.811 26.8442 25.2749 26.5846L20.5491 18.3465Z" fill="#2684FC"/>
<path d="M25.2235 9.1748L20.8592 1.55973C20.5843 1.07513 20.1891 0.694377 19.7252 0.417466L15 8.65559L20.5491 18.3465L29.9829 18.3475C29.9829 17.811 29.8454 17.2745 29.5705 16.7899L25.2235 9.1748Z" fill="#FFBA00"/>
</svg>
