<svg width="18" height="17" viewBox="0 0 18 17" fill="none" xmlns="http://www.w3.org/2000/svg">
<path fill-rule="evenodd" clip-rule="evenodd" d="M15.9958 4.4877L15.9202 4.52573C15.2773 3.99329 14.4454 3.65101 13.3866 3.65101C12.0252 3.65101 10.7773 4.14541 9.94538 5.13423L11.2311 6.50336C11.874 5.89485 12.5546 5.55257 13.4244 5.55257C15.0504 5.5906 16.1092 6.84564 16.1092 8.51902C16.1092 10.1924 15.0126 11.4855 13.3487 11.4855C9.18908 11.4855 10.3613 3.65101 4.76471 3.65101C1.96639 3.65101 0 5.74273 0 8.51902V17H2.0042V12.4743L2.07983 12.4362C2.72269 12.9687 3.55462 13.311 4.61345 13.311C5.97479 13.311 7.22269 12.8166 8.05462 11.8277L6.76891 10.4586C6.12605 11.0671 5.44538 11.4094 4.57563 11.4094C2.94958 11.3714 1.89076 10.1163 1.89076 8.44295C1.89076 6.76958 2.98739 5.47651 4.65126 5.47651C8.81092 5.47651 7.63866 13.311 13.2353 13.311C16.0336 13.311 18 11.2192 18 8.44295V0H15.9958V4.4877Z" fill="white"/>
</svg>
