<svg width="87" height="14" viewBox="0 0 87 14" fill="none" xmlns="http://www.w3.org/2000/svg">
<path fill-rule="evenodd" clip-rule="evenodd" d="M39.2084 0V5.71264C38.604 4.90805 37.6369 4.38506 36.3474 4.38506C33.8087 4.38506 31.7939 6.39655 31.7939 9.17241C31.7939 11.9483 33.8087 13.9598 36.3474 13.9598C37.6369 13.9598 38.5637 13.4368 39.2084 12.6322V13.7184H41.2233V0H39.2084ZM33.8087 9.17241C33.8087 10.7816 34.8564 12.1092 36.5489 12.1092C38.201 12.1092 39.289 10.8621 39.289 9.17241C39.289 7.52299 38.201 6.23563 36.5489 6.23563C34.8564 6.23563 33.8087 7.56322 33.8087 9.17241Z" fill="#242424"/>
<path fill-rule="evenodd" clip-rule="evenodd" d="M2.17601 8.52874V13.7184H0V0.402299H5.19824C8.30106 0.402299 9.95322 1.97126 9.95322 4.46552C9.95322 6.95977 8.30106 8.52874 5.19824 8.52874H2.17601ZM2.17601 2.41379V6.43678H5.15794C6.89069 6.43678 7.69662 5.7931 7.69662 4.42529C7.69662 3.05747 6.89069 2.41379 5.15794 2.41379H2.17601Z" fill="#242424"/>
<path fill-rule="evenodd" clip-rule="evenodd" d="M19.8258 13.7184H17.811V12.6322C17.1663 13.4368 16.2395 13.9598 14.95 13.9598C12.4113 13.9598 10.3965 11.9483 10.3965 9.17241C10.3965 6.39655 12.4113 4.38506 14.95 4.38506C16.2395 4.38506 17.2066 4.90805 17.811 5.71264V4.62644H19.8258V13.7184ZM15.1515 12.1092C13.459 12.1092 12.4113 10.7816 12.4113 9.17241C12.4113 7.56322 13.459 6.23563 15.1515 6.23563C16.8036 6.23563 17.8916 7.52299 17.8916 9.17241C17.8916 10.8621 16.8036 12.1092 15.1515 12.1092Z" fill="#242424"/>
<path d="M30.5044 8.00575V13.7586H28.4896V8.64943C28.4896 7.12069 27.6836 6.27586 26.3539 6.27586C25.0644 6.27586 23.9764 7.12069 23.9764 8.68966V13.7586H21.9616V4.62644H23.9361V5.75287C24.6614 4.66667 25.7897 4.38506 26.7568 4.38506C28.9731 4.38506 30.5044 5.87356 30.5044 8.00575Z" fill="#242424"/>
<path fill-rule="evenodd" clip-rule="evenodd" d="M50.1691 13.7184H52.1839V4.62644H50.1691V5.71264C49.5646 4.90805 48.5975 4.38506 47.308 4.38506C44.7693 4.38506 42.7545 6.39655 42.7545 9.17241C42.7545 11.9483 44.7693 13.9598 47.308 13.9598C48.5975 13.9598 49.5243 13.4368 50.1691 12.6322V13.7184ZM44.7693 9.17241C44.7693 10.7816 45.817 12.1092 47.5095 12.1092C49.1616 12.1092 50.2497 10.8621 50.2497 9.17241C50.2497 7.52299 49.1616 6.23563 47.5095 6.23563C45.817 6.23563 44.7693 7.56322 44.7693 9.17241Z" fill="#242424"/>
<path fill-rule="evenodd" clip-rule="evenodd" d="M66.6906 7.08046C66.6906 3.05747 63.9504 0.402299 59.7596 0.402299H54.4405V13.7586H59.7596C63.9504 13.7586 66.6906 11.1034 66.6906 7.08046ZM56.6165 2.45402V11.7069H59.7596C62.9027 11.7069 64.434 9.77586 64.434 7.08046C64.434 4.34483 62.9027 2.45402 59.7596 2.45402H56.6165Z" fill="#242424"/>
<path fill-rule="evenodd" clip-rule="evenodd" d="M72.6545 13.9598C75.4752 13.9598 77.5706 11.908 77.5706 9.17241C77.5706 6.43678 75.4752 4.38506 72.6545 4.38506C69.8337 4.38506 67.7383 6.43678 67.7383 9.17241C67.7383 11.908 69.8337 13.9598 72.6545 13.9598ZM69.7934 9.17241C69.7934 10.9023 71.0426 12.1092 72.6545 12.1092C74.3066 12.1092 75.5155 10.9023 75.5155 9.17241C75.5155 7.44253 74.2663 6.23563 72.6545 6.23563C71.0426 6.23563 69.7934 7.44253 69.7934 9.17241Z" fill="#242424"/>
<path d="M85.6702 7.20115L86.9597 5.83333C86.1538 4.86782 84.9046 4.38506 83.5748 4.42529C80.6735 4.42529 78.7795 6.47701 78.7795 9.21264C78.7795 11.9483 80.6735 14 83.5748 14C84.9449 14 86.1538 13.5172 87 12.5517L85.7508 11.1839C85.1464 11.7471 84.3807 12.1494 83.4942 12.1494C81.9629 12.1494 80.7943 10.9425 80.7943 9.21264C80.7943 7.48276 81.9629 6.27586 83.4942 6.27586C84.3404 6.27586 85.0255 6.5977 85.6702 7.20115Z" fill="#242424"/>
</svg>
