<svg width="18" height="18" viewBox="0 0 18 18" fill="none" xmlns="http://www.w3.org/2000/svg">
<path fill-rule="evenodd" clip-rule="evenodd" d="M10.3597 0C14.5625 0 17.9696 3.40709 17.9696 7.60994C17.9696 11.8128 14.5625 15.2199 10.3597 15.2199C8.63179 15.2199 7.03842 14.644 5.761 13.6737L1.43494 18L0 16.5651L4.32236 12.2433C3.33608 10.9601 2.74972 9.35349 2.74972 7.60994C2.74972 3.40709 6.15681 0 10.3597 0ZM10.3597 2.02932C7.27757 2.02932 4.77904 4.52785 4.77904 7.60994C4.77904 10.692 7.27757 13.1906 10.3597 13.1906C13.4418 13.1906 15.9403 10.692 15.9403 7.60994C15.9403 4.52785 13.4418 2.02932 10.3597 2.02932Z" fill="#242424" fill-opacity="0.3"/>
</svg>
