<svg width="36" height="36" viewBox="0 0 36 36" fill="none" xmlns="http://www.w3.org/2000/svg">
<path d="M18.3638 20.1931C23.1566 20.1931 27.042 16.3077 27.042 11.5149C27.042 6.72204 23.1566 2.83667 18.3638 2.83667C13.5709 2.83667 9.68555 6.72204 9.68555 11.5149C9.68555 16.3077 13.5709 20.1931 18.3638 20.1931Z" fill="#00686C"/>
<path d="M18.3638 20.1931C23.1566 20.1931 27.042 16.3077 27.042 11.5149C27.042 6.72204 23.1566 2.83667 18.3638 2.83667C13.5709 2.83667 9.68555 6.72204 9.68555 11.5149C9.68555 16.3077 13.5709 20.1931 18.3638 20.1931Z" fill="url(#paint0_linear_87_3545)"/>
<path d="M25.5957 27.4252C29.9891 27.4252 33.5507 23.8636 33.5507 19.4702C33.5507 15.0767 29.9891 11.5151 25.5957 11.5151C21.2022 11.5151 17.6406 15.0767 17.6406 19.4702C17.6406 23.8636 21.2022 27.4252 25.5957 27.4252Z" fill="#18919A"/>
<path d="M25.5957 27.4252C29.9891 27.4252 33.5507 23.8636 33.5507 19.4702C33.5507 15.0767 29.9891 11.5151 25.5957 11.5151C21.2022 11.5151 17.6406 15.0767 17.6406 19.4702C17.6406 23.8636 21.2022 27.4252 25.5957 27.4252Z" fill="url(#paint1_linear_87_3545)"/>
<path d="M19.4439 33.2102C22.8389 33.2102 25.591 30.458 25.591 27.0631C25.591 23.6682 22.8389 20.916 19.4439 20.916C16.049 20.916 13.2969 23.6682 13.2969 27.0631C13.2969 30.458 16.049 33.2102 19.4439 33.2102Z" fill="#37C6D0"/>
<path d="M19.4439 33.2102C22.8389 33.2102 25.591 30.458 25.591 27.0631C25.591 23.6682 22.8389 20.916 19.4439 20.916C16.049 20.916 13.2969 23.6682 13.2969 27.0631C13.2969 30.458 16.049 33.2102 19.4439 33.2102Z" fill="url(#paint2_linear_87_3545)"/>
<path d="M19.4439 33.2102C22.8389 33.2102 25.591 30.458 25.591 27.0631C25.591 23.6682 22.8389 20.916 19.4439 20.916C16.049 20.916 13.2969 23.6682 13.2969 27.0631C13.2969 30.458 16.049 33.2102 19.4439 33.2102Z" fill="url(#paint3_linear_87_3545)"/>
<path d="M19.4439 33.2102C22.8389 33.2102 25.591 30.458 25.591 27.0631C25.591 23.6682 22.8389 20.916 19.4439 20.916C16.049 20.916 13.2969 23.6682 13.2969 27.0631C13.2969 30.458 16.049 33.2102 19.4439 33.2102Z" fill="url(#paint4_linear_87_3545)"/>
<path d="M3.77872 10.0686H17.0376C17.7697 10.0686 18.3632 10.6621 18.3632 11.3942V24.6531C18.3632 25.3852 17.7697 25.9787 17.0376 25.9787H3.77872C3.04662 25.9787 2.45312 25.3852 2.45312 24.6531V11.3942C2.45312 10.6621 3.04662 10.0686 3.77872 10.0686Z" fill="url(#paint5_linear_87_3545)"/>
<path d="M8.37446 17.8619C8.06381 17.6559 7.80432 17.3816 7.61583 17.0599C7.4332 16.7237 7.34217 16.3453 7.35187 15.9628C7.3356 15.4449 7.51037 14.9391 7.8429 14.5418C8.19234 14.1439 8.64402 13.8493 9.14898 13.6899C9.72447 13.5004 10.3272 13.4071 10.9331 13.4136C11.7298 13.3845 12.5253 13.4959 13.2834 13.7427V15.406C12.954 15.2065 12.5953 15.06 12.2203 14.9721C11.8135 14.8723 11.3961 14.8223 10.9772 14.8231C10.5355 14.8069 10.0966 14.8998 9.69931 15.0936C9.39261 15.2259 9.19373 15.5276 9.19309 15.8616C9.19184 16.0642 9.26967 16.2593 9.41004 16.4054C9.57583 16.5777 9.77195 16.7179 9.98859 16.8191C10.2296 16.9392 10.5912 17.0987 11.0734 17.2979C11.1265 17.3146 11.1782 17.3354 11.2281 17.3601C11.7026 17.5455 12.1604 17.7712 12.5964 18.0348C12.9266 18.2384 13.2037 18.5175 13.4049 18.8491C13.6112 19.225 13.7112 19.65 13.6942 20.0785C13.7177 20.6102 13.5551 21.1335 13.2342 21.5582C12.9145 21.9485 12.4869 22.2363 12.0048 22.3855C11.4378 22.5632 10.846 22.6491 10.2518 22.64C9.71874 22.6424 9.18644 22.5989 8.66083 22.5099C8.21702 22.4372 7.78392 22.31 7.37139 22.1309V20.3772C7.76572 20.6588 8.20627 20.8693 8.67313 20.9991C9.13841 21.1441 9.62208 21.2216 10.1094 21.2291C10.5604 21.2577 11.0106 21.1621 11.4111 20.9528C11.6917 20.7945 11.8623 20.4946 11.8551 20.1725C11.857 19.9484 11.7684 19.733 11.6093 19.5752C11.4114 19.3809 11.1823 19.2213 10.9316 19.1029C10.6424 18.9583 10.2164 18.7676 9.65378 18.5309C9.20618 18.3509 8.77762 18.1269 8.37446 17.8619Z" fill="white"/>
<defs>
<linearGradient id="paint0_linear_87_3545" x1="19.7531" y1="12.9948" x2="21.8995" y2="4.79948" gradientUnits="userSpaceOnUse">
<stop stop-color="#005053"/>
<stop offset="1" stop-color="#00686C" stop-opacity="0"/>
</linearGradient>
<linearGradient id="paint1_linear_87_3545" x1="21.2941" y1="22.7398" x2="28.4518" y2="14.365" gradientUnits="userSpaceOnUse">
<stop stop-color="#006870"/>
<stop offset="1" stop-color="#18919A" stop-opacity="0"/>
</linearGradient>
<linearGradient id="paint2_linear_87_3545" x1="19.4439" y1="26.0289" x2="19.4439" y2="33.2102" gradientUnits="userSpaceOnUse">
<stop stop-color="#197E85"/>
<stop offset="1" stop-color="#37C6D0" stop-opacity="0"/>
</linearGradient>
<linearGradient id="paint3_linear_87_3545" x1="18.5243" y1="25.9543" x2="24.0488" y2="25.9543" gradientUnits="userSpaceOnUse">
<stop stop-color="#37C6D0" stop-opacity="0"/>
<stop offset="1" stop-color="#37C6D0"/>
</linearGradient>
<linearGradient id="paint4_linear_87_3545" x1="16.7019" y1="23.7374" x2="23.115" y2="29.2001" gradientUnits="userSpaceOnUse">
<stop stop-color="#37C6D0" stop-opacity="0"/>
<stop offset="1" stop-color="#37C6D0"/>
</linearGradient>
<linearGradient id="paint5_linear_87_3545" x1="5.21703" y1="9.03281" x2="15.5993" y2="27.0145" gradientUnits="userSpaceOnUse">
<stop stop-color="#058F92"/>
<stop offset="0.5" stop-color="#038489"/>
<stop offset="1" stop-color="#026D71"/>
</linearGradient>
</defs>
</svg>
