<svg width="316" height="28" viewBox="0 0 316 28" fill="none" xmlns="http://www.w3.org/2000/svg">
<rect width="28" height="28" rx="8" fill="#6453CF"/>
<path fill-rule="evenodd" clip-rule="evenodd" d="M15.964 19.2381L18.1247 14.1965L23.1663 12.0358L18.1247 9.87505L15.964 4.83337L13.8033 9.87505L8.76158 12.0358L13.8033 14.1965L15.964 19.2381ZM16.9279 12.9997L19.1771 12.0358L16.9279 11.0718L15.964 8.82259L15 11.0718L12.7508 12.0358L15 12.9997L15.964 15.2489L16.9279 12.9997Z" fill="white"/>
<path d="M9.94014 20.4167L8.76158 23.1667L7.58302 20.4167L4.83301 19.2381L7.58302 18.0596L8.76158 15.3096L9.94014 18.0596L12.6902 19.2381L9.94014 20.4167Z" fill="white"/>
<path d="M42.716 8.13H46.514L50.69 21H47.648L46.766 18.138H42.104L41.222 21H38.486L42.716 8.13ZM42.734 16.068H46.136L44.444 10.506L42.734 16.068ZM52.7496 8.13H55.6836V21H52.7496V8.13ZM65.0363 21.198C64.6043 21.198 64.1963 21.144 63.8123 21.036C63.4403 20.928 63.1103 20.76 62.8223 20.532C62.5343 20.304 62.3063 20.016 62.1383 19.668C61.9703 19.308 61.8863 18.882 61.8863 18.39C61.8863 17.838 62.0063 17.37 62.2463 16.986C62.4863 16.602 62.8223 16.29 63.2543 16.05C63.6863 15.81 64.2023 15.636 64.8023 15.528C65.4023 15.42 66.0623 15.366 66.7823 15.366H67.8443V14.988C67.8443 14.424 67.7363 13.998 67.5203 13.71C67.3163 13.41 66.9143 13.26 66.3143 13.26C65.7983 13.26 65.4143 13.38 65.1623 13.62C64.9223 13.86 64.7723 14.184 64.7123 14.592H62.2463C62.2823 14.04 62.4143 13.56 62.6423 13.152C62.8823 12.744 63.1883 12.408 63.5603 12.144C63.9323 11.88 64.3643 11.688 64.8563 11.568C65.3603 11.436 65.9003 11.37 66.4763 11.37C67.0523 11.37 67.5803 11.436 68.0603 11.568C68.5403 11.688 68.9603 11.886 69.3203 12.162C69.6683 12.438 69.9383 12.798 70.1303 13.242C70.3223 13.686 70.4183 14.226 70.4183 14.862V21H67.8803V19.866C67.6043 20.25 67.2443 20.568 66.8003 20.82C66.3683 21.072 65.7803 21.198 65.0363 21.198ZM65.8103 19.38C66.3863 19.38 66.8663 19.236 67.2503 18.948C67.6463 18.648 67.8443 18.234 67.8443 17.706V16.914H66.8363C66.0803 16.914 65.4923 17.01 65.0723 17.202C64.6523 17.394 64.4423 17.742 64.4423 18.246C64.4423 18.594 64.5503 18.87 64.7663 19.074C64.9823 19.278 65.3303 19.38 65.8103 19.38ZM76.2894 21.198C75.0174 21.198 74.0274 20.928 73.3194 20.388C72.6114 19.848 72.2334 19.068 72.1854 18.048H74.6154C74.6754 18.468 74.8194 18.798 75.0474 19.038C75.2874 19.266 75.6954 19.38 76.2714 19.38C76.7754 19.38 77.1474 19.29 77.3874 19.11C77.6274 18.93 77.7474 18.678 77.7474 18.354C77.7474 18.03 77.5974 17.79 77.2974 17.634C77.0094 17.466 76.5234 17.334 75.8394 17.238C75.2154 17.142 74.6814 17.022 74.2374 16.878C73.8054 16.734 73.4514 16.548 73.1754 16.32C72.8874 16.092 72.6774 15.816 72.5454 15.492C72.4254 15.156 72.3654 14.76 72.3654 14.304C72.3654 13.812 72.4674 13.386 72.6714 13.026C72.8874 12.654 73.1694 12.342 73.5174 12.09C73.8534 11.85 74.2434 11.67 74.6874 11.55C75.1434 11.43 75.6114 11.37 76.0914 11.37C76.6074 11.37 77.0874 11.424 77.5314 11.532C77.9874 11.628 78.3894 11.79 78.7374 12.018C79.0734 12.246 79.3494 12.546 79.5654 12.918C79.7814 13.29 79.9194 13.746 79.9794 14.286H77.5854C77.5134 13.902 77.3634 13.62 77.1354 13.44C76.9074 13.248 76.5654 13.152 76.1094 13.152C75.6894 13.152 75.3594 13.242 75.1194 13.422C74.8914 13.602 74.7774 13.836 74.7774 14.124C74.7774 14.424 74.9094 14.646 75.1734 14.79C75.4374 14.934 75.9114 15.054 76.5954 15.15C77.1834 15.234 77.7054 15.342 78.1614 15.474C78.6174 15.606 79.0014 15.78 79.3134 15.996C79.6134 16.224 79.8414 16.506 79.9974 16.842C80.1654 17.178 80.2494 17.598 80.2494 18.102C80.2494 19.122 79.9014 19.896 79.2054 20.424C78.5094 20.94 77.5374 21.198 76.2894 21.198ZM85.5355 21.198C84.2635 21.198 83.2735 20.928 82.5655 20.388C81.8575 19.848 81.4795 19.068 81.4315 18.048H83.8615C83.9215 18.468 84.0655 18.798 84.2935 19.038C84.5335 19.266 84.9415 19.38 85.5175 19.38C86.0215 19.38 86.3935 19.29 86.6335 19.11C86.8735 18.93 86.9935 18.678 86.9935 18.354C86.9935 18.03 86.8435 17.79 86.5435 17.634C86.2555 17.466 85.7695 17.334 85.0855 17.238C84.4615 17.142 83.9275 17.022 83.4835 16.878C83.0515 16.734 82.6975 16.548 82.4215 16.32C82.1335 16.092 81.9235 15.816 81.7915 15.492C81.6715 15.156 81.6115 14.76 81.6115 14.304C81.6115 13.812 81.7135 13.386 81.9175 13.026C82.1335 12.654 82.4155 12.342 82.7635 12.09C83.0995 11.85 83.4895 11.67 83.9335 11.55C84.3895 11.43 84.8575 11.37 85.3375 11.37C85.8535 11.37 86.3335 11.424 86.7775 11.532C87.2335 11.628 87.6355 11.79 87.9835 12.018C88.3195 12.246 88.5955 12.546 88.8115 12.918C89.0275 13.29 89.1655 13.746 89.2255 14.286H86.8315C86.7595 13.902 86.6095 13.62 86.3815 13.44C86.1535 13.248 85.8115 13.152 85.3555 13.152C84.9355 13.152 84.6055 13.242 84.3655 13.422C84.1375 13.602 84.0235 13.836 84.0235 14.124C84.0235 14.424 84.1555 14.646 84.4195 14.79C84.6835 14.934 85.1575 15.054 85.8415 15.15C86.4295 15.234 86.9515 15.342 87.4075 15.474C87.8635 15.606 88.2475 15.78 88.5595 15.996C88.8595 16.224 89.0875 16.506 89.2435 16.842C89.4115 17.178 89.4955 17.598 89.4955 18.102C89.4955 19.122 89.1475 19.896 88.4515 20.424C87.7555 20.94 86.7835 21.198 85.5355 21.198ZM92.7116 10.308C92.2916 10.308 91.9376 10.176 91.6496 9.912C91.3736 9.636 91.2356 9.294 91.2356 8.886C91.2356 8.478 91.3736 8.142 91.6496 7.878C91.9376 7.602 92.2916 7.464 92.7116 7.464C93.1316 7.464 93.4856 7.602 93.7736 7.878C94.0616 8.142 94.2056 8.478 94.2056 8.886C94.2056 9.294 94.0616 9.636 93.7736 9.912C93.4856 10.176 93.1316 10.308 92.7116 10.308ZM91.4336 11.586H94.0256V21H91.4336V11.586ZM100.055 21.198C98.783 21.198 97.793 20.928 97.085 20.388C96.377 19.848 95.999 19.068 95.951 18.048H98.381C98.441 18.468 98.585 18.798 98.813 19.038C99.053 19.266 99.461 19.38 100.037 19.38C100.541 19.38 100.913 19.29 101.153 19.11C101.393 18.93 101.513 18.678 101.513 18.354C101.513 18.03 101.363 17.79 101.063 17.634C100.775 17.466 100.289 17.334 99.605 17.238C98.981 17.142 98.447 17.022 98.003 16.878C97.571 16.734 97.217 16.548 96.941 16.32C96.653 16.092 96.443 15.816 96.311 15.492C96.191 15.156 96.131 14.76 96.131 14.304C96.131 13.812 96.233 13.386 96.437 13.026C96.653 12.654 96.935 12.342 97.283 12.09C97.619 11.85 98.009 11.67 98.453 11.55C98.909 11.43 99.377 11.37 99.857 11.37C100.373 11.37 100.853 11.424 101.297 11.532C101.753 11.628 102.155 11.79 102.503 12.018C102.839 12.246 103.115 12.546 103.331 12.918C103.547 13.29 103.685 13.746 103.745 14.286H101.351C101.279 13.902 101.129 13.62 100.901 13.44C100.673 13.248 100.331 13.152 99.875 13.152C99.455 13.152 99.125 13.242 98.885 13.422C98.657 13.602 98.543 13.836 98.543 14.124C98.543 14.424 98.675 14.646 98.939 14.79C99.203 14.934 99.677 15.054 100.361 15.15C100.949 15.234 101.471 15.342 101.927 15.474C102.383 15.606 102.767 15.78 103.079 15.996C103.379 16.224 103.607 16.506 103.763 16.842C103.931 17.178 104.015 17.598 104.015 18.102C104.015 19.122 103.667 19.896 102.971 20.424C102.275 20.94 101.303 21.198 100.055 21.198ZM109.319 21.18C108.323 21.18 107.567 20.934 107.051 20.442C106.535 19.938 106.277 19.194 106.277 18.21V13.44H105.071V11.586H106.277V9.552H108.869V11.586H110.849V13.44H108.869V17.976C108.869 18.348 108.953 18.63 109.121 18.822C109.301 19.002 109.565 19.092 109.913 19.092C110.105 19.092 110.279 19.08 110.435 19.056C110.603 19.02 110.759 18.972 110.903 18.912V20.928C110.723 20.988 110.501 21.042 110.237 21.09C109.973 21.15 109.667 21.18 109.319 21.18ZM115.503 21.198C115.071 21.198 114.663 21.144 114.279 21.036C113.907 20.928 113.577 20.76 113.289 20.532C113.001 20.304 112.773 20.016 112.605 19.668C112.437 19.308 112.353 18.882 112.353 18.39C112.353 17.838 112.473 17.37 112.713 16.986C112.953 16.602 113.289 16.29 113.721 16.05C114.153 15.81 114.669 15.636 115.269 15.528C115.869 15.42 116.529 15.366 117.249 15.366H118.311V14.988C118.311 14.424 118.203 13.998 117.987 13.71C117.783 13.41 117.381 13.26 116.781 13.26C116.265 13.26 115.881 13.38 115.629 13.62C115.389 13.86 115.239 14.184 115.179 14.592H112.713C112.749 14.04 112.881 13.56 113.109 13.152C113.349 12.744 113.655 12.408 114.027 12.144C114.399 11.88 114.831 11.688 115.323 11.568C115.827 11.436 116.367 11.37 116.943 11.37C117.519 11.37 118.047 11.436 118.527 11.568C119.007 11.688 119.427 11.886 119.787 12.162C120.135 12.438 120.405 12.798 120.597 13.242C120.789 13.686 120.885 14.226 120.885 14.862V21H118.347V19.866C118.071 20.25 117.711 20.568 117.267 20.82C116.835 21.072 116.247 21.198 115.503 21.198ZM116.277 19.38C116.853 19.38 117.333 19.236 117.717 18.948C118.113 18.648 118.311 18.234 118.311 17.706V16.914H117.303C116.547 16.914 115.959 17.01 115.539 17.202C115.119 17.394 114.909 17.742 114.909 18.246C114.909 18.594 115.017 18.87 115.233 19.074C115.449 19.278 115.797 19.38 116.277 19.38ZM123.336 11.586H125.946V13.08C126.186 12.612 126.558 12.21 127.062 11.874C127.566 11.538 128.214 11.37 129.006 11.37C129.474 11.37 129.9 11.442 130.284 11.586C130.668 11.73 131.004 11.946 131.292 12.234C131.568 12.534 131.784 12.918 131.94 13.386C132.096 13.842 132.174 14.382 132.174 15.006V21H129.564V15.384C129.564 14.736 129.432 14.262 129.168 13.962C128.904 13.65 128.484 13.494 127.908 13.494C127.344 13.494 126.876 13.668 126.504 14.016C126.132 14.352 125.946 14.868 125.946 15.564V21H123.336V11.586ZM138.059 21.18C137.063 21.18 136.307 20.934 135.791 20.442C135.275 19.938 135.017 19.194 135.017 18.21V13.44H133.811V11.586H135.017V9.552H137.609V11.586H139.589V13.44H137.609V17.976C137.609 18.348 137.693 18.63 137.861 18.822C138.041 19.002 138.305 19.092 138.653 19.092C138.845 19.092 139.019 19.08 139.175 19.056C139.343 19.02 139.499 18.972 139.643 18.912V20.928C139.463 20.988 139.241 21.042 138.977 21.09C138.713 21.15 138.407 21.18 138.059 21.18Z" fill="#181818"/>
</svg>
