<svg width="22" height="16" viewBox="0 0 22 16" fill="none" xmlns="http://www.w3.org/2000/svg">
<path d="M5.50001 16C3.96667 16 2.66667 15.4667 1.6 14.4C0.533334 13.3333 0 12.0333 0 10.5C0 9.2 0.404167 8.05417 1.2125 7.0625C2.02084 6.07083 3.03334 5.43333 4.25001 5.15C4.66667 3.65 5.49167 2.41667 6.72501 1.45C7.95834 0.483333 9.38334 0 11 0C12.9833 0 14.6459 0.6875 15.9875 2.0625C16.853 2.94951 17.4394 3.94923 17.7465 5.06166C17.0668 5.17532 16.4363 5.44528 15.8807 5.86468C15.6818 4.95976 15.234 4.15903 14.5375 3.4625C13.5625 2.4875 12.3833 2 11 2C9.95001 2 9.01668 2.2875 8.20001 2.8625C7.38334 3.4375 6.78334 4.175 6.40001 5.075C7.70001 5.29167 8.79168 5.90417 9.67501 6.9125C10.4501 7.7973 10.8852 8.82646 10.9801 10H8.9679C8.86835 9.24571 8.53739 8.58738 7.97501 8.025C7.29168 7.34167 6.46667 7 5.50001 7C4.53334 7 3.70834 7.34167 3.025 8.025C2.34167 8.70833 2 9.53333 2 10.5C2 11.4667 2.34167 12.2917 3.025 12.975C3.70834 13.6583 4.53334 14 5.50001 14H13V16H5.50001Z" fill="#FF7314"/>
<path fill-rule="evenodd" clip-rule="evenodd" d="M15.3354 15.6766C15.559 15.8922 15.8361 16 16.1667 16H20.8333C21.1639 16 21.441 15.8922 21.6646 15.6766C21.8882 15.4609 22 15.1938 22 14.875V11.5C22 11.1812 21.8882 10.9141 21.6646 10.6984C21.441 10.4828 21.1639 10.375 20.8333 10.375V9.25C20.8333 8.63125 20.6049 8.10156 20.1479 7.66094C19.691 7.22031 19.1417 7 18.5 7C17.8583 7 17.309 7.22031 16.8521 7.66094C16.3951 8.10156 16.1667 8.63125 16.1667 9.25V10.375C15.8361 10.375 15.559 10.4828 15.3354 10.6984C15.1118 10.9141 15 11.1812 15 11.5V14.875C15 15.1938 15.1118 15.4609 15.3354 15.6766ZM19.6667 9.25V10.375H17.3333V9.25C17.3333 8.93125 17.4451 8.66406 17.6688 8.44844C17.8924 8.23281 18.1694 8.125 18.5 8.125C18.8306 8.125 19.1076 8.23281 19.3313 8.44844C19.5549 8.66406 19.6667 8.93125 19.6667 9.25Z" fill="#FF7314"/>
</svg>
