<svg width="21" height="21" viewBox="0 0 21 21" fill="none" xmlns="http://www.w3.org/2000/svg">
<path d="M10.5 12.596L8.404 10.5L10.5 8.404L12.596 10.5L10.5 12.596ZM8.273 6.62042L6.07628 4.4237L10.5 0L14.9237 4.4237L12.727 6.62042L10.5 4.39344L8.273 6.62042ZM4.4237 14.9237L0 10.5L4.4237 6.07628L6.62042 8.273L4.39344 10.5L6.62042 12.727L4.4237 14.9237ZM16.5763 14.9237L14.3795 12.727L16.6065 10.5L14.3795 8.273L16.5763 6.07628L21 10.5L16.5763 14.9237ZM10.5 21L6.07628 16.5763L8.273 14.3795L10.5 16.6065L12.727 14.3795L14.9237 16.5763L10.5 21Z" fill="#BD3259"/>
</svg>
